%TF.GenerationSoftware,KiCad,Pcbnew,(6.0.5)*%
%TF.CreationDate,2022-06-15T23:23:07+02:00*%
%TF.ProjectId,whalepad,7768616c-6570-4616-942e-6b696361645f,rev?*%
%TF.SameCoordinates,Original*%
%TF.FileFunction,Soldermask,Bot*%
%TF.FilePolarity,Negative*%
%FSLAX46Y46*%
G04 Gerber Fmt 4.6, Leading zero omitted, Abs format (unit mm)*
G04 Created by KiCad (PCBNEW (6.0.5)) date 2022-06-15 23:23:07*
%MOMM*%
%LPD*%
G01*
G04 APERTURE LIST*
G04 Aperture macros list*
%AMRoundRect*
0 Rectangle with rounded corners*
0 $1 Rounding radius*
0 $2 $3 $4 $5 $6 $7 $8 $9 X,Y pos of 4 corners*
0 Add a 4 corners polygon primitive as box body*
4,1,4,$2,$3,$4,$5,$6,$7,$8,$9,$2,$3,0*
0 Add four circle primitives for the rounded corners*
1,1,$1+$1,$2,$3*
1,1,$1+$1,$4,$5*
1,1,$1+$1,$6,$7*
1,1,$1+$1,$8,$9*
0 Add four rect primitives between the rounded corners*
20,1,$1+$1,$2,$3,$4,$5,0*
20,1,$1+$1,$4,$5,$6,$7,0*
20,1,$1+$1,$6,$7,$8,$9,0*
20,1,$1+$1,$8,$9,$2,$3,0*%
G04 Aperture macros list end*
%ADD10C,3.987800*%
%ADD11C,1.750000*%
%ADD12C,2.200000*%
%ADD13C,2.300000*%
%ADD14C,4.000000*%
%ADD15C,0.650000*%
%ADD16O,1.000000X2.100000*%
%ADD17O,1.000000X1.600000*%
%ADD18RoundRect,0.200000X0.300000X0.200000X-0.300000X0.200000X-0.300000X-0.200000X0.300000X-0.200000X0*%
%ADD19C,0.990600*%
%ADD20C,0.787400*%
%ADD21R,1.700000X1.700000*%
%ADD22O,1.700000X1.700000*%
%ADD23RoundRect,0.200000X-0.200000X-0.450000X0.200000X-0.450000X0.200000X0.450000X-0.200000X0.450000X0*%
%ADD24O,0.800000X1.300000*%
G04 APERTURE END LIST*
D10*
%TO.C,SW1*%
X0Y0D03*
D11*
X-5080000Y0D03*
X5080000Y0D03*
D12*
X-3300000Y640000D03*
D13*
X-3810000Y2540000D03*
D12*
X-3300000Y-5080000D03*
X3300000Y640000D03*
X3300000Y-5080000D03*
D13*
X2540000Y5080000D03*
%TD*%
D11*
%TO.C,SW5*%
X5080000Y-19050000D03*
X-5080000Y-19050000D03*
D10*
X0Y-19050000D03*
D13*
X-3810000Y-16510000D03*
D12*
X-3300000Y-18410000D03*
X-3300000Y-24130000D03*
X3300000Y-24130000D03*
D13*
X2540000Y-13970000D03*
D12*
X3300000Y-18410000D03*
%TD*%
D10*
%TO.C,SW2*%
X19050000Y0D03*
D11*
X24130000Y0D03*
X13970000Y0D03*
D12*
X15750000Y640000D03*
D13*
X15240000Y2540000D03*
D12*
X15750000Y-5080000D03*
X22350000Y640000D03*
D13*
X21590000Y5080000D03*
D12*
X22350000Y-5080000D03*
%TD*%
D10*
%TO.C,SW7*%
X38100000Y-19050000D03*
D11*
X43180000Y-19050000D03*
X33020000Y-19050000D03*
D13*
X34290000Y-16510000D03*
D12*
X34800000Y-24130000D03*
X34800000Y-18410000D03*
X41400000Y-24130000D03*
X41400000Y-18410000D03*
D13*
X40640000Y-13970000D03*
%TD*%
D14*
%TO.C,S1*%
X64135000Y-16668750D03*
D10*
X48895000Y-16668750D03*
X48895000Y-40481250D03*
D14*
X64135000Y-40481250D03*
%TD*%
D11*
%TO.C,SW12*%
X5080000Y-57150000D03*
X-5080000Y-57150000D03*
D10*
X0Y-57150000D03*
D12*
X-3300000Y-56510000D03*
D13*
X-3810000Y-54610000D03*
D12*
X-3300000Y-62230000D03*
X3300000Y-62230000D03*
X3300000Y-56510000D03*
D13*
X2540000Y-52070000D03*
%TD*%
D11*
%TO.C,SW10*%
X13970000Y-38100000D03*
D10*
X19050000Y-38100000D03*
D11*
X24130000Y-38100000D03*
D13*
X15240000Y-35560000D03*
D12*
X15750000Y-37460000D03*
X15750000Y-43180000D03*
X22350000Y-43180000D03*
X22350000Y-37460000D03*
D13*
X21590000Y-33020000D03*
%TD*%
D10*
%TO.C,SW16*%
X9525000Y-76200000D03*
D11*
X14605000Y-76200000D03*
X4445000Y-76200000D03*
D13*
X5715000Y-73660000D03*
D12*
X6225000Y-75560000D03*
X6225000Y-81280000D03*
X12825000Y-81280000D03*
D13*
X12065000Y-71120000D03*
D12*
X12825000Y-75560000D03*
%TD*%
D15*
%TO.C,J1*%
X31465000Y35063000D03*
X25685000Y35063000D03*
D16*
X32895000Y34533000D03*
D17*
X32895000Y38713000D03*
D16*
X24255000Y34533000D03*
D17*
X24255000Y38713000D03*
%TD*%
D11*
%TO.C,SW9*%
X-5080000Y-38100000D03*
X5080000Y-38100000D03*
D10*
X0Y-38100000D03*
D13*
X-3810000Y-35560000D03*
D12*
X-3300000Y-43180000D03*
X-3300000Y-37460000D03*
X3300000Y-37460000D03*
X3300000Y-43180000D03*
D13*
X2540000Y-33020000D03*
%TD*%
D11*
%TO.C,SW3*%
X43180000Y0D03*
X33020000Y0D03*
D10*
X38100000Y0D03*
D12*
X34800000Y-5080000D03*
X34800000Y640000D03*
D13*
X34290000Y2540000D03*
D12*
X41400000Y640000D03*
D13*
X40640000Y5080000D03*
D12*
X41400000Y-5080000D03*
%TD*%
D10*
%TO.C,SW11*%
X38100000Y-38100000D03*
D11*
X33020000Y-38100000D03*
X43180000Y-38100000D03*
D12*
X34800000Y-37460000D03*
X34800000Y-43180000D03*
D13*
X34290000Y-35560000D03*
D12*
X41400000Y-43180000D03*
D13*
X40640000Y-33020000D03*
D12*
X41400000Y-37460000D03*
%TD*%
D10*
%TO.C,S2*%
X48895000Y-78581250D03*
D14*
X64135000Y-54768750D03*
X64135000Y-78581250D03*
D10*
X48895000Y-54768750D03*
%TD*%
D11*
%TO.C,SW15*%
X57150000Y-61595000D03*
X57150000Y-71755000D03*
D10*
X57150000Y-66675000D03*
D12*
X56510000Y-69975000D03*
D13*
X54610000Y-70485000D03*
D12*
X62230000Y-69975000D03*
X56510000Y-63375000D03*
D13*
X52070000Y-64135000D03*
D12*
X62230000Y-63375000D03*
%TD*%
D11*
%TO.C,SW13*%
X13970000Y-57150000D03*
X24130000Y-57150000D03*
D10*
X19050000Y-57150000D03*
D12*
X15750000Y-56510000D03*
D13*
X15240000Y-54610000D03*
D12*
X15750000Y-62230000D03*
D13*
X21590000Y-52070000D03*
D12*
X22350000Y-62230000D03*
X22350000Y-56510000D03*
%TD*%
D11*
%TO.C,SW4*%
X62230000Y0D03*
D10*
X57150000Y0D03*
D11*
X52070000Y0D03*
D12*
X53850000Y640000D03*
X53850000Y-5080000D03*
D13*
X53340000Y2540000D03*
X59690000Y5080000D03*
D12*
X60450000Y-5080000D03*
X60450000Y640000D03*
%TD*%
D11*
%TO.C,SW6*%
X24130000Y-19050000D03*
D10*
X19050000Y-19050000D03*
D11*
X13970000Y-19050000D03*
D13*
X15240000Y-16510000D03*
D12*
X15750000Y-18410000D03*
X15750000Y-24130000D03*
X22350000Y-18410000D03*
D13*
X21590000Y-13970000D03*
D12*
X22350000Y-24130000D03*
%TD*%
D18*
%TO.C,U4*%
X49875000Y22751000D03*
X49875000Y21551000D03*
X49875000Y20351000D03*
X49875000Y19151000D03*
X49875000Y17951000D03*
X49875000Y16751000D03*
X49875000Y15551000D03*
X49875000Y14351000D03*
X49875000Y13151000D03*
X49875000Y11951000D03*
X49875000Y10751000D03*
X59675000Y10751000D03*
X59675000Y11951000D03*
X59675000Y13151000D03*
X59675000Y14351000D03*
X59675000Y15551000D03*
X59675000Y16751000D03*
X59675000Y17951000D03*
X59675000Y19151000D03*
X59675000Y20351000D03*
X59675000Y21551000D03*
X59675000Y22751000D03*
%TD*%
D10*
%TO.C,SW14*%
X38100000Y-57150000D03*
D11*
X43180000Y-57150000D03*
X33020000Y-57150000D03*
D12*
X34800000Y-56510000D03*
X34800000Y-62230000D03*
D13*
X34290000Y-54610000D03*
D12*
X41400000Y-56510000D03*
X41400000Y-62230000D03*
D13*
X40640000Y-52070000D03*
%TD*%
D10*
%TO.C,SW17*%
X38100000Y-76200000D03*
D11*
X43180000Y-76200000D03*
X33020000Y-76200000D03*
D12*
X34800000Y-75560000D03*
X34800000Y-81280000D03*
D13*
X34290000Y-73660000D03*
D12*
X41400000Y-75560000D03*
D13*
X40640000Y-71120000D03*
D12*
X41400000Y-81280000D03*
%TD*%
D10*
%TO.C,SW8*%
X57150000Y-28575000D03*
D11*
X57150000Y-33655000D03*
X57150000Y-23495000D03*
D12*
X62230000Y-31875000D03*
X56510000Y-31875000D03*
D13*
X54610000Y-32385000D03*
X52070000Y-26035000D03*
D12*
X62230000Y-25275000D03*
X56510000Y-25275000D03*
%TD*%
D14*
%TO.C,S3*%
X21431250Y-83185000D03*
D10*
X21431250Y-67945000D03*
D14*
X-2381250Y-83185000D03*
D10*
X-2381250Y-67945000D03*
%TD*%
D19*
%TO.C,J4*%
X61227011Y-9984489D03*
X56147011Y-11000489D03*
X61227011Y-12016489D03*
D20*
X57417011Y-10365489D03*
X57417011Y-11635489D03*
X58687011Y-10365489D03*
X58687011Y-11635489D03*
X59957011Y-10365489D03*
X59957011Y-11635489D03*
%TD*%
D21*
%TO.C,J5*%
X64595000Y16768750D03*
D22*
X64595000Y19308750D03*
%TD*%
D23*
%TO.C,J3*%
X5725000Y12153000D03*
D24*
X6975000Y12153000D03*
X8225000Y12153000D03*
X9475000Y12153000D03*
X10725000Y12153000D03*
X11975000Y12153000D03*
X13225000Y12153000D03*
%TD*%
D23*
%TO.C,J2*%
X17975000Y12153000D03*
D24*
X19225000Y12153000D03*
%TD*%
M02*
