M48
; DRILL file {KiCad (6.0.5)} date Wed Jun 15 23:23:07 2022
; FORMAT={-:-/ absolute / inch / decimal}
; #@! TF.CreationDate,2022-06-15T23:23:07+02:00
; #@! TF.GenerationSoftware,Kicad,Pcbnew,(6.0.5)
; #@! TF.FileFunction,Plated,1,2,PTH
FMAT,2
INCH
; #@! TA.AperFunction,Plated,PTH,ViaDrill
T1C0.0118
; #@! TA.AperFunction,Plated,PTH,ComponentDrill
T2C0.0157
; #@! TA.AperFunction,Plated,PTH,ComponentDrill
T3C0.0197
; #@! TA.AperFunction,Plated,PTH,ComponentDrill
T4C0.0236
; #@! TA.AperFunction,Plated,PTH,ComponentDrill
T5C0.0394
; #@! TA.AperFunction,Plated,PTH,ComponentDrill
T6C0.0551
; #@! TA.AperFunction,Plated,PTH,ComponentDrill
T7C0.0600
; #@! TA.AperFunction,Plated,PTH,ComponentDrill
T8C0.1200
%
G90
G05
T1
X-0.3356Y1.1411
X-0.3356Y0.6455
X-0.3356Y0.209
X-0.3356Y-0.2276
X-0.3356Y-0.6641
X-0.3356Y-1.1006
X-0.3356Y-1.5372
X-0.3356Y-1.9737
X-0.3356Y-2.4103
X-0.3356Y-2.8468
X-0.3356Y-3.2833
X-0.2243Y1.2524
X-0.2243Y-3.3947
X0.1301Y1.2524
X0.2058Y0.6773
X0.2255Y-3.3947
X0.2398Y0.6403
X0.2846Y0.8804
X0.3225Y0.8056
X0.3264Y0.7269
X0.3697Y0.8056
X0.3776Y1.0615
X0.413Y0.7117
X0.413Y0.6822
X0.417Y0.8411
X0.4242Y0.6537
X0.4701Y0.7668
X0.48Y0.9041
X0.4844Y1.2545
X0.4996Y0.8056
X0.5083Y1.097
X0.539Y0.7029
X0.5784Y1.0615
X0.5784Y1.0143
X0.5902Y0.8056
X0.6289Y1.2319
X0.6374Y0.8056
X0.6729Y0.8757
X0.6752Y-3.3947
X0.7352Y1.2319
X0.7864Y0.7958
X0.8022Y1.2319
X0.8612Y0.9949
X0.8744Y1.1014
X0.8967Y1.0692
X0.9911Y1.0692
X0.997Y1.2802
X1.0285Y1.2802
X1.062Y1.2389
X1.0738Y1.0143
X1.0738Y0.7189
X1.0738Y0.4907
X1.0738Y0.3707
X1.0778Y1.2111
X1.0906Y0.688
X1.1201Y0.688
X1.125Y-3.3947
X1.1329Y1.2348
X1.1368Y1.0143
X1.1368Y0.7189
X1.1368Y0.4907
X1.1506Y0.3707
X1.1506Y0.2919
X1.1742Y1.2507
X1.2116Y0.943
X1.2116Y0.8248
X1.2215Y1.2802
X1.253Y1.2802
X1.2825Y1.2802
X1.2904Y0.943
X1.3691Y0.943
X1.3691Y0.8248
X1.4478Y0.943
X1.5145Y0.6506
X1.5145Y0.5582
X1.5266Y0.943
X1.5266Y0.8248
X1.5748Y-3.3947
X1.5974Y0.376
X1.6053Y0.943
X1.625Y0.2958
X1.6329Y0.5374
X1.6424Y0.5739
X1.6497Y0.2756
X1.6841Y0.943
X1.6841Y0.8248
X1.6875Y-0.4441
X1.6875Y-1.9441
X1.6876Y0.4726
X1.6994Y0.5857
X1.7628Y0.943
X1.7667Y0.4666
X1.7904Y0.5611
X1.8022Y0.2677
X1.814Y0.4659
X1.8415Y0.943
X1.8415Y0.8248
X1.8415Y0.2579
X1.8452Y0.6831
X1.8494Y0.4075
X1.9596Y0.943
X1.9726Y0.2441
X2.0245Y-3.3947
X2.0384Y0.943
X2.0384Y0.8248
X2.0384Y0.7067
X2.0384Y0.4705
X2.1171Y0.943
X2.1959Y0.943
X2.1959Y0.1477
X2.2244Y0.2514
X2.2605Y-0.3702
X2.2605Y-0.496
X2.2746Y0.943
X2.2746Y0.8248
X2.2746Y0.7067
X2.2746Y0.5886
X2.2746Y0.4705
X2.3105Y-0.496
X2.3533Y0.943
X2.382Y0.2835
X2.4085Y0.3603
X2.4715Y0.943
X2.4743Y-3.3947
X2.4793Y-0.435
X2.5108Y0.5493
X2.5187Y0.1477
X2.5502Y0.943
X2.559Y-0.3406
X2.5856Y0.118
X2.5856Y-0.2995
X2.5856Y-1.1346
X2.5856Y-2.0307
X2.5856Y-2.4482
X2.5856Y-2.8658
X2.5856Y-3.2833
X2.5896Y0.5493
T2
X1.9636Y0.8957
X1.9636Y0.8485
X1.9636Y0.8012
X1.9636Y0.754
X1.9636Y0.7067
X1.9636Y0.6595
X1.9636Y0.6122
X1.9636Y0.565
X1.9636Y0.5178
X1.9636Y0.4705
X1.9636Y0.4233
X2.3494Y0.8957
X2.3494Y0.8485
X2.3494Y0.8012
X2.3494Y0.754
X2.3494Y0.7067
X2.3494Y0.6595
X2.3494Y0.6122
X2.3494Y0.565
X2.3494Y0.5178
X2.3494Y0.4705
X2.3494Y0.4233
T3
X0.2254Y0.4785
X0.2746Y0.4785
X0.3238Y0.4785
X0.373Y0.4785
X0.4222Y0.4785
X0.4715Y0.4785
X0.5207Y0.4785
X0.7077Y0.4785
X0.7569Y0.4785
T5
X2.5431Y0.7602
X2.5431Y0.6602
T6
X-0.1299Y0.0252
X-0.1299Y-0.2
X-0.1299Y-0.7248
X-0.1299Y-0.95
X-0.1299Y-1.4748
X-0.1299Y-1.7
X-0.1299Y-2.2248
X-0.1299Y-2.45
X0.1299Y0.0252
X0.1299Y-0.2
X0.1299Y-0.7248
X0.1299Y-0.95
X0.1299Y-1.4748
X0.1299Y-1.7
X0.1299Y-2.2248
X0.1299Y-2.45
X0.2451Y-2.9748
X0.2451Y-3.2
X0.5049Y-2.9748
X0.5049Y-3.2
X0.6201Y0.0252
X0.6201Y-0.2
X0.6201Y-0.7248
X0.6201Y-0.95
X0.6201Y-1.4748
X0.6201Y-1.7
X0.6201Y-2.2248
X0.6201Y-2.45
X0.8799Y0.0252
X0.8799Y-0.2
X0.8799Y-0.7248
X0.8799Y-0.95
X0.8799Y-1.4748
X0.8799Y-1.7
X0.8799Y-2.2248
X0.8799Y-2.45
X1.3701Y0.0252
X1.3701Y-0.2
X1.3701Y-0.7248
X1.3701Y-0.95
X1.3701Y-1.4748
X1.3701Y-1.7
X1.3701Y-2.2248
X1.3701Y-2.45
X1.3701Y-2.9748
X1.3701Y-3.2
X1.6299Y0.0252
X1.6299Y-0.2
X1.6299Y-0.7248
X1.6299Y-0.95
X1.6299Y-1.4748
X1.6299Y-1.7
X1.6299Y-2.2248
X1.6299Y-2.45
X1.6299Y-2.9748
X1.6299Y-3.2
X2.1201Y0.0252
X2.1201Y-0.2
X2.2248Y-0.9951
X2.2248Y-1.2549
X2.2248Y-2.4951
X2.2248Y-2.7549
X2.3799Y0.0252
X2.3799Y-0.2
X2.45Y-0.9951
X2.45Y-1.2549
X2.45Y-2.4951
X2.45Y-2.7549
T7
X-0.15Y0.1
X-0.15Y-0.65
X-0.15Y-1.4
X-0.15Y-2.15
X0.1Y0.2
X0.1Y-0.55
X0.1Y-1.3
X0.1Y-2.05
X0.225Y-2.9
X0.475Y-2.8
X0.6Y0.1
X0.6Y-0.65
X0.6Y-1.4
X0.6Y-2.15
X0.85Y0.2
X0.85Y-0.55
X0.85Y-1.3
X0.85Y-2.05
X1.35Y0.1
X1.35Y-0.65
X1.35Y-1.4
X1.35Y-2.15
X1.35Y-2.9
X1.6Y0.2
X1.6Y-0.55
X1.6Y-1.3
X1.6Y-2.05
X1.6Y-2.8
X2.05Y-1.025
X2.05Y-2.525
X2.1Y0.1
X2.15Y-1.275
X2.15Y-2.775
X2.35Y0.2
T8
X-0.0938Y-3.275
X0.8438Y-3.275
X2.525Y-0.6562
X2.525Y-1.5938
X2.525Y-2.1562
X2.525Y-3.0938
T4
G00X0.9549Y1.5123
M15
G01X0.9549Y1.5359
M16
G05
G00X0.9549Y1.3379
M15
G01X0.9549Y1.3812
M16
G05
G00X1.2951Y1.5123
M15
G01X1.2951Y1.5359
M16
G05
G00X1.2951Y1.3379
M15
G01X1.2951Y1.3812
M16
G05
T0
M30
