%TF.GenerationSoftware,KiCad,Pcbnew,(6.0.5)*%
%TF.CreationDate,2022-06-15T23:23:07+02:00*%
%TF.ProjectId,whalepad,7768616c-6570-4616-942e-6b696361645f,rev?*%
%TF.SameCoordinates,Original*%
%TF.FileFunction,Legend,Top*%
%TF.FilePolarity,Positive*%
%FSLAX46Y46*%
G04 Gerber Fmt 4.6, Leading zero omitted, Abs format (unit mm)*
G04 Created by KiCad (PCBNEW (6.0.5)) date 2022-06-15 23:23:07*
%MOMM*%
%LPD*%
G01*
G04 APERTURE LIST*
G04 Aperture macros list*
%AMRoundRect*
0 Rectangle with rounded corners*
0 $1 Rounding radius*
0 $2 $3 $4 $5 $6 $7 $8 $9 X,Y pos of 4 corners*
0 Add a 4 corners polygon primitive as box body*
4,1,4,$2,$3,$4,$5,$6,$7,$8,$9,$2,$3,0*
0 Add four circle primitives for the rounded corners*
1,1,$1+$1,$2,$3*
1,1,$1+$1,$4,$5*
1,1,$1+$1,$6,$7*
1,1,$1+$1,$8,$9*
0 Add four rect primitives between the rounded corners*
20,1,$1+$1,$2,$3,$4,$5,0*
20,1,$1+$1,$4,$5,$6,$7,0*
20,1,$1+$1,$6,$7,$8,$9,0*
20,1,$1+$1,$8,$9,$2,$3,0*%
G04 Aperture macros list end*
%ADD10C,0.150000*%
%ADD11C,0.120000*%
%ADD12R,0.700000X0.600000*%
%ADD13RoundRect,0.135000X-0.185000X0.135000X-0.185000X-0.135000X0.185000X-0.135000X0.185000X0.135000X0*%
%ADD14RoundRect,0.140000X-0.140000X-0.170000X0.140000X-0.170000X0.140000X0.170000X-0.140000X0.170000X0*%
%ADD15RoundRect,0.062500X-0.325000X-0.062500X0.325000X-0.062500X0.325000X0.062500X-0.325000X0.062500X0*%
%ADD16R,0.700000X1.300000*%
%ADD17RoundRect,0.062500X-0.375000X-0.062500X0.375000X-0.062500X0.375000X0.062500X-0.375000X0.062500X0*%
%ADD18RoundRect,0.062500X-0.062500X-0.375000X0.062500X-0.375000X0.062500X0.375000X-0.062500X0.375000X0*%
%ADD19R,1.600000X1.600000*%
%ADD20C,3.987800*%
%ADD21C,1.750000*%
%ADD22RoundRect,0.150000X-0.150000X0.587500X-0.150000X-0.587500X0.150000X-0.587500X0.150000X0.587500X0*%
%ADD23RoundRect,0.140000X0.170000X-0.140000X0.170000X0.140000X-0.170000X0.140000X-0.170000X-0.140000X0*%
%ADD24RoundRect,0.135000X0.185000X-0.135000X0.185000X0.135000X-0.185000X0.135000X-0.185000X-0.135000X0*%
%ADD25RoundRect,0.135000X0.135000X0.185000X-0.135000X0.185000X-0.135000X-0.185000X0.135000X-0.185000X0*%
%ADD26C,0.650000*%
%ADD27R,0.600000X1.450000*%
%ADD28R,0.300000X1.450000*%
%ADD29O,1.000000X2.100000*%
%ADD30O,1.000000X1.600000*%
%ADD31RoundRect,0.150000X0.512500X0.150000X-0.512500X0.150000X-0.512500X-0.150000X0.512500X-0.150000X0*%
%ADD32RoundRect,0.140000X-0.170000X0.140000X-0.170000X-0.140000X0.170000X-0.140000X0.170000X0.140000X0*%
%ADD33RoundRect,0.218750X-0.218750X-0.256250X0.218750X-0.256250X0.218750X0.256250X-0.218750X0.256250X0*%
%ADD34RoundRect,0.218750X-0.256250X0.218750X-0.256250X-0.218750X0.256250X-0.218750X0.256250X0.218750X0*%
%ADD35RoundRect,0.147500X-0.147500X-0.172500X0.147500X-0.172500X0.147500X0.172500X-0.147500X0.172500X0*%
%ADD36RoundRect,0.200000X-0.400000X-0.200000X0.400000X-0.200000X0.400000X0.200000X-0.400000X0.200000X0*%
%ADD37RoundRect,0.200000X0.200000X-0.400000X0.200000X0.400000X-0.200000X0.400000X-0.200000X-0.400000X0*%
%ADD38RoundRect,0.200000X0.400000X0.200000X-0.400000X0.200000X-0.400000X-0.200000X0.400000X-0.200000X0*%
%ADD39RoundRect,0.200000X0.300000X0.200000X-0.300000X0.200000X-0.300000X-0.200000X0.300000X-0.200000X0*%
%ADD40C,1.000000*%
%ADD41RoundRect,0.140000X0.140000X0.170000X-0.140000X0.170000X-0.140000X-0.170000X0.140000X-0.170000X0*%
%ADD42RoundRect,0.147500X-0.172500X0.147500X-0.172500X-0.147500X0.172500X-0.147500X0.172500X0.147500X0*%
%ADD43C,0.990600*%
%ADD44R,1.700000X1.700000*%
%ADD45O,1.700000X1.700000*%
%ADD46RoundRect,0.200000X-0.200000X-0.450000X0.200000X-0.450000X0.200000X0.450000X-0.200000X0.450000X0*%
%ADD47O,0.800000X1.300000*%
G04 APERTURE END LIST*
D10*
X-7000000Y-7000000D02*
X-5000000Y-7000000D01*
X12050000Y7000000D02*
X12050000Y5000000D01*
X31100000Y-12050000D02*
X33100000Y-12050000D01*
X12050000Y-50150000D02*
X12050000Y-52150000D01*
X16525000Y-69200000D02*
X14525000Y-69200000D01*
X31100000Y-12050000D02*
X31100000Y-14050000D01*
X26050000Y-7000000D02*
X24050000Y-7000000D01*
X50150000Y-73675000D02*
X50150000Y-71675000D01*
X64150000Y-59675000D02*
X64150000Y-61675000D01*
X26050000Y-50150000D02*
X24050000Y-50150000D01*
X50150000Y-59675000D02*
X50150000Y-61675000D01*
X-7000000Y-50150000D02*
X-5000000Y-50150000D01*
X64150000Y7000000D02*
X64150000Y5000000D01*
X64150000Y-7000000D02*
X62150000Y-7000000D01*
X26050000Y-12050000D02*
X24050000Y-12050000D01*
X7000000Y-7000000D02*
X7000000Y-5000000D01*
X26050000Y-12050000D02*
X26050000Y-14050000D01*
X31100000Y-7000000D02*
X31100000Y-5000000D01*
X-7000000Y-31100000D02*
X-7000000Y-33100000D01*
X26050000Y-64150000D02*
X24050000Y-64150000D01*
X64150000Y-59675000D02*
X62150000Y-59675000D01*
X45100000Y-64150000D02*
X45100000Y-62150000D01*
X-7000000Y-12050000D02*
X-7000000Y-14050000D01*
X12050000Y-45100000D02*
X12050000Y-43100000D01*
X26050000Y-7000000D02*
X26050000Y-5000000D01*
X26050000Y-50150000D02*
X26050000Y-52150000D01*
X31100000Y-26050000D02*
X31100000Y-24050000D01*
X7000000Y7000000D02*
X5000000Y7000000D01*
X-7000000Y7000000D02*
X-5000000Y7000000D01*
X31100000Y-7000000D02*
X33100000Y-7000000D01*
X50150000Y-7000000D02*
X52150000Y-7000000D01*
X7000000Y-31100000D02*
X7000000Y-33100000D01*
X31100000Y-64150000D02*
X31100000Y-62150000D01*
X12050000Y-12050000D02*
X12050000Y-14050000D01*
X16525000Y-83200000D02*
X16525000Y-81200000D01*
X31100000Y-26050000D02*
X33100000Y-26050000D01*
X45100000Y-31100000D02*
X45100000Y-33100000D01*
X64150000Y7000000D02*
X62150000Y7000000D01*
X50150000Y-35575000D02*
X52150000Y-35575000D01*
X50150000Y-7000000D02*
X50150000Y-5000000D01*
X50150000Y-35575000D02*
X50150000Y-33575000D01*
X26050000Y-26050000D02*
X24050000Y-26050000D01*
X7000000Y-50150000D02*
X7000000Y-52150000D01*
X45100000Y-45100000D02*
X45100000Y-43100000D01*
X31100000Y-50150000D02*
X31100000Y-52150000D01*
X7000000Y-31100000D02*
X5000000Y-31100000D01*
X7000000Y-12050000D02*
X5000000Y-12050000D01*
X64150000Y-21575000D02*
X62150000Y-21575000D01*
X-7000000Y-64150000D02*
X-7000000Y-62150000D01*
X7000000Y-26050000D02*
X5000000Y-26050000D01*
X50150000Y7000000D02*
X52150000Y7000000D01*
X12050000Y-7000000D02*
X12050000Y-5000000D01*
X31100000Y-50150000D02*
X33100000Y-50150000D01*
X31100000Y-45100000D02*
X31100000Y-43100000D01*
X7000000Y-50150000D02*
X5000000Y-50150000D01*
X45100000Y-26050000D02*
X43100000Y-26050000D01*
X2525000Y-69200000D02*
X2525000Y-71200000D01*
X12050000Y-26050000D02*
X14050000Y-26050000D01*
X45100000Y-7000000D02*
X43100000Y-7000000D01*
X45100000Y-69200000D02*
X43100000Y-69200000D01*
X31100000Y-64150000D02*
X33100000Y-64150000D01*
X50150000Y-59675000D02*
X52150000Y-59675000D01*
X64150000Y-7000000D02*
X64150000Y-5000000D01*
X2525000Y-83200000D02*
X4525000Y-83200000D01*
X64150000Y-35575000D02*
X64150000Y-33575000D01*
X26050000Y7000000D02*
X26050000Y5000000D01*
X45100000Y-50150000D02*
X43100000Y-50150000D01*
X31100000Y7000000D02*
X33100000Y7000000D01*
X16525000Y-69200000D02*
X16525000Y-71200000D01*
X12050000Y-31100000D02*
X14050000Y-31100000D01*
X50150000Y-73675000D02*
X52150000Y-73675000D01*
X26050000Y-45100000D02*
X26050000Y-43100000D01*
X31100000Y-69200000D02*
X31100000Y-71200000D01*
X12050000Y-12050000D02*
X14050000Y-12050000D01*
X31100000Y-69200000D02*
X33100000Y-69200000D01*
X45100000Y-12050000D02*
X43100000Y-12050000D01*
X50150000Y7000000D02*
X50150000Y5000000D01*
X31100000Y-31100000D02*
X33100000Y-31100000D01*
X-7000000Y-7000000D02*
X-7000000Y-5000000D01*
X-7000000Y-31100000D02*
X-5000000Y-31100000D01*
X26050000Y-26050000D02*
X26050000Y-24050000D01*
X-7000000Y-26050000D02*
X-5000000Y-26050000D01*
X45100000Y-50150000D02*
X45100000Y-52150000D01*
X-7000000Y-12050000D02*
X-5000000Y-12050000D01*
X2525000Y-69200000D02*
X4525000Y-69200000D01*
X7000000Y-26050000D02*
X7000000Y-24050000D01*
X7000000Y-64150000D02*
X7000000Y-62150000D01*
X-7000000Y-26050000D02*
X-7000000Y-24050000D01*
X12050000Y-7000000D02*
X14050000Y-7000000D01*
X45100000Y-7000000D02*
X45100000Y-5000000D01*
X26050000Y-31100000D02*
X26050000Y-33100000D01*
X64150000Y-21575000D02*
X64150000Y-23575000D01*
X2525000Y-83200000D02*
X2525000Y-81200000D01*
X-7000000Y-45100000D02*
X-5000000Y-45100000D01*
X45100000Y-83200000D02*
X43100000Y-83200000D01*
X7000000Y-7000000D02*
X5000000Y-7000000D01*
X45100000Y7000000D02*
X43100000Y7000000D01*
X64150000Y-73675000D02*
X64150000Y-71675000D01*
X16525000Y-83200000D02*
X14525000Y-83200000D01*
X12050000Y-50150000D02*
X14050000Y-50150000D01*
X26050000Y-45100000D02*
X24050000Y-45100000D01*
X45100000Y-64150000D02*
X43100000Y-64150000D01*
X7000000Y-12050000D02*
X7000000Y-14050000D01*
X64150000Y-41199348D02*
X64150000Y-39199348D01*
X31100000Y-83200000D02*
X31100000Y-81200000D01*
X12050000Y7000000D02*
X14050000Y7000000D01*
X12050000Y-64150000D02*
X14050000Y-64150000D01*
X64150000Y-73675000D02*
X62150000Y-73675000D01*
X12050000Y-31100000D02*
X12050000Y-33100000D01*
X45100000Y-12050000D02*
X45100000Y-14050000D01*
X31100000Y-45100000D02*
X33100000Y-45100000D01*
X45100000Y-69200000D02*
X45100000Y-71200000D01*
X45100000Y-31100000D02*
X43100000Y-31100000D01*
X12050000Y-45100000D02*
X14050000Y-45100000D01*
X7000000Y-45100000D02*
X7000000Y-43100000D01*
X50150000Y-21575000D02*
X50150000Y-23575000D01*
X-7000000Y-64150000D02*
X-5000000Y-64150000D01*
X26050000Y7000000D02*
X24050000Y7000000D01*
X45100000Y-83200000D02*
X45100000Y-81200000D01*
X45100000Y-45100000D02*
X43100000Y-45100000D01*
X7000000Y7000000D02*
X7000000Y5000000D01*
X64150000Y-35575000D02*
X62150000Y-35575000D01*
X45100000Y7000000D02*
X45100000Y5000000D01*
X12050000Y-64150000D02*
X12050000Y-62150000D01*
X50150000Y-21575000D02*
X52150000Y-21575000D01*
X-7000000Y-50150000D02*
X-7000000Y-52150000D01*
X12050000Y-26050000D02*
X12050000Y-24050000D01*
X31100000Y-31100000D02*
X31100000Y-33100000D01*
X31100000Y-83200000D02*
X33100000Y-83200000D01*
X26050000Y-31100000D02*
X24050000Y-31100000D01*
X7000000Y-64150000D02*
X5000000Y-64150000D01*
X26050000Y-64150000D02*
X26050000Y-62150000D01*
X-7000000Y-45100000D02*
X-7000000Y-43100000D01*
X7000000Y-45100000D02*
X5000000Y-45100000D01*
X45100000Y-26050000D02*
X45100000Y-24050000D01*
X31100000Y7000000D02*
X31100000Y5000000D01*
X-7000000Y7000000D02*
X-7000000Y5000000D01*
X8548809Y13362880D02*
X8586904Y13477166D01*
X8586904Y13667642D01*
X8548809Y13743833D01*
X8510714Y13781928D01*
X8434523Y13820023D01*
X8358333Y13820023D01*
X8282142Y13781928D01*
X8244047Y13743833D01*
X8205952Y13667642D01*
X8167857Y13515261D01*
X8129761Y13439071D01*
X8091666Y13400976D01*
X8015476Y13362880D01*
X7939285Y13362880D01*
X7863095Y13400976D01*
X7825000Y13439071D01*
X7786904Y13515261D01*
X7786904Y13705738D01*
X7825000Y13820023D01*
X8510714Y14620023D02*
X8548809Y14581928D01*
X8586904Y14467642D01*
X8586904Y14391452D01*
X8548809Y14277166D01*
X8472619Y14200976D01*
X8396428Y14162880D01*
X8244047Y14124785D01*
X8129761Y14124785D01*
X7977380Y14162880D01*
X7901190Y14200976D01*
X7825000Y14277166D01*
X7786904Y14391452D01*
X7786904Y14467642D01*
X7825000Y14581928D01*
X7863095Y14620023D01*
X8586904Y15343833D02*
X8586904Y14962880D01*
X7786904Y14962880D01*
X9836904Y13770023D02*
X9836904Y13312880D01*
X9836904Y13541452D02*
X9036904Y13541452D01*
X9151190Y13465261D01*
X9227380Y13389071D01*
X9265476Y13312880D01*
X9760714Y14112880D02*
X9798809Y14150976D01*
X9836904Y14112880D01*
X9798809Y14074785D01*
X9760714Y14112880D01*
X9836904Y14112880D01*
X9036904Y14646214D02*
X9036904Y14722404D01*
X9075000Y14798595D01*
X9113095Y14836690D01*
X9189285Y14874785D01*
X9341666Y14912880D01*
X9532142Y14912880D01*
X9684523Y14874785D01*
X9760714Y14836690D01*
X9798809Y14798595D01*
X9836904Y14722404D01*
X9836904Y14646214D01*
X9798809Y14570023D01*
X9760714Y14531928D01*
X9684523Y14493833D01*
X9532142Y14455738D01*
X9341666Y14455738D01*
X9189285Y14493833D01*
X9113095Y14531928D01*
X9075000Y14570023D01*
X9036904Y14646214D01*
X9836904Y15293833D02*
X9836904Y15446214D01*
X9798809Y15522404D01*
X9760714Y15560500D01*
X9646428Y15636690D01*
X9494047Y15674785D01*
X9189285Y15674785D01*
X9113095Y15636690D01*
X9075000Y15598595D01*
X9036904Y15522404D01*
X9036904Y15370023D01*
X9075000Y15293833D01*
X9113095Y15255738D01*
X9189285Y15217642D01*
X9379761Y15217642D01*
X9455952Y15255738D01*
X9494047Y15293833D01*
X9532142Y15370023D01*
X9532142Y15522404D01*
X9494047Y15598595D01*
X9455952Y15636690D01*
X9379761Y15674785D01*
X10061000Y13210500D02*
X10061000Y14010500D01*
X11010714Y13858119D02*
X11048809Y13820023D01*
X11086904Y13705738D01*
X11086904Y13629547D01*
X11048809Y13515261D01*
X10972619Y13439071D01*
X10896428Y13400976D01*
X10744047Y13362880D01*
X10629761Y13362880D01*
X10477380Y13400976D01*
X10401190Y13439071D01*
X10325000Y13515261D01*
X10286904Y13629547D01*
X10286904Y13705738D01*
X10325000Y13820023D01*
X10363095Y13858119D01*
X10061000Y14010500D02*
X10061000Y14848595D01*
X11086904Y14200976D02*
X10286904Y14200976D01*
X10667857Y14200976D02*
X10667857Y14658119D01*
X11086904Y14658119D02*
X10286904Y14658119D01*
X10061000Y14848595D02*
X10061000Y15648595D01*
X10325000Y15458119D02*
X10286904Y15381928D01*
X10286904Y15267642D01*
X10325000Y15153357D01*
X10401190Y15077166D01*
X10477380Y15039071D01*
X10629761Y15000976D01*
X10744047Y15000976D01*
X10896428Y15039071D01*
X10972619Y15077166D01*
X11048809Y15153357D01*
X11086904Y15267642D01*
X11086904Y15343833D01*
X11048809Y15458119D01*
X11010714Y15496214D01*
X10744047Y15496214D01*
X10744047Y15343833D01*
X7298809Y13362880D02*
X7336904Y13477166D01*
X7336904Y13667642D01*
X7298809Y13743833D01*
X7260714Y13781928D01*
X7184523Y13820023D01*
X7108333Y13820023D01*
X7032142Y13781928D01*
X6994047Y13743833D01*
X6955952Y13667642D01*
X6917857Y13515261D01*
X6879761Y13439071D01*
X6841666Y13400976D01*
X6765476Y13362880D01*
X6689285Y13362880D01*
X6613095Y13400976D01*
X6575000Y13439071D01*
X6536904Y13515261D01*
X6536904Y13705738D01*
X6575000Y13820023D01*
X7336904Y14162880D02*
X6536904Y14162880D01*
X6536904Y14353357D01*
X6575000Y14467642D01*
X6651190Y14543833D01*
X6727380Y14581928D01*
X6879761Y14620023D01*
X6994047Y14620023D01*
X7146428Y14581928D01*
X7222619Y14543833D01*
X7298809Y14467642D01*
X7336904Y14353357D01*
X7336904Y14162880D01*
X7108333Y14924785D02*
X7108333Y15305738D01*
X7336904Y14848595D02*
X6536904Y15115261D01*
X7336904Y15381928D01*
X5325000Y13770023D02*
X5286904Y13693833D01*
X5286904Y13579547D01*
X5325000Y13465261D01*
X5401190Y13389071D01*
X5477380Y13350976D01*
X5629761Y13312880D01*
X5744047Y13312880D01*
X5896428Y13350976D01*
X5972619Y13389071D01*
X6048809Y13465261D01*
X6086904Y13579547D01*
X6086904Y13655738D01*
X6048809Y13770023D01*
X6010714Y13808119D01*
X5744047Y13808119D01*
X5744047Y13655738D01*
X6086904Y14150976D02*
X5286904Y14150976D01*
X6086904Y14608119D01*
X5286904Y14608119D01*
X6086904Y14989071D02*
X5286904Y14989071D01*
X5286904Y15179547D01*
X5325000Y15293833D01*
X5401190Y15370023D01*
X5477380Y15408119D01*
X5629761Y15446214D01*
X5744047Y15446214D01*
X5896428Y15408119D01*
X5972619Y15370023D01*
X6048809Y15293833D01*
X6086904Y15179547D01*
X6086904Y14989071D01*
X12786904Y13236690D02*
X13586904Y13503357D01*
X12786904Y13770023D01*
X13548809Y13998595D02*
X13586904Y14112880D01*
X13586904Y14303357D01*
X13548809Y14379547D01*
X13510714Y14417642D01*
X13434523Y14455738D01*
X13358333Y14455738D01*
X13282142Y14417642D01*
X13244047Y14379547D01*
X13205952Y14303357D01*
X13167857Y14150976D01*
X13129761Y14074785D01*
X13091666Y14036690D01*
X13015476Y13998595D01*
X12939285Y13998595D01*
X12863095Y14036690D01*
X12825000Y14074785D01*
X12786904Y14150976D01*
X12786904Y14341452D01*
X12825000Y14455738D01*
X12786904Y14722404D02*
X13586904Y14912880D01*
X13015476Y15065261D01*
X13586904Y15217642D01*
X12786904Y15408119D01*
X11536904Y13286690D02*
X12336904Y13553357D01*
X11536904Y13820023D01*
X12336904Y14086690D02*
X11536904Y14086690D01*
X11536904Y14277166D01*
X11575000Y14391452D01*
X11651190Y14467642D01*
X11727380Y14505738D01*
X11879761Y14543833D01*
X11994047Y14543833D01*
X12146428Y14505738D01*
X12222619Y14467642D01*
X12298809Y14391452D01*
X12336904Y14277166D01*
X12336904Y14086690D01*
X12336904Y14886690D02*
X11536904Y14886690D01*
X11536904Y15077166D01*
X11575000Y15191452D01*
X11651190Y15267642D01*
X11727380Y15305738D01*
X11879761Y15343833D01*
X11994047Y15343833D01*
X12146428Y15305738D01*
X12222619Y15267642D01*
X12298809Y15191452D01*
X12336904Y15077166D01*
X12336904Y14886690D01*
X12336904Y15686690D02*
X11536904Y15686690D01*
X11917857Y15686690D02*
X11917857Y16143833D01*
X12336904Y16143833D02*
X11536904Y16143833D01*
X64047380Y21066369D02*
X63714047Y21542559D01*
X63475952Y21066369D02*
X63475952Y22066369D01*
X63856904Y22066369D01*
X63952142Y22018750D01*
X63999761Y21971130D01*
X64047380Y21875892D01*
X64047380Y21733035D01*
X63999761Y21637797D01*
X63952142Y21590178D01*
X63856904Y21542559D01*
X63475952Y21542559D01*
X64428333Y21113988D02*
X64571190Y21066369D01*
X64809285Y21066369D01*
X64904523Y21113988D01*
X64952142Y21161607D01*
X64999761Y21256845D01*
X64999761Y21352083D01*
X64952142Y21447321D01*
X64904523Y21494940D01*
X64809285Y21542559D01*
X64618809Y21590178D01*
X64523571Y21637797D01*
X64475952Y21685416D01*
X64428333Y21780654D01*
X64428333Y21875892D01*
X64475952Y21971130D01*
X64523571Y22018750D01*
X64618809Y22066369D01*
X64856904Y22066369D01*
X64999761Y22018750D01*
X65285476Y22066369D02*
X65856904Y22066369D01*
X65571190Y21066369D02*
X65571190Y22066369D01*
X17917857Y13617642D02*
X17955952Y13731928D01*
X17994047Y13770023D01*
X18070238Y13808119D01*
X18184523Y13808119D01*
X18260714Y13770023D01*
X18298809Y13731928D01*
X18336904Y13655738D01*
X18336904Y13350976D01*
X17536904Y13350976D01*
X17536904Y13617642D01*
X17575000Y13693833D01*
X17613095Y13731928D01*
X17689285Y13770023D01*
X17765476Y13770023D01*
X17841666Y13731928D01*
X17879761Y13693833D01*
X17917857Y13617642D01*
X17917857Y13350976D01*
X18108333Y14112880D02*
X18108333Y14493833D01*
X18336904Y14036690D02*
X17536904Y14303357D01*
X18336904Y14570023D01*
X17536904Y14722404D02*
X17536904Y15179547D01*
X18336904Y14950976D02*
X17536904Y14950976D01*
X18032142Y15446214D02*
X18032142Y16055738D01*
X19217857Y13617642D02*
X19255952Y13731928D01*
X19294047Y13770023D01*
X19370238Y13808119D01*
X19484523Y13808119D01*
X19560714Y13770023D01*
X19598809Y13731928D01*
X19636904Y13655738D01*
X19636904Y13350976D01*
X18836904Y13350976D01*
X18836904Y13617642D01*
X18875000Y13693833D01*
X18913095Y13731928D01*
X18989285Y13770023D01*
X19065476Y13770023D01*
X19141666Y13731928D01*
X19179761Y13693833D01*
X19217857Y13617642D01*
X19217857Y13350976D01*
X19408333Y14112880D02*
X19408333Y14493833D01*
X19636904Y14036690D02*
X18836904Y14303357D01*
X19636904Y14570023D01*
X18836904Y14722404D02*
X18836904Y15179547D01*
X19636904Y14950976D02*
X18836904Y14950976D01*
X19332142Y15446214D02*
X19332142Y16055738D01*
X19636904Y15750976D02*
X19027380Y15750976D01*
%TO.C,D9*%
X16111904Y-29165476D02*
X15311904Y-29165476D01*
X15311904Y-28975000D01*
X15350000Y-28860714D01*
X15426190Y-28784523D01*
X15502380Y-28746428D01*
X15654761Y-28708333D01*
X15769047Y-28708333D01*
X15921428Y-28746428D01*
X15997619Y-28784523D01*
X16073809Y-28860714D01*
X16111904Y-28975000D01*
X16111904Y-29165476D01*
X16111904Y-28327380D02*
X16111904Y-28175000D01*
X16073809Y-28098809D01*
X16035714Y-28060714D01*
X15921428Y-27984523D01*
X15769047Y-27946428D01*
X15464285Y-27946428D01*
X15388095Y-27984523D01*
X15350000Y-28022619D01*
X15311904Y-28098809D01*
X15311904Y-28251190D01*
X15350000Y-28327380D01*
X15388095Y-28365476D01*
X15464285Y-28403571D01*
X15654761Y-28403571D01*
X15730952Y-28365476D01*
X15769047Y-28327380D01*
X15807142Y-28251190D01*
X15807142Y-28098809D01*
X15769047Y-28022619D01*
X15730952Y-27984523D01*
X15654761Y-27946428D01*
%TO.C,R9*%
X45229797Y16967666D02*
X44848845Y16701000D01*
X45229797Y16510523D02*
X44429797Y16510523D01*
X44429797Y16815285D01*
X44467893Y16891476D01*
X44505988Y16929571D01*
X44582178Y16967666D01*
X44696464Y16967666D01*
X44772654Y16929571D01*
X44810750Y16891476D01*
X44848845Y16815285D01*
X44848845Y16510523D01*
X45229797Y17348619D02*
X45229797Y17501000D01*
X45191702Y17577190D01*
X45153607Y17615285D01*
X45039321Y17691476D01*
X44886940Y17729571D01*
X44582178Y17729571D01*
X44505988Y17691476D01*
X44467893Y17653380D01*
X44429797Y17577190D01*
X44429797Y17424809D01*
X44467893Y17348619D01*
X44505988Y17310523D01*
X44582178Y17272428D01*
X44772654Y17272428D01*
X44848845Y17310523D01*
X44886940Y17348619D01*
X44925035Y17424809D01*
X44925035Y17577190D01*
X44886940Y17653380D01*
X44848845Y17691476D01*
X44772654Y17729571D01*
%TO.C,C1*%
X15857677Y26677285D02*
X15819582Y26639190D01*
X15705296Y26601095D01*
X15629106Y26601095D01*
X15514820Y26639190D01*
X15438630Y26715380D01*
X15400534Y26791571D01*
X15362439Y26943952D01*
X15362439Y27058238D01*
X15400534Y27210619D01*
X15438630Y27286809D01*
X15514820Y27363000D01*
X15629106Y27401095D01*
X15705296Y27401095D01*
X15819582Y27363000D01*
X15857677Y27324904D01*
X16619582Y26601095D02*
X16162439Y26601095D01*
X16391011Y26601095D02*
X16391011Y27401095D01*
X16314820Y27286809D01*
X16238630Y27210619D01*
X16162439Y27172523D01*
%TO.C,U3*%
X6536904Y18843476D02*
X7184523Y18843476D01*
X7260714Y18881571D01*
X7298809Y18919666D01*
X7336904Y18995857D01*
X7336904Y19148238D01*
X7298809Y19224428D01*
X7260714Y19262523D01*
X7184523Y19300619D01*
X6536904Y19300619D01*
X6536904Y19605380D02*
X6536904Y20100619D01*
X6841666Y19833952D01*
X6841666Y19948238D01*
X6879761Y20024428D01*
X6917857Y20062523D01*
X6994047Y20100619D01*
X7184523Y20100619D01*
X7260714Y20062523D01*
X7298809Y20024428D01*
X7336904Y19948238D01*
X7336904Y19719666D01*
X7298809Y19643476D01*
X7260714Y19605380D01*
%TO.C,R10*%
X46429797Y16986714D02*
X46048845Y16720047D01*
X46429797Y16529571D02*
X45629797Y16529571D01*
X45629797Y16834333D01*
X45667893Y16910523D01*
X45705988Y16948619D01*
X45782178Y16986714D01*
X45896464Y16986714D01*
X45972654Y16948619D01*
X46010750Y16910523D01*
X46048845Y16834333D01*
X46048845Y16529571D01*
X46429797Y17748619D02*
X46429797Y17291476D01*
X46429797Y17520047D02*
X45629797Y17520047D01*
X45744083Y17443857D01*
X45820273Y17367666D01*
X45858369Y17291476D01*
X45629797Y18243857D02*
X45629797Y18320047D01*
X45667893Y18396238D01*
X45705988Y18434333D01*
X45782178Y18472428D01*
X45934559Y18510523D01*
X46125035Y18510523D01*
X46277416Y18472428D01*
X46353607Y18434333D01*
X46391702Y18396238D01*
X46429797Y18320047D01*
X46429797Y18243857D01*
X46391702Y18167666D01*
X46353607Y18129571D01*
X46277416Y18091476D01*
X46125035Y18053380D01*
X45934559Y18053380D01*
X45782178Y18091476D01*
X45705988Y18129571D01*
X45667893Y18167666D01*
X45629797Y18243857D01*
%TO.C,R7*%
X13090415Y19179666D02*
X12709463Y18913000D01*
X13090415Y18722523D02*
X12290415Y18722523D01*
X12290415Y19027285D01*
X12328511Y19103476D01*
X12366606Y19141571D01*
X12442796Y19179666D01*
X12557082Y19179666D01*
X12633272Y19141571D01*
X12671368Y19103476D01*
X12709463Y19027285D01*
X12709463Y18722523D01*
X12290415Y19446333D02*
X12290415Y19979666D01*
X13090415Y19636809D01*
%TO.C,D7*%
X35161904Y-10115476D02*
X34361904Y-10115476D01*
X34361904Y-9925000D01*
X34400000Y-9810714D01*
X34476190Y-9734523D01*
X34552380Y-9696428D01*
X34704761Y-9658333D01*
X34819047Y-9658333D01*
X34971428Y-9696428D01*
X35047619Y-9734523D01*
X35123809Y-9810714D01*
X35161904Y-9925000D01*
X35161904Y-10115476D01*
X34361904Y-9391666D02*
X34361904Y-8858333D01*
X35161904Y-9201190D01*
%TO.C,U2*%
X10181487Y20515095D02*
X10181487Y19867476D01*
X10219582Y19791285D01*
X10257677Y19753190D01*
X10333868Y19715095D01*
X10486249Y19715095D01*
X10562439Y19753190D01*
X10600534Y19791285D01*
X10638630Y19867476D01*
X10638630Y20515095D01*
X10981487Y20438904D02*
X11019582Y20477000D01*
X11095772Y20515095D01*
X11286249Y20515095D01*
X11362439Y20477000D01*
X11400534Y20438904D01*
X11438630Y20362714D01*
X11438630Y20286523D01*
X11400534Y20172238D01*
X10943391Y19715095D01*
X11438630Y19715095D01*
%TO.C,D2*%
X25636904Y8934523D02*
X24836904Y8934523D01*
X24836904Y9125000D01*
X24875000Y9239285D01*
X24951190Y9315476D01*
X25027380Y9353571D01*
X25179761Y9391666D01*
X25294047Y9391666D01*
X25446428Y9353571D01*
X25522619Y9315476D01*
X25598809Y9239285D01*
X25636904Y9125000D01*
X25636904Y8934523D01*
X24913095Y9696428D02*
X24875000Y9734523D01*
X24836904Y9810714D01*
X24836904Y10001190D01*
X24875000Y10077380D01*
X24913095Y10115476D01*
X24989285Y10153571D01*
X25065476Y10153571D01*
X25179761Y10115476D01*
X25636904Y9658333D01*
X25636904Y10153571D01*
%TO.C,Q1*%
X30498809Y14812904D02*
X30422619Y14851000D01*
X30346428Y14927190D01*
X30232142Y15041476D01*
X30155952Y15079571D01*
X30079761Y15079571D01*
X30117857Y14889095D02*
X30041666Y14927190D01*
X29965476Y15003380D01*
X29927380Y15155761D01*
X29927380Y15422428D01*
X29965476Y15574809D01*
X30041666Y15651000D01*
X30117857Y15689095D01*
X30270238Y15689095D01*
X30346428Y15651000D01*
X30422619Y15574809D01*
X30460714Y15422428D01*
X30460714Y15155761D01*
X30422619Y15003380D01*
X30346428Y14927190D01*
X30270238Y14889095D01*
X30117857Y14889095D01*
X31222619Y14889095D02*
X30765476Y14889095D01*
X30994047Y14889095D02*
X30994047Y15689095D01*
X30917857Y15574809D01*
X30841666Y15498619D01*
X30765476Y15460523D01*
%TO.C,C4*%
X23060714Y23737666D02*
X23098809Y23699571D01*
X23136904Y23585285D01*
X23136904Y23509095D01*
X23098809Y23394809D01*
X23022619Y23318619D01*
X22946428Y23280523D01*
X22794047Y23242428D01*
X22679761Y23242428D01*
X22527380Y23280523D01*
X22451190Y23318619D01*
X22375000Y23394809D01*
X22336904Y23509095D01*
X22336904Y23585285D01*
X22375000Y23699571D01*
X22413095Y23737666D01*
X22603571Y24423380D02*
X23136904Y24423380D01*
X22298809Y24232904D02*
X22870238Y24042428D01*
X22870238Y24537666D01*
%TO.C,R13*%
X45229797Y21186714D02*
X44848845Y20920047D01*
X45229797Y20729571D02*
X44429797Y20729571D01*
X44429797Y21034333D01*
X44467893Y21110523D01*
X44505988Y21148619D01*
X44582178Y21186714D01*
X44696464Y21186714D01*
X44772654Y21148619D01*
X44810750Y21110523D01*
X44848845Y21034333D01*
X44848845Y20729571D01*
X45229797Y21948619D02*
X45229797Y21491476D01*
X45229797Y21720047D02*
X44429797Y21720047D01*
X44544083Y21643857D01*
X44620273Y21567666D01*
X44658369Y21491476D01*
X44429797Y22215285D02*
X44429797Y22710523D01*
X44734559Y22443857D01*
X44734559Y22558142D01*
X44772654Y22634333D01*
X44810750Y22672428D01*
X44886940Y22710523D01*
X45077416Y22710523D01*
X45153607Y22672428D01*
X45191702Y22634333D01*
X45229797Y22558142D01*
X45229797Y22329571D01*
X45191702Y22253380D01*
X45153607Y22215285D01*
%TO.C,Q2*%
X35998809Y14812904D02*
X35922619Y14851000D01*
X35846428Y14927190D01*
X35732142Y15041476D01*
X35655952Y15079571D01*
X35579761Y15079571D01*
X35617857Y14889095D02*
X35541666Y14927190D01*
X35465476Y15003380D01*
X35427380Y15155761D01*
X35427380Y15422428D01*
X35465476Y15574809D01*
X35541666Y15651000D01*
X35617857Y15689095D01*
X35770238Y15689095D01*
X35846428Y15651000D01*
X35922619Y15574809D01*
X35960714Y15422428D01*
X35960714Y15155761D01*
X35922619Y15003380D01*
X35846428Y14927190D01*
X35770238Y14889095D01*
X35617857Y14889095D01*
X36265476Y15612904D02*
X36303571Y15651000D01*
X36379761Y15689095D01*
X36570238Y15689095D01*
X36646428Y15651000D01*
X36684523Y15612904D01*
X36722619Y15536714D01*
X36722619Y15460523D01*
X36684523Y15346238D01*
X36227380Y14889095D01*
X36722619Y14889095D01*
%TO.C,D12*%
X16111904Y-48596428D02*
X15311904Y-48596428D01*
X15311904Y-48405952D01*
X15350000Y-48291666D01*
X15426190Y-48215476D01*
X15502380Y-48177380D01*
X15654761Y-48139285D01*
X15769047Y-48139285D01*
X15921428Y-48177380D01*
X15997619Y-48215476D01*
X16073809Y-48291666D01*
X16111904Y-48405952D01*
X16111904Y-48596428D01*
X16111904Y-47377380D02*
X16111904Y-47834523D01*
X16111904Y-47605952D02*
X15311904Y-47605952D01*
X15426190Y-47682142D01*
X15502380Y-47758333D01*
X15540476Y-47834523D01*
X15388095Y-47072619D02*
X15350000Y-47034523D01*
X15311904Y-46958333D01*
X15311904Y-46767857D01*
X15350000Y-46691666D01*
X15388095Y-46653571D01*
X15464285Y-46615476D01*
X15540476Y-46615476D01*
X15654761Y-46653571D01*
X16111904Y-47110714D01*
X16111904Y-46615476D01*
%TO.C,R8*%
X19691666Y30921095D02*
X19425000Y31302047D01*
X19234523Y30921095D02*
X19234523Y31721095D01*
X19539285Y31721095D01*
X19615476Y31683000D01*
X19653571Y31644904D01*
X19691666Y31568714D01*
X19691666Y31454428D01*
X19653571Y31378238D01*
X19615476Y31340142D01*
X19539285Y31302047D01*
X19234523Y31302047D01*
X20148809Y31378238D02*
X20072619Y31416333D01*
X20034523Y31454428D01*
X19996428Y31530619D01*
X19996428Y31568714D01*
X20034523Y31644904D01*
X20072619Y31683000D01*
X20148809Y31721095D01*
X20301190Y31721095D01*
X20377380Y31683000D01*
X20415476Y31644904D01*
X20453571Y31568714D01*
X20453571Y31530619D01*
X20415476Y31454428D01*
X20377380Y31416333D01*
X20301190Y31378238D01*
X20148809Y31378238D01*
X20072619Y31340142D01*
X20034523Y31302047D01*
X19996428Y31225857D01*
X19996428Y31073476D01*
X20034523Y30997285D01*
X20072619Y30959190D01*
X20148809Y30921095D01*
X20301190Y30921095D01*
X20377380Y30959190D01*
X20415476Y30997285D01*
X20453571Y31073476D01*
X20453571Y31225857D01*
X20415476Y31302047D01*
X20377380Y31340142D01*
X20301190Y31378238D01*
%TO.C,R12*%
X46429797Y21186714D02*
X46048845Y20920047D01*
X46429797Y20729571D02*
X45629797Y20729571D01*
X45629797Y21034333D01*
X45667893Y21110523D01*
X45705988Y21148619D01*
X45782178Y21186714D01*
X45896464Y21186714D01*
X45972654Y21148619D01*
X46010750Y21110523D01*
X46048845Y21034333D01*
X46048845Y20729571D01*
X46429797Y21948619D02*
X46429797Y21491476D01*
X46429797Y21720047D02*
X45629797Y21720047D01*
X45744083Y21643857D01*
X45820273Y21567666D01*
X45858369Y21491476D01*
X45705988Y22253380D02*
X45667893Y22291476D01*
X45629797Y22367666D01*
X45629797Y22558142D01*
X45667893Y22634333D01*
X45705988Y22672428D01*
X45782178Y22710523D01*
X45858369Y22710523D01*
X45972654Y22672428D01*
X46429797Y22215285D01*
X46429797Y22710523D01*
%TO.C,R1*%
X17191666Y29758522D02*
X16925000Y30139474D01*
X16734523Y29758522D02*
X16734523Y30558522D01*
X17039285Y30558522D01*
X17115476Y30520427D01*
X17153571Y30482331D01*
X17191666Y30406141D01*
X17191666Y30291855D01*
X17153571Y30215665D01*
X17115476Y30177569D01*
X17039285Y30139474D01*
X16734523Y30139474D01*
X17953571Y29758522D02*
X17496428Y29758522D01*
X17725000Y29758522D02*
X17725000Y30558522D01*
X17648809Y30444236D01*
X17572619Y30368046D01*
X17496428Y30329950D01*
%TO.C,J1*%
X28308333Y32501095D02*
X28308333Y31929666D01*
X28270238Y31815380D01*
X28194047Y31739190D01*
X28079761Y31701095D01*
X28003571Y31701095D01*
X29108333Y31701095D02*
X28651190Y31701095D01*
X28879761Y31701095D02*
X28879761Y32501095D01*
X28803571Y32386809D01*
X28727380Y32310619D01*
X28651190Y32272523D01*
%TO.C,D11*%
X35161904Y-29546428D02*
X34361904Y-29546428D01*
X34361904Y-29355952D01*
X34400000Y-29241666D01*
X34476190Y-29165476D01*
X34552380Y-29127380D01*
X34704761Y-29089285D01*
X34819047Y-29089285D01*
X34971428Y-29127380D01*
X35047619Y-29165476D01*
X35123809Y-29241666D01*
X35161904Y-29355952D01*
X35161904Y-29546428D01*
X35161904Y-28327380D02*
X35161904Y-28784523D01*
X35161904Y-28555952D02*
X34361904Y-28555952D01*
X34476190Y-28632142D01*
X34552380Y-28708333D01*
X34590476Y-28784523D01*
X35161904Y-27565476D02*
X35161904Y-28022619D01*
X35161904Y-27794047D02*
X34361904Y-27794047D01*
X34476190Y-27870238D01*
X34552380Y-27946428D01*
X34590476Y-28022619D01*
%TO.C,D5*%
X16111904Y-10115476D02*
X15311904Y-10115476D01*
X15311904Y-9925000D01*
X15350000Y-9810714D01*
X15426190Y-9734523D01*
X15502380Y-9696428D01*
X15654761Y-9658333D01*
X15769047Y-9658333D01*
X15921428Y-9696428D01*
X15997619Y-9734523D01*
X16073809Y-9810714D01*
X16111904Y-9925000D01*
X16111904Y-10115476D01*
X15311904Y-8934523D02*
X15311904Y-9315476D01*
X15692857Y-9353571D01*
X15654761Y-9315476D01*
X15616666Y-9239285D01*
X15616666Y-9048809D01*
X15654761Y-8972619D01*
X15692857Y-8934523D01*
X15769047Y-8896428D01*
X15959523Y-8896428D01*
X16035714Y-8934523D01*
X16073809Y-8972619D01*
X16111904Y-9048809D01*
X16111904Y-9239285D01*
X16073809Y-9315476D01*
X16035714Y-9353571D01*
%TO.C,D4*%
X41829797Y8934523D02*
X41029797Y8934523D01*
X41029797Y9125000D01*
X41067893Y9239285D01*
X41144083Y9315476D01*
X41220273Y9353571D01*
X41372654Y9391666D01*
X41486940Y9391666D01*
X41639321Y9353571D01*
X41715512Y9315476D01*
X41791702Y9239285D01*
X41829797Y9125000D01*
X41829797Y8934523D01*
X41296464Y10077380D02*
X41829797Y10077380D01*
X40991702Y9886904D02*
X41563131Y9696428D01*
X41563131Y10191666D01*
%TO.C,R2*%
X14491666Y29758522D02*
X14225000Y30139474D01*
X14034523Y29758522D02*
X14034523Y30558522D01*
X14339285Y30558522D01*
X14415476Y30520427D01*
X14453571Y30482331D01*
X14491666Y30406141D01*
X14491666Y30291855D01*
X14453571Y30215665D01*
X14415476Y30177569D01*
X14339285Y30139474D01*
X14034523Y30139474D01*
X14796428Y30482331D02*
X14834523Y30520427D01*
X14910714Y30558522D01*
X15101190Y30558522D01*
X15177380Y30520427D01*
X15215476Y30482331D01*
X15253571Y30406141D01*
X15253571Y30329950D01*
X15215476Y30215665D01*
X14758333Y29758522D01*
X15253571Y29758522D01*
%TO.C,C10*%
X46360714Y9886714D02*
X46398809Y9848619D01*
X46436904Y9734333D01*
X46436904Y9658142D01*
X46398809Y9543857D01*
X46322619Y9467666D01*
X46246428Y9429571D01*
X46094047Y9391476D01*
X45979761Y9391476D01*
X45827380Y9429571D01*
X45751190Y9467666D01*
X45675000Y9543857D01*
X45636904Y9658142D01*
X45636904Y9734333D01*
X45675000Y9848619D01*
X45713095Y9886714D01*
X46436904Y10648619D02*
X46436904Y10191476D01*
X46436904Y10420047D02*
X45636904Y10420047D01*
X45751190Y10343857D01*
X45827380Y10267666D01*
X45865476Y10191476D01*
X45636904Y11143857D02*
X45636904Y11220047D01*
X45675000Y11296238D01*
X45713095Y11334333D01*
X45789285Y11372428D01*
X45941666Y11410523D01*
X46132142Y11410523D01*
X46284523Y11372428D01*
X46360714Y11334333D01*
X46398809Y11296238D01*
X46436904Y11220047D01*
X46436904Y11143857D01*
X46398809Y11067666D01*
X46360714Y11029571D01*
X46284523Y10991476D01*
X46132142Y10953380D01*
X45941666Y10953380D01*
X45789285Y10991476D01*
X45713095Y11029571D01*
X45675000Y11067666D01*
X45636904Y11143857D01*
%TO.C,U1*%
X24465476Y22901095D02*
X24465476Y22253476D01*
X24503571Y22177285D01*
X24541666Y22139190D01*
X24617857Y22101095D01*
X24770238Y22101095D01*
X24846428Y22139190D01*
X24884523Y22177285D01*
X24922619Y22253476D01*
X24922619Y22901095D01*
X25722619Y22101095D02*
X25265476Y22101095D01*
X25494047Y22101095D02*
X25494047Y22901095D01*
X25417857Y22786809D01*
X25341666Y22710619D01*
X25265476Y22672523D01*
%TO.C,R5*%
X16301427Y23801095D02*
X16034761Y24182047D01*
X15844284Y23801095D02*
X15844284Y24601095D01*
X16149046Y24601095D01*
X16225237Y24563000D01*
X16263332Y24524904D01*
X16301427Y24448714D01*
X16301427Y24334428D01*
X16263332Y24258238D01*
X16225237Y24220142D01*
X16149046Y24182047D01*
X15844284Y24182047D01*
X17025237Y24601095D02*
X16644284Y24601095D01*
X16606189Y24220142D01*
X16644284Y24258238D01*
X16720475Y24296333D01*
X16910951Y24296333D01*
X16987141Y24258238D01*
X17025237Y24220142D01*
X17063332Y24143952D01*
X17063332Y23953476D01*
X17025237Y23877285D01*
X16987141Y23839190D01*
X16910951Y23801095D01*
X16720475Y23801095D01*
X16644284Y23839190D01*
X16606189Y23877285D01*
%TO.C,D6*%
X25636904Y-10115476D02*
X24836904Y-10115476D01*
X24836904Y-9925000D01*
X24875000Y-9810714D01*
X24951190Y-9734523D01*
X25027380Y-9696428D01*
X25179761Y-9658333D01*
X25294047Y-9658333D01*
X25446428Y-9696428D01*
X25522619Y-9734523D01*
X25598809Y-9810714D01*
X25636904Y-9925000D01*
X25636904Y-10115476D01*
X24836904Y-8972619D02*
X24836904Y-9125000D01*
X24875000Y-9201190D01*
X24913095Y-9239285D01*
X25027380Y-9315476D01*
X25179761Y-9353571D01*
X25484523Y-9353571D01*
X25560714Y-9315476D01*
X25598809Y-9277380D01*
X25636904Y-9201190D01*
X25636904Y-9048809D01*
X25598809Y-8972619D01*
X25560714Y-8934523D01*
X25484523Y-8896428D01*
X25294047Y-8896428D01*
X25217857Y-8934523D01*
X25179761Y-8972619D01*
X25141666Y-9048809D01*
X25141666Y-9201190D01*
X25179761Y-9277380D01*
X25217857Y-9315476D01*
X25294047Y-9353571D01*
%TO.C,C11*%
X45160714Y9886714D02*
X45198809Y9848619D01*
X45236904Y9734333D01*
X45236904Y9658142D01*
X45198809Y9543857D01*
X45122619Y9467666D01*
X45046428Y9429571D01*
X44894047Y9391476D01*
X44779761Y9391476D01*
X44627380Y9429571D01*
X44551190Y9467666D01*
X44475000Y9543857D01*
X44436904Y9658142D01*
X44436904Y9734333D01*
X44475000Y9848619D01*
X44513095Y9886714D01*
X45236904Y10648619D02*
X45236904Y10191476D01*
X45236904Y10420047D02*
X44436904Y10420047D01*
X44551190Y10343857D01*
X44627380Y10267666D01*
X44665476Y10191476D01*
X45236904Y11410523D02*
X45236904Y10953380D01*
X45236904Y11181952D02*
X44436904Y11181952D01*
X44551190Y11105761D01*
X44627380Y11029571D01*
X44665476Y10953380D01*
%TO.C,F2*%
X5424344Y23620142D02*
X5157677Y23620142D01*
X5157677Y23201095D02*
X5157677Y24001095D01*
X5538630Y24001095D01*
X5805296Y23924904D02*
X5843391Y23963000D01*
X5919582Y24001095D01*
X6110058Y24001095D01*
X6186249Y23963000D01*
X6224344Y23924904D01*
X6262439Y23848714D01*
X6262439Y23772523D01*
X6224344Y23658238D01*
X5767201Y23201095D01*
X6262439Y23201095D01*
%TO.C,C8*%
X9676725Y19279666D02*
X9714820Y19241571D01*
X9752915Y19127285D01*
X9752915Y19051095D01*
X9714820Y18936809D01*
X9638630Y18860619D01*
X9562439Y18822523D01*
X9410058Y18784428D01*
X9295772Y18784428D01*
X9143391Y18822523D01*
X9067201Y18860619D01*
X8991011Y18936809D01*
X8952915Y19051095D01*
X8952915Y19127285D01*
X8991011Y19241571D01*
X9029106Y19279666D01*
X9295772Y19736809D02*
X9257677Y19660619D01*
X9219582Y19622523D01*
X9143391Y19584428D01*
X9105296Y19584428D01*
X9029106Y19622523D01*
X8991011Y19660619D01*
X8952915Y19736809D01*
X8952915Y19889190D01*
X8991011Y19965380D01*
X9029106Y20003476D01*
X9105296Y20041571D01*
X9143391Y20041571D01*
X9219582Y20003476D01*
X9257677Y19965380D01*
X9295772Y19889190D01*
X9295772Y19736809D01*
X9333868Y19660619D01*
X9371963Y19622523D01*
X9448153Y19584428D01*
X9600534Y19584428D01*
X9676725Y19622523D01*
X9714820Y19660619D01*
X9752915Y19736809D01*
X9752915Y19889190D01*
X9714820Y19965380D01*
X9676725Y20003476D01*
X9600534Y20041571D01*
X9448153Y20041571D01*
X9371963Y20003476D01*
X9333868Y19965380D01*
X9295772Y19889190D01*
%TO.C,C3*%
X25460714Y23737666D02*
X25498809Y23699571D01*
X25536904Y23585285D01*
X25536904Y23509095D01*
X25498809Y23394809D01*
X25422619Y23318619D01*
X25346428Y23280523D01*
X25194047Y23242428D01*
X25079761Y23242428D01*
X24927380Y23280523D01*
X24851190Y23318619D01*
X24775000Y23394809D01*
X24736904Y23509095D01*
X24736904Y23585285D01*
X24775000Y23699571D01*
X24813095Y23737666D01*
X24736904Y24004333D02*
X24736904Y24499571D01*
X25041666Y24232904D01*
X25041666Y24347190D01*
X25079761Y24423380D01*
X25117857Y24461476D01*
X25194047Y24499571D01*
X25384523Y24499571D01*
X25460714Y24461476D01*
X25498809Y24423380D01*
X25536904Y24347190D01*
X25536904Y24118619D01*
X25498809Y24042428D01*
X25460714Y24004333D01*
%TO.C,D1*%
X16111904Y8934523D02*
X15311904Y8934523D01*
X15311904Y9125000D01*
X15350000Y9239285D01*
X15426190Y9315476D01*
X15502380Y9353571D01*
X15654761Y9391666D01*
X15769047Y9391666D01*
X15921428Y9353571D01*
X15997619Y9315476D01*
X16073809Y9239285D01*
X16111904Y9125000D01*
X16111904Y8934523D01*
X16111904Y10153571D02*
X16111904Y9696428D01*
X16111904Y9925000D02*
X15311904Y9925000D01*
X15426190Y9848809D01*
X15502380Y9772619D01*
X15540476Y9696428D01*
%TO.C,F1*%
X25347857Y28290333D02*
X25347857Y28023666D01*
X25766904Y28023666D02*
X24966904Y28023666D01*
X24966904Y28404619D01*
X25766904Y29128428D02*
X25766904Y28671285D01*
X25766904Y28899857D02*
X24966904Y28899857D01*
X25081190Y28823666D01*
X25157380Y28747476D01*
X25195476Y28671285D01*
%TO.C,D15*%
X44686904Y-48596428D02*
X43886904Y-48596428D01*
X43886904Y-48405952D01*
X43925000Y-48291666D01*
X44001190Y-48215476D01*
X44077380Y-48177380D01*
X44229761Y-48139285D01*
X44344047Y-48139285D01*
X44496428Y-48177380D01*
X44572619Y-48215476D01*
X44648809Y-48291666D01*
X44686904Y-48405952D01*
X44686904Y-48596428D01*
X44686904Y-47377380D02*
X44686904Y-47834523D01*
X44686904Y-47605952D02*
X43886904Y-47605952D01*
X44001190Y-47682142D01*
X44077380Y-47758333D01*
X44115476Y-47834523D01*
X43886904Y-46653571D02*
X43886904Y-47034523D01*
X44267857Y-47072619D01*
X44229761Y-47034523D01*
X44191666Y-46958333D01*
X44191666Y-46767857D01*
X44229761Y-46691666D01*
X44267857Y-46653571D01*
X44344047Y-46615476D01*
X44534523Y-46615476D01*
X44610714Y-46653571D01*
X44648809Y-46691666D01*
X44686904Y-46767857D01*
X44686904Y-46958333D01*
X44648809Y-47034523D01*
X44610714Y-47072619D01*
%TO.C,C5*%
X16476725Y19179666D02*
X16514820Y19141571D01*
X16552915Y19027285D01*
X16552915Y18951095D01*
X16514820Y18836809D01*
X16438630Y18760619D01*
X16362439Y18722523D01*
X16210058Y18684428D01*
X16095772Y18684428D01*
X15943391Y18722523D01*
X15867201Y18760619D01*
X15791011Y18836809D01*
X15752915Y18951095D01*
X15752915Y19027285D01*
X15791011Y19141571D01*
X15829106Y19179666D01*
X15752915Y19903476D02*
X15752915Y19522523D01*
X16133868Y19484428D01*
X16095772Y19522523D01*
X16057677Y19598714D01*
X16057677Y19789190D01*
X16095772Y19865380D01*
X16133868Y19903476D01*
X16210058Y19941571D01*
X16400534Y19941571D01*
X16476725Y19903476D01*
X16514820Y19865380D01*
X16552915Y19789190D01*
X16552915Y19598714D01*
X16514820Y19522523D01*
X16476725Y19484428D01*
%TO.C,D17*%
X44686904Y-67646428D02*
X43886904Y-67646428D01*
X43886904Y-67455952D01*
X43925000Y-67341666D01*
X44001190Y-67265476D01*
X44077380Y-67227380D01*
X44229761Y-67189285D01*
X44344047Y-67189285D01*
X44496428Y-67227380D01*
X44572619Y-67265476D01*
X44648809Y-67341666D01*
X44686904Y-67455952D01*
X44686904Y-67646428D01*
X44686904Y-66427380D02*
X44686904Y-66884523D01*
X44686904Y-66655952D02*
X43886904Y-66655952D01*
X44001190Y-66732142D01*
X44077380Y-66808333D01*
X44115476Y-66884523D01*
X43886904Y-66160714D02*
X43886904Y-65627380D01*
X44686904Y-65970238D01*
%TO.C,C7*%
X8476725Y19279666D02*
X8514820Y19241571D01*
X8552915Y19127285D01*
X8552915Y19051095D01*
X8514820Y18936809D01*
X8438630Y18860619D01*
X8362439Y18822523D01*
X8210058Y18784428D01*
X8095772Y18784428D01*
X7943391Y18822523D01*
X7867201Y18860619D01*
X7791011Y18936809D01*
X7752915Y19051095D01*
X7752915Y19127285D01*
X7791011Y19241571D01*
X7829106Y19279666D01*
X7752915Y19546333D02*
X7752915Y20079666D01*
X8552915Y19736809D01*
%TO.C,D8*%
X44686904Y-10115476D02*
X43886904Y-10115476D01*
X43886904Y-9925000D01*
X43925000Y-9810714D01*
X44001190Y-9734523D01*
X44077380Y-9696428D01*
X44229761Y-9658333D01*
X44344047Y-9658333D01*
X44496428Y-9696428D01*
X44572619Y-9734523D01*
X44648809Y-9810714D01*
X44686904Y-9925000D01*
X44686904Y-10115476D01*
X44229761Y-9201190D02*
X44191666Y-9277380D01*
X44153571Y-9315476D01*
X44077380Y-9353571D01*
X44039285Y-9353571D01*
X43963095Y-9315476D01*
X43925000Y-9277380D01*
X43886904Y-9201190D01*
X43886904Y-9048809D01*
X43925000Y-8972619D01*
X43963095Y-8934523D01*
X44039285Y-8896428D01*
X44077380Y-8896428D01*
X44153571Y-8934523D01*
X44191666Y-8972619D01*
X44229761Y-9048809D01*
X44229761Y-9201190D01*
X44267857Y-9277380D01*
X44305952Y-9315476D01*
X44382142Y-9353571D01*
X44534523Y-9353571D01*
X44610714Y-9315476D01*
X44648809Y-9277380D01*
X44686904Y-9201190D01*
X44686904Y-9048809D01*
X44648809Y-8972619D01*
X44610714Y-8934523D01*
X44534523Y-8896428D01*
X44382142Y-8896428D01*
X44305952Y-8934523D01*
X44267857Y-8972619D01*
X44229761Y-9048809D01*
%TO.C,C6*%
X15276725Y19179666D02*
X15314820Y19141571D01*
X15352915Y19027285D01*
X15352915Y18951095D01*
X15314820Y18836809D01*
X15238630Y18760619D01*
X15162439Y18722523D01*
X15010058Y18684428D01*
X14895772Y18684428D01*
X14743391Y18722523D01*
X14667201Y18760619D01*
X14591011Y18836809D01*
X14552915Y18951095D01*
X14552915Y19027285D01*
X14591011Y19141571D01*
X14629106Y19179666D01*
X14552915Y19865380D02*
X14552915Y19713000D01*
X14591011Y19636809D01*
X14629106Y19598714D01*
X14743391Y19522523D01*
X14895772Y19484428D01*
X15200534Y19484428D01*
X15276725Y19522523D01*
X15314820Y19560619D01*
X15352915Y19636809D01*
X15352915Y19789190D01*
X15314820Y19865380D01*
X15276725Y19903476D01*
X15200534Y19941571D01*
X15010058Y19941571D01*
X14933868Y19903476D01*
X14895772Y19865380D01*
X14857677Y19789190D01*
X14857677Y19636809D01*
X14895772Y19560619D01*
X14933868Y19522523D01*
X15010058Y19484428D01*
%TO.C,L2*%
X21241666Y27326095D02*
X20860714Y27326095D01*
X20860714Y28126095D01*
X21470238Y28049904D02*
X21508333Y28088000D01*
X21584523Y28126095D01*
X21775000Y28126095D01*
X21851190Y28088000D01*
X21889285Y28049904D01*
X21927380Y27973714D01*
X21927380Y27897523D01*
X21889285Y27783238D01*
X21432142Y27326095D01*
X21927380Y27326095D01*
%TO.C,D14*%
X35161904Y-48596428D02*
X34361904Y-48596428D01*
X34361904Y-48405952D01*
X34400000Y-48291666D01*
X34476190Y-48215476D01*
X34552380Y-48177380D01*
X34704761Y-48139285D01*
X34819047Y-48139285D01*
X34971428Y-48177380D01*
X35047619Y-48215476D01*
X35123809Y-48291666D01*
X35161904Y-48405952D01*
X35161904Y-48596428D01*
X35161904Y-47377380D02*
X35161904Y-47834523D01*
X35161904Y-47605952D02*
X34361904Y-47605952D01*
X34476190Y-47682142D01*
X34552380Y-47758333D01*
X34590476Y-47834523D01*
X34628571Y-46691666D02*
X35161904Y-46691666D01*
X34323809Y-46882142D02*
X34895238Y-47072619D01*
X34895238Y-46577380D01*
%TO.C,C12*%
X5160714Y17168714D02*
X5198809Y17130619D01*
X5236904Y17016333D01*
X5236904Y16940142D01*
X5198809Y16825857D01*
X5122619Y16749666D01*
X5046428Y16711571D01*
X4894047Y16673476D01*
X4779761Y16673476D01*
X4627380Y16711571D01*
X4551190Y16749666D01*
X4475000Y16825857D01*
X4436904Y16940142D01*
X4436904Y17016333D01*
X4475000Y17130619D01*
X4513095Y17168714D01*
X5236904Y17930619D02*
X5236904Y17473476D01*
X5236904Y17702047D02*
X4436904Y17702047D01*
X4551190Y17625857D01*
X4627380Y17549666D01*
X4665476Y17473476D01*
X4513095Y18235380D02*
X4475000Y18273476D01*
X4436904Y18349666D01*
X4436904Y18540142D01*
X4475000Y18616333D01*
X4513095Y18654428D01*
X4589285Y18692523D01*
X4665476Y18692523D01*
X4779761Y18654428D01*
X5236904Y18197285D01*
X5236904Y18692523D01*
%TO.C,D16*%
X35161904Y-67646428D02*
X34361904Y-67646428D01*
X34361904Y-67455952D01*
X34400000Y-67341666D01*
X34476190Y-67265476D01*
X34552380Y-67227380D01*
X34704761Y-67189285D01*
X34819047Y-67189285D01*
X34971428Y-67227380D01*
X35047619Y-67265476D01*
X35123809Y-67341666D01*
X35161904Y-67455952D01*
X35161904Y-67646428D01*
X35161904Y-66427380D02*
X35161904Y-66884523D01*
X35161904Y-66655952D02*
X34361904Y-66655952D01*
X34476190Y-66732142D01*
X34552380Y-66808333D01*
X34590476Y-66884523D01*
X34361904Y-65741666D02*
X34361904Y-65894047D01*
X34400000Y-65970238D01*
X34438095Y-66008333D01*
X34552380Y-66084523D01*
X34704761Y-66122619D01*
X35009523Y-66122619D01*
X35085714Y-66084523D01*
X35123809Y-66046428D01*
X35161904Y-65970238D01*
X35161904Y-65817857D01*
X35123809Y-65741666D01*
X35085714Y-65703571D01*
X35009523Y-65665476D01*
X34819047Y-65665476D01*
X34742857Y-65703571D01*
X34704761Y-65741666D01*
X34666666Y-65817857D01*
X34666666Y-65970238D01*
X34704761Y-66046428D01*
X34742857Y-66084523D01*
X34819047Y-66122619D01*
%TO.C,C2*%
X15857677Y25477285D02*
X15819582Y25439190D01*
X15705296Y25401095D01*
X15629106Y25401095D01*
X15514820Y25439190D01*
X15438630Y25515380D01*
X15400534Y25591571D01*
X15362439Y25743952D01*
X15362439Y25858238D01*
X15400534Y26010619D01*
X15438630Y26086809D01*
X15514820Y26163000D01*
X15629106Y26201095D01*
X15705296Y26201095D01*
X15819582Y26163000D01*
X15857677Y26124904D01*
X16162439Y26124904D02*
X16200534Y26163000D01*
X16276725Y26201095D01*
X16467201Y26201095D01*
X16543391Y26163000D01*
X16581487Y26124904D01*
X16619582Y26048714D01*
X16619582Y25972523D01*
X16581487Y25858238D01*
X16124344Y25401095D01*
X16619582Y25401095D01*
%TO.C,D10*%
X25636904Y-29546428D02*
X24836904Y-29546428D01*
X24836904Y-29355952D01*
X24875000Y-29241666D01*
X24951190Y-29165476D01*
X25027380Y-29127380D01*
X25179761Y-29089285D01*
X25294047Y-29089285D01*
X25446428Y-29127380D01*
X25522619Y-29165476D01*
X25598809Y-29241666D01*
X25636904Y-29355952D01*
X25636904Y-29546428D01*
X25636904Y-28327380D02*
X25636904Y-28784523D01*
X25636904Y-28555952D02*
X24836904Y-28555952D01*
X24951190Y-28632142D01*
X25027380Y-28708333D01*
X25065476Y-28784523D01*
X24836904Y-27832142D02*
X24836904Y-27755952D01*
X24875000Y-27679761D01*
X24913095Y-27641666D01*
X24989285Y-27603571D01*
X25141666Y-27565476D01*
X25332142Y-27565476D01*
X25484523Y-27603571D01*
X25560714Y-27641666D01*
X25598809Y-27679761D01*
X25636904Y-27755952D01*
X25636904Y-27832142D01*
X25598809Y-27908333D01*
X25560714Y-27946428D01*
X25484523Y-27984523D01*
X25332142Y-28022619D01*
X25141666Y-28022619D01*
X24989285Y-27984523D01*
X24913095Y-27946428D01*
X24875000Y-27908333D01*
X24836904Y-27832142D01*
%TO.C,U4*%
X47758369Y7839095D02*
X47758369Y7191476D01*
X47796464Y7115285D01*
X47834559Y7077190D01*
X47910750Y7039095D01*
X48063131Y7039095D01*
X48139321Y7077190D01*
X48177416Y7115285D01*
X48215512Y7191476D01*
X48215512Y7839095D01*
X48939321Y7572428D02*
X48939321Y7039095D01*
X48748845Y7877190D02*
X48558369Y7305761D01*
X49053607Y7305761D01*
%TO.C,C9*%
X19691666Y29807285D02*
X19653571Y29769190D01*
X19539285Y29731095D01*
X19463095Y29731095D01*
X19348809Y29769190D01*
X19272619Y29845380D01*
X19234523Y29921571D01*
X19196428Y30073952D01*
X19196428Y30188238D01*
X19234523Y30340619D01*
X19272619Y30416809D01*
X19348809Y30493000D01*
X19463095Y30531095D01*
X19539285Y30531095D01*
X19653571Y30493000D01*
X19691666Y30454904D01*
X20072619Y29731095D02*
X20225000Y29731095D01*
X20301190Y29769190D01*
X20339285Y29807285D01*
X20415476Y29921571D01*
X20453571Y30073952D01*
X20453571Y30378714D01*
X20415476Y30454904D01*
X20377380Y30493000D01*
X20301190Y30531095D01*
X20148809Y30531095D01*
X20072619Y30493000D01*
X20034523Y30454904D01*
X19996428Y30378714D01*
X19996428Y30188238D01*
X20034523Y30112047D01*
X20072619Y30073952D01*
X20148809Y30035857D01*
X20301190Y30035857D01*
X20377380Y30073952D01*
X20415476Y30112047D01*
X20453571Y30188238D01*
%TO.C,D3*%
X35161904Y8934523D02*
X34361904Y8934523D01*
X34361904Y9125000D01*
X34400000Y9239285D01*
X34476190Y9315476D01*
X34552380Y9353571D01*
X34704761Y9391666D01*
X34819047Y9391666D01*
X34971428Y9353571D01*
X35047619Y9315476D01*
X35123809Y9239285D01*
X35161904Y9125000D01*
X35161904Y8934523D01*
X34361904Y9658333D02*
X34361904Y10153571D01*
X34666666Y9886904D01*
X34666666Y10001190D01*
X34704761Y10077380D01*
X34742857Y10115476D01*
X34819047Y10153571D01*
X35009523Y10153571D01*
X35085714Y10115476D01*
X35123809Y10077380D01*
X35161904Y10001190D01*
X35161904Y9772619D01*
X35123809Y9696428D01*
X35085714Y9658333D01*
%TO.C,L1*%
X24336904Y23617666D02*
X24336904Y23236714D01*
X23536904Y23236714D01*
X24336904Y24303380D02*
X24336904Y23846238D01*
X24336904Y24074809D02*
X23536904Y24074809D01*
X23651190Y23998619D01*
X23727380Y23922428D01*
X23765476Y23846238D01*
%TO.C,R4*%
X9057677Y27001095D02*
X8791011Y27382047D01*
X8600534Y27001095D02*
X8600534Y27801095D01*
X8905296Y27801095D01*
X8981487Y27763000D01*
X9019582Y27724904D01*
X9057677Y27648714D01*
X9057677Y27534428D01*
X9019582Y27458238D01*
X8981487Y27420142D01*
X8905296Y27382047D01*
X8600534Y27382047D01*
X9743391Y27534428D02*
X9743391Y27001095D01*
X9552915Y27839190D02*
X9362439Y27267761D01*
X9857677Y27267761D01*
%TO.C,R6*%
X9057677Y25801095D02*
X8791011Y26182047D01*
X8600534Y25801095D02*
X8600534Y26601095D01*
X8905296Y26601095D01*
X8981487Y26563000D01*
X9019582Y26524904D01*
X9057677Y26448714D01*
X9057677Y26334428D01*
X9019582Y26258238D01*
X8981487Y26220142D01*
X8905296Y26182047D01*
X8600534Y26182047D01*
X9743391Y26601095D02*
X9591011Y26601095D01*
X9514820Y26563000D01*
X9476725Y26524904D01*
X9400534Y26410619D01*
X9362439Y26258238D01*
X9362439Y25953476D01*
X9400534Y25877285D01*
X9438630Y25839190D01*
X9514820Y25801095D01*
X9667201Y25801095D01*
X9743391Y25839190D01*
X9781487Y25877285D01*
X9819582Y25953476D01*
X9819582Y26143952D01*
X9781487Y26220142D01*
X9743391Y26258238D01*
X9667201Y26296333D01*
X9514820Y26296333D01*
X9438630Y26258238D01*
X9400534Y26220142D01*
X9362439Y26143952D01*
%TO.C,R3*%
X6957677Y24601095D02*
X6691011Y24982047D01*
X6500534Y24601095D02*
X6500534Y25401095D01*
X6805296Y25401095D01*
X6881487Y25363000D01*
X6919582Y25324904D01*
X6957677Y25248714D01*
X6957677Y25134428D01*
X6919582Y25058238D01*
X6881487Y25020142D01*
X6805296Y24982047D01*
X6500534Y24982047D01*
X7224344Y25401095D02*
X7719582Y25401095D01*
X7452915Y25096333D01*
X7567201Y25096333D01*
X7643391Y25058238D01*
X7681487Y25020142D01*
X7719582Y24943952D01*
X7719582Y24753476D01*
X7681487Y24677285D01*
X7643391Y24639190D01*
X7567201Y24601095D01*
X7338630Y24601095D01*
X7262439Y24639190D01*
X7224344Y24677285D01*
%TO.C,R11*%
X32860714Y14889095D02*
X32594047Y15270047D01*
X32403571Y14889095D02*
X32403571Y15689095D01*
X32708333Y15689095D01*
X32784523Y15651000D01*
X32822619Y15612904D01*
X32860714Y15536714D01*
X32860714Y15422428D01*
X32822619Y15346238D01*
X32784523Y15308142D01*
X32708333Y15270047D01*
X32403571Y15270047D01*
X33622619Y14889095D02*
X33165476Y14889095D01*
X33394047Y14889095D02*
X33394047Y15689095D01*
X33317857Y15574809D01*
X33241666Y15498619D01*
X33165476Y15460523D01*
X34384523Y14889095D02*
X33927380Y14889095D01*
X34155952Y14889095D02*
X34155952Y15689095D01*
X34079761Y15574809D01*
X34003571Y15498619D01*
X33927380Y15460523D01*
%TO.C,D13*%
X25636904Y-48596428D02*
X24836904Y-48596428D01*
X24836904Y-48405952D01*
X24875000Y-48291666D01*
X24951190Y-48215476D01*
X25027380Y-48177380D01*
X25179761Y-48139285D01*
X25294047Y-48139285D01*
X25446428Y-48177380D01*
X25522619Y-48215476D01*
X25598809Y-48291666D01*
X25636904Y-48405952D01*
X25636904Y-48596428D01*
X25636904Y-47377380D02*
X25636904Y-47834523D01*
X25636904Y-47605952D02*
X24836904Y-47605952D01*
X24951190Y-47682142D01*
X25027380Y-47758333D01*
X25065476Y-47834523D01*
X24836904Y-47110714D02*
X24836904Y-46615476D01*
X25141666Y-46882142D01*
X25141666Y-46767857D01*
X25179761Y-46691666D01*
X25217857Y-46653571D01*
X25294047Y-46615476D01*
X25484523Y-46615476D01*
X25560714Y-46653571D01*
X25598809Y-46691666D01*
X25636904Y-46767857D01*
X25636904Y-46996428D01*
X25598809Y-47072619D01*
X25560714Y-47110714D01*
%TO.C,G\u002A\u002A\u002A*%
G36*
X-6293000Y27487011D02*
G01*
X-6293000Y28477011D01*
X-5293000Y28477011D01*
X-5293000Y29467011D01*
X-5787810Y29467012D01*
X-6282619Y29467012D01*
X-6288082Y29489512D01*
X-6289122Y29503805D01*
X-6289983Y29536042D01*
X-6290654Y29584169D01*
X-6291124Y29646131D01*
X-6291383Y29719872D01*
X-6291418Y29803338D01*
X-6291220Y29894474D01*
X-6290777Y29991225D01*
X-6290773Y29992011D01*
X-6288000Y30472011D01*
X-5785500Y30474604D01*
X-5283000Y30477196D01*
X-5283000Y29477200D01*
X-4790500Y29474606D01*
X-4298000Y29472011D01*
X-4292814Y28477011D01*
X-1293187Y28477011D01*
X-1290594Y28974511D01*
X-1288000Y29472011D01*
X-795500Y29474606D01*
X-303000Y29477200D01*
X-303000Y29961288D01*
X-302878Y30058209D01*
X-302528Y30149303D01*
X-301974Y30232560D01*
X-301240Y30305972D01*
X-300351Y30367530D01*
X-299332Y30415224D01*
X-298206Y30447046D01*
X-296998Y30460987D01*
X-296931Y30461194D01*
X-293936Y30464778D01*
X-286865Y30467783D01*
X-274110Y30470259D01*
X-254062Y30472256D01*
X-225112Y30473824D01*
X-185652Y30475013D01*
X-134073Y30475872D01*
X-68768Y30476451D01*
X11873Y30476801D01*
X109459Y30476971D01*
X213069Y30477011D01*
X717000Y30477011D01*
X717000Y29467011D01*
X-293000Y29467011D01*
X-293000Y28477196D01*
X209500Y28474604D01*
X712000Y28472011D01*
X714594Y27979605D01*
X717188Y27487198D01*
X1214594Y27484605D01*
X1712000Y27482011D01*
X1714593Y26984605D01*
X1717186Y26487198D01*
X2214593Y26484605D01*
X2712000Y26482011D01*
X2717064Y23467011D01*
X1707000Y23467011D01*
X1707000Y25467011D01*
X717000Y25467011D01*
X717000Y23467011D01*
X-293000Y23467011D01*
X-293000Y22477156D01*
X-1281960Y22477161D01*
X-1445524Y22477184D01*
X-1590233Y22477265D01*
X-1717231Y22477422D01*
X-1827662Y22477673D01*
X-1922671Y22478036D01*
X-2003402Y22478528D01*
X-2071000Y22479169D01*
X-2126609Y22479976D01*
X-2171373Y22480968D01*
X-2206438Y22482162D01*
X-2232947Y22483576D01*
X-2252044Y22485229D01*
X-2264875Y22487139D01*
X-2272584Y22489324D01*
X-2276315Y22491802D01*
X-2276960Y22492906D01*
X-2278165Y22505796D01*
X-2279291Y22536677D01*
X-2280311Y22583541D01*
X-2281203Y22644380D01*
X-2281943Y22717186D01*
X-2282505Y22799951D01*
X-2282865Y22890665D01*
X-2283000Y22987322D01*
X-2283000Y23477011D01*
X-303000Y23477011D01*
X-303000Y24467011D01*
X-5283000Y24467011D01*
X-5283000Y23477011D01*
X-3293000Y23477011D01*
X-3293000Y22477011D01*
X-4286931Y22477011D01*
X-4450878Y22477034D01*
X-4595969Y22477113D01*
X-4723345Y22477266D01*
X-4834149Y22477513D01*
X-4929525Y22477870D01*
X-5010615Y22478356D01*
X-5078562Y22478989D01*
X-5134508Y22479787D01*
X-5179596Y22480769D01*
X-5214970Y22481951D01*
X-5241772Y22483353D01*
X-5261144Y22484992D01*
X-5274230Y22486887D01*
X-5282173Y22489055D01*
X-5286115Y22491515D01*
X-5286931Y22492829D01*
X-5288148Y22505750D01*
X-5289284Y22536650D01*
X-5290313Y22583510D01*
X-5291212Y22644309D01*
X-5291955Y22717028D01*
X-5292517Y22799647D01*
X-5292874Y22890145D01*
X-5293000Y22986503D01*
X-5293000Y23467011D01*
X-6293000Y23467011D01*
X-6293000Y25467011D01*
X-7293000Y25467011D01*
X-7293000Y23467011D01*
X-8302746Y23467011D01*
X-8303126Y26487011D01*
X-7303000Y26487011D01*
X-5283000Y26487011D01*
X-4303000Y26487011D01*
X-1283000Y26487011D01*
X-303000Y26487011D01*
X-303000Y27477011D01*
X-1283000Y27477011D01*
X-1283000Y26487011D01*
X-4303000Y26487011D01*
X-4303000Y27477011D01*
X-5283000Y27477011D01*
X-5283000Y26487011D01*
X-7303000Y26487011D01*
X-7303000Y27487011D01*
X-6293000Y27487011D01*
G37*
D11*
%TO.C,D9*%
X13687500Y-29275000D02*
X13687500Y-27425000D01*
X14887500Y-29275000D02*
X14887500Y-27425000D01*
X14887500Y-27425000D02*
X13687500Y-27425000D01*
%TO.C,R9*%
X44487893Y15564641D02*
X44487893Y15257359D01*
X45247893Y15564641D02*
X45247893Y15257359D01*
%TO.C,C1*%
X13283175Y26603000D02*
X13498847Y26603000D01*
X13283175Y27323000D02*
X13498847Y27323000D01*
%TO.C,U3*%
X7284761Y16093000D02*
X9284761Y16093000D01*
X8284761Y18313000D02*
X9284761Y18313000D01*
%TO.C,R10*%
X46447893Y15564641D02*
X46447893Y15257359D01*
X45687893Y15564641D02*
X45687893Y15257359D01*
%TO.C,R7*%
X13311011Y19816641D02*
X13311011Y19509359D01*
X14071011Y19816641D02*
X14071011Y19509359D01*
%TO.C,D7*%
X32737500Y-10225000D02*
X32737500Y-8375000D01*
X33937500Y-8375000D02*
X32737500Y-8375000D01*
X33937500Y-10225000D02*
X33937500Y-8375000D01*
%TO.C,U2*%
X13326011Y21353000D02*
X13801011Y21353000D01*
X13326011Y24573000D02*
X13801011Y24573000D01*
X10581011Y21353000D02*
X10581011Y21828000D01*
X13801011Y21353000D02*
X13801011Y21828000D01*
X13801011Y24573000D02*
X13801011Y24098000D01*
X11056011Y21353000D02*
X10581011Y21353000D01*
X11056011Y24573000D02*
X10581011Y24573000D01*
%TO.C,D2*%
X24412500Y8825000D02*
X24412500Y10675000D01*
X24412500Y10675000D02*
X23212500Y10675000D01*
X23212500Y8825000D02*
X23212500Y10675000D01*
%TO.C,Q1*%
X29015000Y12651000D02*
X29015000Y13301000D01*
X32135000Y12651000D02*
X32135000Y12001000D01*
X32135000Y12651000D02*
X32135000Y14326000D01*
X29015000Y12651000D02*
X29015000Y12001000D01*
%TO.C,C4*%
X23135000Y25643164D02*
X23135000Y25858836D01*
X22415000Y25643164D02*
X22415000Y25858836D01*
%TO.C,R13*%
X45247893Y19447359D02*
X45247893Y19754641D01*
X44487893Y19447359D02*
X44487893Y19754641D01*
%TO.C,Q2*%
X34515000Y12651000D02*
X34515000Y13301000D01*
X37635000Y12651000D02*
X37635000Y12001000D01*
X37635000Y12651000D02*
X37635000Y14326000D01*
X34515000Y12651000D02*
X34515000Y12001000D01*
%TO.C,D12*%
X13687500Y-48325000D02*
X13687500Y-46475000D01*
X14887500Y-48325000D02*
X14887500Y-46475000D01*
X14887500Y-46475000D02*
X13687500Y-46475000D01*
%TO.C,R8*%
X21878641Y30913000D02*
X21571359Y30913000D01*
X21878641Y31673000D02*
X21571359Y31673000D01*
%TO.C,R12*%
X46447893Y19447359D02*
X46447893Y19754641D01*
X45687893Y19447359D02*
X45687893Y19754641D01*
%TO.C,R1*%
X17478641Y30910427D02*
X17171359Y30910427D01*
X17478641Y31670427D02*
X17171359Y31670427D01*
%TO.C,J1*%
X23875000Y35763000D02*
X23875000Y37763000D01*
X33275000Y35763000D02*
X33275000Y37763000D01*
%TO.C,D11*%
X32737500Y-29275000D02*
X32737500Y-27425000D01*
X33937500Y-27425000D02*
X32737500Y-27425000D01*
X33937500Y-29275000D02*
X33937500Y-27425000D01*
%TO.C,D5*%
X14887500Y-8375000D02*
X13687500Y-8375000D01*
X13687500Y-10225000D02*
X13687500Y-8375000D01*
X14887500Y-10225000D02*
X14887500Y-8375000D01*
%TO.C,D4*%
X42262500Y8825000D02*
X42262500Y10675000D01*
X43462500Y10675000D02*
X42262500Y10675000D01*
X43462500Y8825000D02*
X43462500Y10675000D01*
%TO.C,R2*%
X14778641Y31670427D02*
X14471359Y31670427D01*
X14778641Y30910427D02*
X14471359Y30910427D01*
%TO.C,C10*%
X46435000Y13043164D02*
X46435000Y13258836D01*
X45715000Y13043164D02*
X45715000Y13258836D01*
%TO.C,U1*%
X28075000Y25223000D02*
X27275000Y25223000D01*
X28075000Y22103000D02*
X29875000Y22103000D01*
X28075000Y22103000D02*
X27275000Y22103000D01*
X28075000Y25223000D02*
X28875000Y25223000D01*
%TO.C,R5*%
X15371011Y24009359D02*
X15371011Y24316641D01*
X14611011Y24009359D02*
X14611011Y24316641D01*
%TO.C,D6*%
X24412500Y-8375000D02*
X23212500Y-8375000D01*
X23212500Y-10225000D02*
X23212500Y-8375000D01*
X24412500Y-10225000D02*
X24412500Y-8375000D01*
%TO.C,C11*%
X45235000Y13272836D02*
X45235000Y13057164D01*
X44515000Y13272836D02*
X44515000Y13057164D01*
%TO.C,F2*%
X7853232Y24073000D02*
X8178790Y24073000D01*
X7853232Y23053000D02*
X8178790Y23053000D01*
%TO.C,C8*%
X9031011Y21870836D02*
X9031011Y21655164D01*
X9751011Y21870836D02*
X9751011Y21655164D01*
%TO.C,C3*%
X24815000Y25643164D02*
X24815000Y25858836D01*
X25535000Y25643164D02*
X25535000Y25858836D01*
%TO.C,D1*%
X13687500Y8825000D02*
X13687500Y10675000D01*
X14887500Y10675000D02*
X13687500Y10675000D01*
X14887500Y8825000D02*
X14887500Y10675000D01*
%TO.C,F1*%
X24485000Y28719779D02*
X24485000Y28394221D01*
X23465000Y28719779D02*
X23465000Y28394221D01*
%TO.C,D15*%
X43462500Y-48325000D02*
X43462500Y-46475000D01*
X42262500Y-48325000D02*
X42262500Y-46475000D01*
X43462500Y-46475000D02*
X42262500Y-46475000D01*
%TO.C,C5*%
X15831011Y21870836D02*
X15831011Y21655164D01*
X16551011Y21870836D02*
X16551011Y21655164D01*
%TO.C,D17*%
X43462500Y-65525000D02*
X42262500Y-65525000D01*
X42262500Y-67375000D02*
X42262500Y-65525000D01*
X43462500Y-67375000D02*
X43462500Y-65525000D01*
%TO.C,C7*%
X7831011Y21870836D02*
X7831011Y21655164D01*
X8551011Y21870836D02*
X8551011Y21655164D01*
%TO.C,D8*%
X43462500Y-8375000D02*
X42262500Y-8375000D01*
X43462500Y-10225000D02*
X43462500Y-8375000D01*
X42262500Y-10225000D02*
X42262500Y-8375000D01*
%TO.C,C6*%
X14631011Y21870836D02*
X14631011Y21655164D01*
X15351011Y21870836D02*
X15351011Y21655164D01*
%TO.C,D14*%
X33937500Y-46475000D02*
X32737500Y-46475000D01*
X32737500Y-48325000D02*
X32737500Y-46475000D01*
X33937500Y-48325000D02*
X33937500Y-46475000D01*
%TO.C,C12*%
X6435000Y17790836D02*
X6435000Y17575164D01*
X5715000Y17790836D02*
X5715000Y17575164D01*
%TO.C,D16*%
X33937500Y-67375000D02*
X33937500Y-65525000D01*
X32737500Y-67375000D02*
X32737500Y-65525000D01*
X33937500Y-65525000D02*
X32737500Y-65525000D01*
%TO.C,C2*%
X13283175Y25403000D02*
X13498847Y25403000D01*
X13283175Y26123000D02*
X13498847Y26123000D01*
%TO.C,D10*%
X23212500Y-29275000D02*
X23212500Y-27425000D01*
X24412500Y-27425000D02*
X23212500Y-27425000D01*
X24412500Y-29275000D02*
X24412500Y-27425000D01*
%TO.C,U4*%
X47725000Y28601000D02*
X47725000Y29601000D01*
X61275000Y24451000D02*
X60275000Y24451000D01*
X61825000Y8301000D02*
X60825000Y8301000D01*
X61825000Y9301000D02*
X61825000Y8301000D01*
X47725000Y29601000D02*
X47725000Y28601000D01*
X47725000Y29601000D02*
X48725000Y29601000D01*
X61825000Y29601000D02*
X61825000Y28601000D01*
X61825000Y29601000D02*
X60825000Y29601000D01*
X47725000Y8301000D02*
X48725000Y8301000D01*
X47725000Y24001000D02*
X47725000Y25001000D01*
X60825000Y29601000D02*
X61825000Y29601000D01*
X47725000Y8301000D02*
X47725000Y9301000D01*
X47725000Y24001000D02*
X47225000Y24001000D01*
X48725000Y8301000D02*
X47725000Y8301000D01*
X61825000Y8301000D02*
X61825000Y9301000D01*
X48275000Y24451000D02*
X49275000Y24451000D01*
X47225000Y24001000D02*
X47225000Y23501000D01*
%TO.C,C9*%
X21832836Y29733000D02*
X21617164Y29733000D01*
X21832836Y30453000D02*
X21617164Y30453000D01*
%TO.C,D3*%
X32737500Y8825000D02*
X32737500Y10675000D01*
X33937500Y10675000D02*
X32737500Y10675000D01*
X33937500Y8825000D02*
X33937500Y10675000D01*
%TO.C,R4*%
X11144652Y26583000D02*
X10837370Y26583000D01*
X11144652Y27343000D02*
X10837370Y27343000D01*
%TO.C,R6*%
X11144652Y26143000D02*
X10837370Y26143000D01*
X11144652Y25383000D02*
X10837370Y25383000D01*
%TO.C,R3*%
X9144652Y24583000D02*
X8837370Y24583000D01*
X9144652Y25343000D02*
X8837370Y25343000D01*
%TO.C,R11*%
X32995000Y13497359D02*
X32995000Y13804641D01*
X33755000Y13497359D02*
X33755000Y13804641D01*
%TO.C,D13*%
X24412500Y-46475000D02*
X23212500Y-46475000D01*
X23212500Y-48325000D02*
X23212500Y-46475000D01*
X24412500Y-48325000D02*
X24412500Y-46475000D01*
%TD*%
%LPC*%
D12*
%TO.C,D9*%
X14287500Y-27875000D03*
X14287500Y-29275000D03*
%TD*%
D13*
%TO.C,R9*%
X44867893Y15921000D03*
X44867893Y14901000D03*
%TD*%
D14*
%TO.C,C1*%
X12911011Y26963000D03*
X13871011Y26963000D03*
%TD*%
D15*
%TO.C,U3*%
X7322261Y17953000D03*
X7322261Y17453000D03*
X7322261Y16953000D03*
X7322261Y16453000D03*
X9247261Y16453000D03*
X9247261Y16953000D03*
X9247261Y17453000D03*
X9247261Y17953000D03*
D16*
X8284761Y17203000D03*
%TD*%
D13*
%TO.C,R10*%
X46067893Y15921000D03*
X46067893Y14901000D03*
%TD*%
%TO.C,R7*%
X13691011Y20173000D03*
X13691011Y19153000D03*
%TD*%
D12*
%TO.C,D7*%
X33337500Y-8825000D03*
X33337500Y-10225000D03*
%TD*%
D17*
%TO.C,U2*%
X10753511Y23713000D03*
X10753511Y23213000D03*
X10753511Y22713000D03*
X10753511Y22213000D03*
D18*
X11441011Y21525500D03*
X11941011Y21525500D03*
X12441011Y21525500D03*
X12941011Y21525500D03*
D17*
X13628511Y22213000D03*
X13628511Y22713000D03*
X13628511Y23213000D03*
X13628511Y23713000D03*
D18*
X12941011Y24400500D03*
X12441011Y24400500D03*
X11941011Y24400500D03*
X11441011Y24400500D03*
D19*
X12191011Y22963000D03*
%TD*%
D20*
%TO.C,SW1*%
X0Y0D03*
D21*
X-5080000Y0D03*
X5080000Y0D03*
%TD*%
D12*
%TO.C,D2*%
X23812500Y10225000D03*
X23812500Y8825000D03*
%TD*%
D22*
%TO.C,Q1*%
X31525000Y13588500D03*
X29625000Y13588500D03*
X30575000Y11713500D03*
%TD*%
D21*
%TO.C,SW5*%
X5080000Y-19050000D03*
X-5080000Y-19050000D03*
D20*
X0Y-19050000D03*
%TD*%
%TO.C,SW2*%
X19050000Y0D03*
D21*
X24130000Y0D03*
X13970000Y0D03*
%TD*%
D20*
%TO.C,SW7*%
X38100000Y-19050000D03*
D21*
X43180000Y-19050000D03*
X33020000Y-19050000D03*
%TD*%
D23*
%TO.C,C4*%
X22775000Y25271000D03*
X22775000Y26231000D03*
%TD*%
D24*
%TO.C,R13*%
X44867893Y19091000D03*
X44867893Y20111000D03*
%TD*%
D22*
%TO.C,Q2*%
X37025000Y13588500D03*
X35125000Y13588500D03*
X36075000Y11713500D03*
%TD*%
D12*
%TO.C,D12*%
X14287500Y-46925000D03*
X14287500Y-48325000D03*
%TD*%
D20*
%TO.C,S1*%
X48895000Y-16668750D03*
X48895000Y-40481250D03*
%TD*%
D25*
%TO.C,R8*%
X22235000Y31293000D03*
X21215000Y31293000D03*
%TD*%
D21*
%TO.C,SW12*%
X5080000Y-57150000D03*
X-5080000Y-57150000D03*
D20*
X0Y-57150000D03*
%TD*%
D21*
%TO.C,SW10*%
X13970000Y-38100000D03*
D20*
X19050000Y-38100000D03*
D21*
X24130000Y-38100000D03*
%TD*%
D20*
%TO.C,SW16*%
X9525000Y-76200000D03*
D21*
X14605000Y-76200000D03*
X4445000Y-76200000D03*
%TD*%
D24*
%TO.C,R12*%
X46067893Y19091000D03*
X46067893Y20111000D03*
%TD*%
D25*
%TO.C,R1*%
X17835000Y31290427D03*
X16815000Y31290427D03*
%TD*%
D26*
%TO.C,J1*%
X31465000Y35063000D03*
X25685000Y35063000D03*
D27*
X31825000Y33618000D03*
X31025000Y33618000D03*
D28*
X29825000Y33618000D03*
X28825000Y33618000D03*
X28325000Y33618000D03*
X27325000Y33618000D03*
D27*
X26125000Y33618000D03*
X25325000Y33618000D03*
X25325000Y33618000D03*
X26125000Y33618000D03*
D28*
X26825000Y33618000D03*
X27825000Y33618000D03*
X29325000Y33618000D03*
X30325000Y33618000D03*
D27*
X31025000Y33618000D03*
X31825000Y33618000D03*
D29*
X32895000Y34533000D03*
D30*
X32895000Y38713000D03*
D29*
X24255000Y34533000D03*
D30*
X24255000Y38713000D03*
%TD*%
D12*
%TO.C,D11*%
X33337500Y-27875000D03*
X33337500Y-29275000D03*
%TD*%
%TO.C,D5*%
X14287500Y-8825000D03*
X14287500Y-10225000D03*
%TD*%
%TO.C,D4*%
X42862500Y10225000D03*
X42862500Y8825000D03*
%TD*%
D25*
%TO.C,R2*%
X15135000Y31290427D03*
X14115000Y31290427D03*
%TD*%
D23*
%TO.C,C10*%
X46075000Y12671000D03*
X46075000Y13631000D03*
%TD*%
D31*
%TO.C,U1*%
X29212500Y22713000D03*
X29212500Y23663000D03*
X29212500Y24613000D03*
X26937500Y24613000D03*
X26937500Y23663000D03*
X26937500Y22713000D03*
%TD*%
D21*
%TO.C,SW9*%
X-5080000Y-38100000D03*
X5080000Y-38100000D03*
D20*
X0Y-38100000D03*
%TD*%
D24*
%TO.C,R5*%
X14991011Y23653000D03*
X14991011Y24673000D03*
%TD*%
D21*
%TO.C,SW3*%
X43180000Y0D03*
X33020000Y0D03*
D20*
X38100000Y0D03*
%TD*%
%TO.C,SW11*%
X38100000Y-38100000D03*
D21*
X33020000Y-38100000D03*
X43180000Y-38100000D03*
%TD*%
D20*
%TO.C,S2*%
X48895000Y-78581250D03*
X48895000Y-54768750D03*
%TD*%
D12*
%TO.C,D6*%
X23812500Y-8825000D03*
X23812500Y-10225000D03*
%TD*%
D21*
%TO.C,SW15*%
X57150000Y-61595000D03*
X57150000Y-71755000D03*
D20*
X57150000Y-66675000D03*
%TD*%
D32*
%TO.C,C11*%
X44875000Y13645000D03*
X44875000Y12685000D03*
%TD*%
D33*
%TO.C,F2*%
X7228511Y23563000D03*
X8803511Y23563000D03*
%TD*%
D32*
%TO.C,C8*%
X9391011Y22243000D03*
X9391011Y21283000D03*
%TD*%
D21*
%TO.C,SW13*%
X13970000Y-57150000D03*
X24130000Y-57150000D03*
D20*
X19050000Y-57150000D03*
%TD*%
D23*
%TO.C,C3*%
X25175000Y25271000D03*
X25175000Y26231000D03*
%TD*%
D12*
%TO.C,D1*%
X14287500Y10225000D03*
X14287500Y8825000D03*
%TD*%
D34*
%TO.C,F1*%
X23975000Y29344500D03*
X23975000Y27769500D03*
%TD*%
D12*
%TO.C,D15*%
X42862500Y-46925000D03*
X42862500Y-48325000D03*
%TD*%
D32*
%TO.C,C5*%
X16191011Y22243000D03*
X16191011Y21283000D03*
%TD*%
D21*
%TO.C,SW4*%
X62230000Y0D03*
D20*
X57150000Y0D03*
D21*
X52070000Y0D03*
%TD*%
%TO.C,SW6*%
X24130000Y-19050000D03*
D20*
X19050000Y-19050000D03*
D21*
X13970000Y-19050000D03*
%TD*%
D12*
%TO.C,D17*%
X42862500Y-65975000D03*
X42862500Y-67375000D03*
%TD*%
D32*
%TO.C,C7*%
X8191011Y22243000D03*
X8191011Y21283000D03*
%TD*%
D12*
%TO.C,D8*%
X42862500Y-8825000D03*
X42862500Y-10225000D03*
%TD*%
D32*
%TO.C,C6*%
X14991011Y22243000D03*
X14991011Y21283000D03*
%TD*%
D35*
%TO.C,L2*%
X21240000Y28893000D03*
X22210000Y28893000D03*
%TD*%
D12*
%TO.C,D14*%
X33337500Y-46925000D03*
X33337500Y-48325000D03*
%TD*%
D32*
%TO.C,C12*%
X6075000Y18163000D03*
X6075000Y17203000D03*
%TD*%
D12*
%TO.C,D16*%
X33337500Y-65975000D03*
X33337500Y-67375000D03*
%TD*%
D14*
%TO.C,C2*%
X12911011Y25763000D03*
X13871011Y25763000D03*
%TD*%
D12*
%TO.C,D10*%
X23812500Y-27875000D03*
X23812500Y-29275000D03*
%TD*%
D36*
%TO.C,U4*%
X48075000Y23351000D03*
X48075000Y22151000D03*
X48075000Y20951000D03*
X48075000Y19751000D03*
X48075000Y18551000D03*
X48075000Y17351000D03*
X48075000Y16151000D03*
X48075000Y14951000D03*
X48075000Y13751000D03*
X48075000Y12551000D03*
X48075000Y11351000D03*
X48075000Y10151000D03*
D37*
X49375000Y8651000D03*
X50575000Y8651000D03*
X51775000Y8651000D03*
X52975000Y8651000D03*
X54175000Y8651000D03*
X55375000Y8651000D03*
X56575000Y8651000D03*
X57775000Y8651000D03*
X58975000Y8651000D03*
X60175000Y8651000D03*
D38*
X61475000Y10151000D03*
X61475000Y11351000D03*
X61475000Y12551000D03*
X61475000Y13751000D03*
X61475000Y14951000D03*
X61475000Y16151000D03*
X61475000Y17351000D03*
X61475000Y18551000D03*
X61475000Y19751000D03*
X61475000Y20951000D03*
X61475000Y22151000D03*
X61475000Y23351000D03*
D39*
X49875000Y22751000D03*
X49875000Y21551000D03*
X49875000Y20351000D03*
X49875000Y19151000D03*
X49875000Y17951000D03*
X49875000Y16751000D03*
X49875000Y15551000D03*
X49875000Y14351000D03*
X49875000Y13151000D03*
X49875000Y11951000D03*
X49875000Y10751000D03*
X59675000Y10751000D03*
X59675000Y11951000D03*
X59675000Y13151000D03*
X59675000Y14351000D03*
X59675000Y15551000D03*
X59675000Y16751000D03*
X59675000Y17951000D03*
X59675000Y19151000D03*
X59675000Y20351000D03*
X59675000Y21551000D03*
X59675000Y22751000D03*
D40*
X52445000Y16121000D03*
X58005000Y10481000D03*
X52065000Y14041000D03*
X56775000Y10481000D03*
%TD*%
D41*
%TO.C,C9*%
X22205000Y30093000D03*
X21245000Y30093000D03*
%TD*%
D12*
%TO.C,D3*%
X33337500Y10225000D03*
X33337500Y8825000D03*
%TD*%
D42*
%TO.C,L1*%
X23975000Y26236000D03*
X23975000Y25266000D03*
%TD*%
D20*
%TO.C,SW14*%
X38100000Y-57150000D03*
D21*
X43180000Y-57150000D03*
X33020000Y-57150000D03*
%TD*%
D25*
%TO.C,R4*%
X11501011Y26963000D03*
X10481011Y26963000D03*
%TD*%
%TO.C,R6*%
X11501011Y25763000D03*
X10481011Y25763000D03*
%TD*%
D20*
%TO.C,SW17*%
X38100000Y-76200000D03*
D21*
X43180000Y-76200000D03*
X33020000Y-76200000D03*
%TD*%
D25*
%TO.C,R3*%
X9501011Y24963000D03*
X8481011Y24963000D03*
%TD*%
D20*
%TO.C,SW8*%
X57150000Y-28575000D03*
D21*
X57150000Y-33655000D03*
X57150000Y-23495000D03*
%TD*%
D20*
%TO.C,S3*%
X21431250Y-67945000D03*
X-2381250Y-67945000D03*
%TD*%
D24*
%TO.C,R11*%
X33375000Y13141000D03*
X33375000Y14161000D03*
%TD*%
D12*
%TO.C,D13*%
X23812500Y-46925000D03*
X23812500Y-48325000D03*
%TD*%
D43*
%TO.C,J4*%
X61227011Y-9984489D03*
X56147011Y-11000489D03*
X61227011Y-12016489D03*
%TD*%
D44*
%TO.C,J5*%
X64595000Y16768750D03*
D45*
X64595000Y19308750D03*
%TD*%
D46*
%TO.C,J3*%
X5725000Y12153000D03*
D47*
X6975000Y12153000D03*
X8225000Y12153000D03*
X9475000Y12153000D03*
X10725000Y12153000D03*
X11975000Y12153000D03*
X13225000Y12153000D03*
%TD*%
D46*
%TO.C,J2*%
X17975000Y12153000D03*
D47*
X19225000Y12153000D03*
%TD*%
M02*
