%TF.GenerationSoftware,KiCad,Pcbnew,(6.0.5)*%
%TF.CreationDate,2022-06-15T23:23:07+02:00*%
%TF.ProjectId,whalepad,7768616c-6570-4616-942e-6b696361645f,rev?*%
%TF.SameCoordinates,Original*%
%TF.FileFunction,Legend,Bot*%
%TF.FilePolarity,Positive*%
%FSLAX46Y46*%
G04 Gerber Fmt 4.6, Leading zero omitted, Abs format (unit mm)*
G04 Created by KiCad (PCBNEW (6.0.5)) date 2022-06-15 23:23:07*
%MOMM*%
%LPD*%
G01*
G04 APERTURE LIST*
G04 Aperture macros list*
%AMRoundRect*
0 Rectangle with rounded corners*
0 $1 Rounding radius*
0 $2 $3 $4 $5 $6 $7 $8 $9 X,Y pos of 4 corners*
0 Add a 4 corners polygon primitive as box body*
4,1,4,$2,$3,$4,$5,$6,$7,$8,$9,$2,$3,0*
0 Add four circle primitives for the rounded corners*
1,1,$1+$1,$2,$3*
1,1,$1+$1,$4,$5*
1,1,$1+$1,$6,$7*
1,1,$1+$1,$8,$9*
0 Add four rect primitives between the rounded corners*
20,1,$1+$1,$2,$3,$4,$5,0*
20,1,$1+$1,$4,$5,$6,$7,0*
20,1,$1+$1,$6,$7,$8,$9,0*
20,1,$1+$1,$8,$9,$2,$3,0*%
G04 Aperture macros list end*
%ADD10C,0.150000*%
%ADD11C,0.010000*%
%ADD12C,0.200000*%
%ADD13C,0.120000*%
%ADD14C,3.987800*%
%ADD15C,1.750000*%
%ADD16C,2.200000*%
%ADD17C,2.300000*%
%ADD18C,4.000000*%
%ADD19C,0.650000*%
%ADD20O,1.000000X2.100000*%
%ADD21O,1.000000X1.600000*%
%ADD22RoundRect,0.200000X0.300000X0.200000X-0.300000X0.200000X-0.300000X-0.200000X0.300000X-0.200000X0*%
%ADD23C,0.990600*%
%ADD24C,0.787400*%
%ADD25R,1.700000X1.700000*%
%ADD26O,1.700000X1.700000*%
%ADD27RoundRect,0.200000X-0.200000X-0.450000X0.200000X-0.450000X0.200000X0.450000X-0.200000X0.450000X0*%
%ADD28O,0.800000X1.300000*%
G04 APERTURE END LIST*
D10*
X61226047Y-78175369D02*
X61226047Y-78889655D01*
X61273666Y-79032512D01*
X61368904Y-79127750D01*
X61511761Y-79175369D01*
X61607000Y-79175369D01*
X60273666Y-79175369D02*
X60749857Y-79175369D01*
X60749857Y-78175369D01*
X59368904Y-79080131D02*
X59416523Y-79127750D01*
X59559380Y-79175369D01*
X59654619Y-79175369D01*
X59797476Y-79127750D01*
X59892714Y-79032512D01*
X59940333Y-78937274D01*
X59987952Y-78746798D01*
X59987952Y-78603941D01*
X59940333Y-78413465D01*
X59892714Y-78318227D01*
X59797476Y-78222989D01*
X59654619Y-78175369D01*
X59559380Y-78175369D01*
X59416523Y-78222989D01*
X59368904Y-78270608D01*
X58654619Y-78175369D02*
X58654619Y-78889655D01*
X58702238Y-79032512D01*
X58797476Y-79127750D01*
X58940333Y-79175369D01*
X59035571Y-79175369D01*
X57702238Y-79175369D02*
X58178428Y-79175369D01*
X58178428Y-78175369D01*
X56797476Y-79080131D02*
X56845095Y-79127750D01*
X56987952Y-79175369D01*
X57083190Y-79175369D01*
X57226047Y-79127750D01*
X57321285Y-79032512D01*
X57368904Y-78937274D01*
X57416523Y-78746798D01*
X57416523Y-78603941D01*
X57368904Y-78413465D01*
X57321285Y-78318227D01*
X57226047Y-78222989D01*
X57083190Y-78175369D01*
X56987952Y-78175369D01*
X56845095Y-78222989D01*
X56797476Y-78270608D01*
X56083190Y-78175369D02*
X56083190Y-78889655D01*
X56130809Y-79032512D01*
X56226047Y-79127750D01*
X56368904Y-79175369D01*
X56464142Y-79175369D01*
X55130809Y-79175369D02*
X55607000Y-79175369D01*
X55607000Y-78175369D01*
X54226047Y-79080131D02*
X54273666Y-79127750D01*
X54416523Y-79175369D01*
X54511761Y-79175369D01*
X54654619Y-79127750D01*
X54749857Y-79032512D01*
X54797476Y-78937274D01*
X54845095Y-78746798D01*
X54845095Y-78603941D01*
X54797476Y-78413465D01*
X54749857Y-78318227D01*
X54654619Y-78222989D01*
X54511761Y-78175369D01*
X54416523Y-78175369D01*
X54273666Y-78222989D01*
X54226047Y-78270608D01*
X53511761Y-78175369D02*
X53511761Y-78889655D01*
X53559380Y-79032512D01*
X53654619Y-79127750D01*
X53797476Y-79175369D01*
X53892714Y-79175369D01*
X52559380Y-79175369D02*
X53035571Y-79175369D01*
X53035571Y-78175369D01*
X51654619Y-79080131D02*
X51702238Y-79127750D01*
X51845095Y-79175369D01*
X51940333Y-79175369D01*
X52083190Y-79127750D01*
X52178428Y-79032512D01*
X52226047Y-78937274D01*
X52273666Y-78746798D01*
X52273666Y-78603941D01*
X52226047Y-78413465D01*
X52178428Y-78318227D01*
X52083190Y-78222989D01*
X51940333Y-78175369D01*
X51845095Y-78175369D01*
X51702238Y-78222989D01*
X51654619Y-78270608D01*
X65642833Y28901296D02*
X65642833Y28091772D01*
X65690452Y27996534D01*
X65738071Y27948915D01*
X65833309Y27901296D01*
X65976166Y27901296D01*
X66071404Y27948915D01*
X65642833Y28282249D02*
X65738071Y28234630D01*
X65928547Y28234630D01*
X66023785Y28282249D01*
X66071404Y28329868D01*
X66119023Y28425106D01*
X66119023Y28710820D01*
X66071404Y28806058D01*
X66023785Y28853677D01*
X65928547Y28901296D01*
X65738071Y28901296D01*
X65642833Y28853677D01*
X65166642Y28234630D02*
X65166642Y28901296D01*
X65166642Y29234630D02*
X65214261Y29187011D01*
X65166642Y29139391D01*
X65119023Y29187011D01*
X65166642Y29234630D01*
X65166642Y29139391D01*
X64833309Y28901296D02*
X64452357Y28901296D01*
X64690452Y29234630D02*
X64690452Y28377487D01*
X64642833Y28282249D01*
X64547595Y28234630D01*
X64452357Y28234630D01*
X64119023Y28234630D02*
X64119023Y29234630D01*
X63690452Y28234630D02*
X63690452Y28758439D01*
X63738071Y28853677D01*
X63833309Y28901296D01*
X63976166Y28901296D01*
X64071404Y28853677D01*
X64119023Y28806058D01*
X62785690Y28901296D02*
X62785690Y28234630D01*
X63214261Y28901296D02*
X63214261Y28377487D01*
X63166642Y28282249D01*
X63071404Y28234630D01*
X62928547Y28234630D01*
X62833309Y28282249D01*
X62785690Y28329868D01*
X62309500Y28234630D02*
X62309500Y29234630D01*
X62309500Y28853677D02*
X62214261Y28901296D01*
X62023785Y28901296D01*
X61928547Y28853677D01*
X61880928Y28806058D01*
X61833309Y28710820D01*
X61833309Y28425106D01*
X61880928Y28329868D01*
X61928547Y28282249D01*
X62023785Y28234630D01*
X62214261Y28234630D01*
X62309500Y28282249D01*
X61404738Y28329868D02*
X61357119Y28282249D01*
X61404738Y28234630D01*
X61452357Y28282249D01*
X61404738Y28329868D01*
X61404738Y28234630D01*
X60499976Y28282249D02*
X60595214Y28234630D01*
X60785690Y28234630D01*
X60880928Y28282249D01*
X60928547Y28329868D01*
X60976166Y28425106D01*
X60976166Y28710820D01*
X60928547Y28806058D01*
X60880928Y28853677D01*
X60785690Y28901296D01*
X60595214Y28901296D01*
X60499976Y28853677D01*
X59928547Y28234630D02*
X60023785Y28282249D01*
X60071404Y28329868D01*
X60119023Y28425106D01*
X60119023Y28710820D01*
X60071404Y28806058D01*
X60023785Y28853677D01*
X59928547Y28901296D01*
X59785690Y28901296D01*
X59690452Y28853677D01*
X59642833Y28806058D01*
X59595214Y28710820D01*
X59595214Y28425106D01*
X59642833Y28329868D01*
X59690452Y28282249D01*
X59785690Y28234630D01*
X59928547Y28234630D01*
X59166642Y28234630D02*
X59166642Y28901296D01*
X59166642Y28806058D02*
X59119023Y28853677D01*
X59023785Y28901296D01*
X58880928Y28901296D01*
X58785690Y28853677D01*
X58738071Y28758439D01*
X58738071Y28234630D01*
X58738071Y28758439D02*
X58690452Y28853677D01*
X58595214Y28901296D01*
X58452357Y28901296D01*
X58357119Y28853677D01*
X58309500Y28758439D01*
X58309500Y28234630D01*
X57119023Y29282249D02*
X57976166Y27996534D01*
X56404738Y28282249D02*
X56499976Y28234630D01*
X56690452Y28234630D01*
X56785690Y28282249D01*
X56833309Y28377487D01*
X56833309Y28758439D01*
X56785690Y28853677D01*
X56690452Y28901296D01*
X56499976Y28901296D01*
X56404738Y28853677D01*
X56357119Y28758439D01*
X56357119Y28663201D01*
X56833309Y28567963D01*
X55928547Y28234630D02*
X55928547Y29234630D01*
X55928547Y28853677D02*
X55833309Y28901296D01*
X55642833Y28901296D01*
X55547595Y28853677D01*
X55499976Y28806058D01*
X55452357Y28710820D01*
X55452357Y28425106D01*
X55499976Y28329868D01*
X55547595Y28282249D01*
X55642833Y28234630D01*
X55833309Y28234630D01*
X55928547Y28282249D01*
X54595214Y28234630D02*
X54595214Y28758439D01*
X54642833Y28853677D01*
X54738071Y28901296D01*
X54928547Y28901296D01*
X55023785Y28853677D01*
X54595214Y28282249D02*
X54690452Y28234630D01*
X54928547Y28234630D01*
X55023785Y28282249D01*
X55071404Y28377487D01*
X55071404Y28472725D01*
X55023785Y28567963D01*
X54928547Y28615582D01*
X54690452Y28615582D01*
X54595214Y28663201D01*
X54166642Y28282249D02*
X54071404Y28234630D01*
X53880928Y28234630D01*
X53785690Y28282249D01*
X53738071Y28377487D01*
X53738071Y28425106D01*
X53785690Y28520344D01*
X53880928Y28567963D01*
X54023785Y28567963D01*
X54119023Y28615582D01*
X54166642Y28710820D01*
X54166642Y28758439D01*
X54119023Y28853677D01*
X54023785Y28901296D01*
X53880928Y28901296D01*
X53785690Y28853677D01*
X53452357Y28901296D02*
X53071404Y28901296D01*
X53309500Y29234630D02*
X53309500Y28377487D01*
X53261880Y28282249D01*
X53166642Y28234630D01*
X53071404Y28234630D01*
X52595214Y28234630D02*
X52690452Y28282249D01*
X52738071Y28377487D01*
X52738071Y29234630D01*
X51833309Y28282249D02*
X51928547Y28234630D01*
X52119023Y28234630D01*
X52214261Y28282249D01*
X52261880Y28377487D01*
X52261880Y28758439D01*
X52214261Y28853677D01*
X52119023Y28901296D01*
X51928547Y28901296D01*
X51833309Y28853677D01*
X51785690Y28758439D01*
X51785690Y28663201D01*
X52261880Y28567963D01*
X51357119Y28234630D02*
X51357119Y28901296D01*
X51357119Y28710820D02*
X51309500Y28806058D01*
X51261880Y28853677D01*
X51166642Y28901296D01*
X51071404Y28901296D01*
X50023785Y29282249D02*
X50880928Y27996534D01*
X49785690Y28901296D02*
X49595214Y28234630D01*
X49404738Y28710820D01*
X49214261Y28234630D01*
X49023785Y28901296D01*
X48499976Y28234630D02*
X48595214Y28282249D01*
X48642833Y28377487D01*
X48642833Y29234630D01*
X48119023Y28901296D02*
X48119023Y27901296D01*
X48119023Y28853677D02*
X48023785Y28901296D01*
X47833309Y28901296D01*
X47738071Y28853677D01*
X47690452Y28806058D01*
X47642833Y28710820D01*
X47642833Y28425106D01*
X47690452Y28329868D01*
X47738071Y28282249D01*
X47833309Y28234630D01*
X48023785Y28234630D01*
X48119023Y28282249D01*
X46785690Y28234630D02*
X46785690Y28758439D01*
X46833309Y28853677D01*
X46928547Y28901296D01*
X47119023Y28901296D01*
X47214261Y28853677D01*
X46785690Y28282249D02*
X46880928Y28234630D01*
X47119023Y28234630D01*
X47214261Y28282249D01*
X47261880Y28377487D01*
X47261880Y28472725D01*
X47214261Y28567963D01*
X47119023Y28615582D01*
X46880928Y28615582D01*
X46785690Y28663201D01*
X45880928Y28234630D02*
X45880928Y29234630D01*
X45880928Y28282249D02*
X45976166Y28234630D01*
X46166642Y28234630D01*
X46261880Y28282249D01*
X46309500Y28329868D01*
X46357119Y28425106D01*
X46357119Y28710820D01*
X46309500Y28806058D01*
X46261880Y28853677D01*
X46166642Y28901296D01*
X45976166Y28901296D01*
X45880928Y28853677D01*
X66071404Y26624630D02*
X66071404Y27291296D01*
X66071404Y27196058D02*
X66023785Y27243677D01*
X65928547Y27291296D01*
X65785690Y27291296D01*
X65690452Y27243677D01*
X65642833Y27148439D01*
X65642833Y26624630D01*
X65642833Y27148439D02*
X65595214Y27243677D01*
X65499976Y27291296D01*
X65357119Y27291296D01*
X65261880Y27243677D01*
X65214261Y27148439D01*
X65214261Y26624630D01*
X64738071Y27291296D02*
X64738071Y26291296D01*
X64738071Y27243677D02*
X64642833Y27291296D01*
X64452357Y27291296D01*
X64357119Y27243677D01*
X64309500Y27196058D01*
X64261880Y27100820D01*
X64261880Y26815106D01*
X64309500Y26719868D01*
X64357119Y26672249D01*
X64452357Y26624630D01*
X64642833Y26624630D01*
X64738071Y26672249D01*
X63928547Y27291296D02*
X63738071Y26624630D01*
X63547595Y27100820D01*
X63357119Y26624630D01*
X63166642Y27291296D01*
X62785690Y26624630D02*
X62785690Y27291296D01*
X62785690Y27100820D02*
X62738071Y27196058D01*
X62690452Y27243677D01*
X62595214Y27291296D01*
X62499976Y27291296D01*
X62166642Y26719868D02*
X62119023Y26672249D01*
X62166642Y26624630D01*
X62214261Y26672249D01*
X62166642Y26719868D01*
X62166642Y26624630D01*
X61785690Y26624630D02*
X61261880Y27291296D01*
X61785690Y27291296D02*
X61261880Y26624630D01*
X60976166Y27291296D02*
X60738071Y26624630D01*
X60499976Y27291296D02*
X60738071Y26624630D01*
X60833309Y26386534D01*
X60880928Y26338915D01*
X60976166Y26291296D01*
X60214261Y27291296D02*
X59690452Y27291296D01*
X60214261Y26624630D01*
X59690452Y26624630D01*
X66071404Y25014630D02*
X66071404Y25681296D01*
X66071404Y25490820D02*
X66023785Y25586058D01*
X65976166Y25633677D01*
X65880928Y25681296D01*
X65785690Y25681296D01*
X65023785Y25062249D02*
X65119023Y25014630D01*
X65309500Y25014630D01*
X65404738Y25062249D01*
X65452357Y25109868D01*
X65499976Y25205106D01*
X65499976Y25490820D01*
X65452357Y25586058D01*
X65404738Y25633677D01*
X65309500Y25681296D01*
X65119023Y25681296D01*
X65023785Y25633677D01*
X64071404Y25014630D02*
X64642833Y25014630D01*
X64357119Y25014630D02*
X64357119Y26014630D01*
X64452357Y25871772D01*
X64547595Y25776534D01*
X64642833Y25728915D01*
X63642833Y25109868D02*
X63595214Y25062249D01*
X63642833Y25014630D01*
X63690452Y25062249D01*
X63642833Y25109868D01*
X63642833Y25014630D01*
X62976166Y26014630D02*
X62880928Y26014630D01*
X62785690Y25967011D01*
X62738071Y25919391D01*
X62690452Y25824153D01*
X62642833Y25633677D01*
X62642833Y25395582D01*
X62690452Y25205106D01*
X62738071Y25109868D01*
X62785690Y25062249D01*
X62880928Y25014630D01*
X62976166Y25014630D01*
X63071404Y25062249D01*
X63119023Y25109868D01*
X63166642Y25205106D01*
X63214261Y25395582D01*
X63214261Y25633677D01*
X63166642Y25824153D01*
X63119023Y25919391D01*
X63071404Y25967011D01*
X62976166Y26014630D01*
X60044153Y-14336011D02*
X59901296Y-14383630D01*
X59663201Y-14383630D01*
X59567963Y-14336011D01*
X59520344Y-14288392D01*
X59472725Y-14193154D01*
X59472725Y-14097916D01*
X59520344Y-14002678D01*
X59567963Y-13955059D01*
X59663201Y-13907440D01*
X59853677Y-13859821D01*
X59948915Y-13812202D01*
X59996534Y-13764583D01*
X60044153Y-13669345D01*
X60044153Y-13574107D01*
X59996534Y-13478869D01*
X59948915Y-13431250D01*
X59853677Y-13383630D01*
X59615582Y-13383630D01*
X59472725Y-13431250D01*
X59139391Y-13383630D02*
X58901296Y-14383630D01*
X58710820Y-13669345D01*
X58520344Y-14383630D01*
X58282249Y-13383630D01*
X57901296Y-14383630D02*
X57901296Y-13383630D01*
X57663201Y-13383630D01*
X57520344Y-13431250D01*
X57425106Y-13526488D01*
X57377487Y-13621726D01*
X57329868Y-13812202D01*
X57329868Y-13955059D01*
X57377487Y-14145535D01*
X57425106Y-14240773D01*
X57520344Y-14336011D01*
X57663201Y-14383630D01*
X57901296Y-14383630D01*
X10061000Y10305500D02*
X10061000Y9505500D01*
X11010714Y9657880D02*
X11048809Y9695976D01*
X11086904Y9810261D01*
X11086904Y9886452D01*
X11048809Y10000738D01*
X10972619Y10076928D01*
X10896428Y10115023D01*
X10744047Y10153119D01*
X10629761Y10153119D01*
X10477380Y10115023D01*
X10401190Y10076928D01*
X10325000Y10000738D01*
X10286904Y9886452D01*
X10286904Y9810261D01*
X10325000Y9695976D01*
X10363095Y9657880D01*
X10061000Y9505500D02*
X10061000Y8667404D01*
X11086904Y9315023D02*
X10286904Y9315023D01*
X10667857Y9315023D02*
X10667857Y8857880D01*
X11086904Y8857880D02*
X10286904Y8857880D01*
X10061000Y8667404D02*
X10061000Y7867404D01*
X10325000Y8057880D02*
X10286904Y8134071D01*
X10286904Y8248357D01*
X10325000Y8362642D01*
X10401190Y8438833D01*
X10477380Y8476928D01*
X10629761Y8515023D01*
X10744047Y8515023D01*
X10896428Y8476928D01*
X10972619Y8438833D01*
X11048809Y8362642D01*
X11086904Y8248357D01*
X11086904Y8172166D01*
X11048809Y8057880D01*
X11010714Y8019785D01*
X10744047Y8019785D01*
X10744047Y8172166D01*
X8548809Y10153119D02*
X8586904Y10038833D01*
X8586904Y9848357D01*
X8548809Y9772166D01*
X8510714Y9734071D01*
X8434523Y9695976D01*
X8358333Y9695976D01*
X8282142Y9734071D01*
X8244047Y9772166D01*
X8205952Y9848357D01*
X8167857Y10000738D01*
X8129761Y10076928D01*
X8091666Y10115023D01*
X8015476Y10153119D01*
X7939285Y10153119D01*
X7863095Y10115023D01*
X7825000Y10076928D01*
X7786904Y10000738D01*
X7786904Y9810261D01*
X7825000Y9695976D01*
X8510714Y8895976D02*
X8548809Y8934071D01*
X8586904Y9048357D01*
X8586904Y9124547D01*
X8548809Y9238833D01*
X8472619Y9315023D01*
X8396428Y9353119D01*
X8244047Y9391214D01*
X8129761Y9391214D01*
X7977380Y9353119D01*
X7901190Y9315023D01*
X7825000Y9238833D01*
X7786904Y9124547D01*
X7786904Y9048357D01*
X7825000Y8934071D01*
X7863095Y8895976D01*
X8586904Y8172166D02*
X8586904Y8553119D01*
X7786904Y8553119D01*
X11536904Y10229309D02*
X12336904Y9962642D01*
X11536904Y9695976D01*
X12336904Y9429309D02*
X11536904Y9429309D01*
X11536904Y9238833D01*
X11575000Y9124547D01*
X11651190Y9048357D01*
X11727380Y9010261D01*
X11879761Y8972166D01*
X11994047Y8972166D01*
X12146428Y9010261D01*
X12222619Y9048357D01*
X12298809Y9124547D01*
X12336904Y9238833D01*
X12336904Y9429309D01*
X12336904Y8629309D02*
X11536904Y8629309D01*
X11536904Y8438833D01*
X11575000Y8324547D01*
X11651190Y8248357D01*
X11727380Y8210261D01*
X11879761Y8172166D01*
X11994047Y8172166D01*
X12146428Y8210261D01*
X12222619Y8248357D01*
X12298809Y8324547D01*
X12336904Y8438833D01*
X12336904Y8629309D01*
X12336904Y7829309D02*
X11536904Y7829309D01*
X11917857Y7829309D02*
X11917857Y7372166D01*
X12336904Y7372166D02*
X11536904Y7372166D01*
X65142619Y21066369D02*
X65475952Y21542559D01*
X65714047Y21066369D02*
X65714047Y22066369D01*
X65333095Y22066369D01*
X65237857Y22018750D01*
X65190238Y21971130D01*
X65142619Y21875892D01*
X65142619Y21733035D01*
X65190238Y21637797D01*
X65237857Y21590178D01*
X65333095Y21542559D01*
X65714047Y21542559D01*
X64761666Y21113988D02*
X64618809Y21066369D01*
X64380714Y21066369D01*
X64285476Y21113988D01*
X64237857Y21161607D01*
X64190238Y21256845D01*
X64190238Y21352083D01*
X64237857Y21447321D01*
X64285476Y21494940D01*
X64380714Y21542559D01*
X64571190Y21590178D01*
X64666428Y21637797D01*
X64714047Y21685416D01*
X64761666Y21780654D01*
X64761666Y21875892D01*
X64714047Y21971130D01*
X64666428Y22018750D01*
X64571190Y22066369D01*
X64333095Y22066369D01*
X64190238Y22018750D01*
X63904523Y22066369D02*
X63333095Y22066369D01*
X63618809Y21066369D02*
X63618809Y22066369D01*
X17917857Y9848357D02*
X17955952Y9734071D01*
X17994047Y9695976D01*
X18070238Y9657880D01*
X18184523Y9657880D01*
X18260714Y9695976D01*
X18298809Y9734071D01*
X18336904Y9810261D01*
X18336904Y10115023D01*
X17536904Y10115023D01*
X17536904Y9848357D01*
X17575000Y9772166D01*
X17613095Y9734071D01*
X17689285Y9695976D01*
X17765476Y9695976D01*
X17841666Y9734071D01*
X17879761Y9772166D01*
X17917857Y9848357D01*
X17917857Y10115023D01*
X18108333Y9353119D02*
X18108333Y8972166D01*
X18336904Y9429309D02*
X17536904Y9162642D01*
X18336904Y8895976D01*
X17536904Y8743595D02*
X17536904Y8286452D01*
X18336904Y8515023D02*
X17536904Y8515023D01*
X18032142Y8019785D02*
X18032142Y7410261D01*
X7298809Y10153119D02*
X7336904Y10038833D01*
X7336904Y9848357D01*
X7298809Y9772166D01*
X7260714Y9734071D01*
X7184523Y9695976D01*
X7108333Y9695976D01*
X7032142Y9734071D01*
X6994047Y9772166D01*
X6955952Y9848357D01*
X6917857Y10000738D01*
X6879761Y10076928D01*
X6841666Y10115023D01*
X6765476Y10153119D01*
X6689285Y10153119D01*
X6613095Y10115023D01*
X6575000Y10076928D01*
X6536904Y10000738D01*
X6536904Y9810261D01*
X6575000Y9695976D01*
X7336904Y9353119D02*
X6536904Y9353119D01*
X6536904Y9162642D01*
X6575000Y9048357D01*
X6651190Y8972166D01*
X6727380Y8934071D01*
X6879761Y8895976D01*
X6994047Y8895976D01*
X7146428Y8934071D01*
X7222619Y8972166D01*
X7298809Y9048357D01*
X7336904Y9162642D01*
X7336904Y9353119D01*
X7108333Y8591214D02*
X7108333Y8210261D01*
X7336904Y8667404D02*
X6536904Y8400738D01*
X7336904Y8134071D01*
X5325000Y9695976D02*
X5286904Y9772166D01*
X5286904Y9886452D01*
X5325000Y10000738D01*
X5401190Y10076928D01*
X5477380Y10115023D01*
X5629761Y10153119D01*
X5744047Y10153119D01*
X5896428Y10115023D01*
X5972619Y10076928D01*
X6048809Y10000738D01*
X6086904Y9886452D01*
X6086904Y9810261D01*
X6048809Y9695976D01*
X6010714Y9657880D01*
X5744047Y9657880D01*
X5744047Y9810261D01*
X6086904Y9315023D02*
X5286904Y9315023D01*
X6086904Y8857880D01*
X5286904Y8857880D01*
X6086904Y8476928D02*
X5286904Y8476928D01*
X5286904Y8286452D01*
X5325000Y8172166D01*
X5401190Y8095976D01*
X5477380Y8057880D01*
X5629761Y8019785D01*
X5744047Y8019785D01*
X5896428Y8057880D01*
X5972619Y8095976D01*
X6048809Y8172166D01*
X6086904Y8286452D01*
X6086904Y8476928D01*
X12786904Y10229309D02*
X13586904Y9962642D01*
X12786904Y9695976D01*
X13548809Y9467404D02*
X13586904Y9353119D01*
X13586904Y9162642D01*
X13548809Y9086452D01*
X13510714Y9048357D01*
X13434523Y9010261D01*
X13358333Y9010261D01*
X13282142Y9048357D01*
X13244047Y9086452D01*
X13205952Y9162642D01*
X13167857Y9315023D01*
X13129761Y9391214D01*
X13091666Y9429309D01*
X13015476Y9467404D01*
X12939285Y9467404D01*
X12863095Y9429309D01*
X12825000Y9391214D01*
X12786904Y9315023D01*
X12786904Y9124547D01*
X12825000Y9010261D01*
X12786904Y8743595D02*
X13586904Y8553119D01*
X13015476Y8400738D01*
X13586904Y8248357D01*
X12786904Y8057880D01*
X9836904Y10115023D02*
X9036904Y10115023D01*
X9036904Y9810261D01*
X9075000Y9734071D01*
X9113095Y9695976D01*
X9189285Y9657880D01*
X9303571Y9657880D01*
X9379761Y9695976D01*
X9417857Y9734071D01*
X9455952Y9810261D01*
X9455952Y10115023D01*
X9836904Y8895976D02*
X9836904Y9353119D01*
X9836904Y9124547D02*
X9036904Y9124547D01*
X9151190Y9200738D01*
X9227380Y9276928D01*
X9265476Y9353119D01*
X9760714Y8553119D02*
X9798809Y8515023D01*
X9836904Y8553119D01*
X9798809Y8591214D01*
X9760714Y8553119D01*
X9836904Y8553119D01*
X9036904Y8019785D02*
X9036904Y7943595D01*
X9075000Y7867404D01*
X9113095Y7829309D01*
X9189285Y7791214D01*
X9341666Y7753119D01*
X9532142Y7753119D01*
X9684523Y7791214D01*
X9760714Y7829309D01*
X9798809Y7867404D01*
X9836904Y7943595D01*
X9836904Y8019785D01*
X9798809Y8095976D01*
X9760714Y8134071D01*
X9684523Y8172166D01*
X9532142Y8210261D01*
X9341666Y8210261D01*
X9189285Y8172166D01*
X9113095Y8134071D01*
X9075000Y8095976D01*
X9036904Y8019785D01*
X9836904Y7372166D02*
X9836904Y7219785D01*
X9798809Y7143595D01*
X9760714Y7105500D01*
X9646428Y7029309D01*
X9494047Y6991214D01*
X9189285Y6991214D01*
X9113095Y7029309D01*
X9075000Y7067404D01*
X9036904Y7143595D01*
X9036904Y7295976D01*
X9075000Y7372166D01*
X9113095Y7410261D01*
X9189285Y7448357D01*
X9379761Y7448357D01*
X9455952Y7410261D01*
X9494047Y7372166D01*
X9532142Y7295976D01*
X9532142Y7143595D01*
X9494047Y7067404D01*
X9455952Y7029309D01*
X9379761Y6991214D01*
X19167857Y9848357D02*
X19205952Y9734071D01*
X19244047Y9695976D01*
X19320238Y9657880D01*
X19434523Y9657880D01*
X19510714Y9695976D01*
X19548809Y9734071D01*
X19586904Y9810261D01*
X19586904Y10115023D01*
X18786904Y10115023D01*
X18786904Y9848357D01*
X18825000Y9772166D01*
X18863095Y9734071D01*
X18939285Y9695976D01*
X19015476Y9695976D01*
X19091666Y9734071D01*
X19129761Y9772166D01*
X19167857Y9848357D01*
X19167857Y10115023D01*
X19358333Y9353119D02*
X19358333Y8972166D01*
X19586904Y9429309D02*
X18786904Y9162642D01*
X19586904Y8895976D01*
X18786904Y8743595D02*
X18786904Y8286452D01*
X19586904Y8515023D02*
X18786904Y8515023D01*
X19282142Y8019785D02*
X19282142Y7410261D01*
X19586904Y7715023D02*
X18977380Y7715023D01*
%TO.C,J3*%
X9808333Y18118619D02*
X9808333Y17404333D01*
X9855952Y17261476D01*
X9951190Y17166238D01*
X10094047Y17118619D01*
X10189285Y17118619D01*
X9427380Y18118619D02*
X8808333Y18118619D01*
X9141666Y17737666D01*
X8998809Y17737666D01*
X8903571Y17690047D01*
X8855952Y17642428D01*
X8808333Y17547190D01*
X8808333Y17309095D01*
X8855952Y17213857D01*
X8903571Y17166238D01*
X8998809Y17118619D01*
X9284523Y17118619D01*
X9379761Y17166238D01*
X9427380Y17213857D01*
%TO.C,J2*%
X18933333Y18118619D02*
X18933333Y17404333D01*
X18980952Y17261476D01*
X19076190Y17166238D01*
X19219047Y17118619D01*
X19314285Y17118619D01*
X18504761Y18023380D02*
X18457142Y18071000D01*
X18361904Y18118619D01*
X18123809Y18118619D01*
X18028571Y18071000D01*
X17980952Y18023380D01*
X17933333Y17928142D01*
X17933333Y17832904D01*
X17980952Y17690047D01*
X18552380Y17118619D01*
X17933333Y17118619D01*
%TO.C,G\u002A\u002A\u002A*%
G36*
X2300936Y25408124D02*
G01*
X2205549Y24974867D01*
X2072398Y24551453D01*
X1902101Y24140686D01*
X1695281Y23745372D01*
X1452556Y23368313D01*
X1174547Y23012314D01*
X861874Y22680180D01*
X515158Y22374713D01*
X440668Y22316320D01*
X73201Y22061280D01*
X-321065Y21838016D01*
X-736179Y21648998D01*
X-1166193Y21496691D01*
X-1605157Y21383564D01*
X-2047123Y21312083D01*
X-2113326Y21305763D01*
X-2267851Y21296506D01*
X-2446018Y21291167D01*
X-2634225Y21289780D01*
X-2818867Y21292373D01*
X-2986342Y21298980D01*
X-3123045Y21309629D01*
X-3561538Y21376511D01*
X-4014225Y21487601D01*
X-4450601Y21638337D01*
X-4868414Y21827141D01*
X-5265415Y22052438D01*
X-5639352Y22312654D01*
X-5987975Y22606212D01*
X-6309033Y22931538D01*
X-6600274Y23287055D01*
X-6859449Y23671188D01*
X-7084307Y24082362D01*
X-7248755Y24459025D01*
X-7394716Y24895514D01*
X-7499257Y25342108D01*
X-7562386Y25795478D01*
X-7584112Y26252297D01*
X-7576336Y26432976D01*
X-7278884Y26432976D01*
X-7264596Y26115476D01*
X-7264404Y26111250D01*
X-7256130Y25971157D01*
X-7244356Y25823825D01*
X-7230623Y25686516D01*
X-7216473Y25576492D01*
X-7166925Y25312815D01*
X-7095514Y25028287D01*
X-7008101Y24747080D01*
X-6908964Y24482904D01*
X-6802379Y24249467D01*
X-6717157Y24082362D01*
X-6716043Y24368805D01*
X-6715954Y24486201D01*
X-6717650Y24567986D01*
X-6722470Y24621749D01*
X-6731748Y24655779D01*
X-6746819Y24678364D01*
X-6769018Y24697793D01*
X-6812884Y24743532D01*
X-6854202Y24832159D01*
X-6860617Y24904320D01*
X-6659228Y24904320D01*
X-6658432Y24883181D01*
X-6643858Y24846715D01*
X-6601619Y24833209D01*
X-6574084Y24833090D01*
X-6523027Y24855172D01*
X-6497410Y24898131D01*
X-6502172Y24948638D01*
X-6542254Y24993369D01*
X-6558527Y25001448D01*
X-6607606Y25000693D01*
X-6644606Y24965703D01*
X-6659228Y24904320D01*
X-6860617Y24904320D01*
X-6863057Y24931767D01*
X-6839071Y25030098D01*
X-6781867Y25114891D01*
X-6760650Y25134178D01*
X-6669041Y25184852D01*
X-6570249Y25198440D01*
X-6474324Y25176734D01*
X-6391319Y25121525D01*
X-6331283Y25034603D01*
X-6322367Y25013086D01*
X-6299300Y24905553D01*
X-6300784Y24898131D01*
X-6318737Y24808312D01*
X-6381429Y24716602D01*
X-6447561Y24645807D01*
X-6447561Y23622977D01*
X-6310160Y23440477D01*
X-6301848Y23429545D01*
X-6208149Y23315570D01*
X-6089457Y23183487D01*
X-5954585Y23042106D01*
X-5812345Y22900240D01*
X-5671549Y22766701D01*
X-5541008Y22650301D01*
X-5429534Y22559851D01*
X-5374237Y22518652D01*
X-5305728Y22468997D01*
X-5256486Y22435034D01*
X-5234578Y22422450D01*
X-5232022Y22426612D01*
X-5226951Y22463609D01*
X-5223437Y22530658D01*
X-5222123Y22617685D01*
X-5222123Y22812919D01*
X-5556333Y23146573D01*
X-5890544Y23480226D01*
X-5890544Y24996540D01*
X-6163804Y25269144D01*
X-6261243Y25365942D01*
X-6335724Y25437975D01*
X-6390623Y25487054D01*
X-6431903Y25517576D01*
X-6465528Y25533935D01*
X-6497460Y25540527D01*
X-6533664Y25541748D01*
X-6590707Y25545572D01*
X-6646693Y25566883D01*
X-6704260Y25615745D01*
X-6711885Y25623573D01*
X-6775946Y25718397D01*
X-6792111Y25797724D01*
X-6603944Y25797724D01*
X-6576789Y25746731D01*
X-6561187Y25734859D01*
X-6514403Y25719994D01*
X-6489230Y25723892D01*
X-6446849Y25755319D01*
X-6426874Y25805322D01*
X-6433229Y25858197D01*
X-6469842Y25898239D01*
X-6518680Y25909526D01*
X-6566587Y25890884D01*
X-6597776Y25849696D01*
X-6603944Y25797724D01*
X-6792111Y25797724D01*
X-6796797Y25820720D01*
X-6773776Y25927571D01*
X-6737250Y25989776D01*
X-6660551Y26056389D01*
X-6565532Y26091389D01*
X-6462727Y26091547D01*
X-6362668Y26053633D01*
X-6336904Y26035053D01*
X-6275209Y25962058D01*
X-6236655Y25872554D01*
X-6231523Y25805322D01*
X-6229905Y25784125D01*
X-6230821Y25769308D01*
X-6225094Y25742920D01*
X-6206924Y25709960D01*
X-6172373Y25665566D01*
X-6117504Y25604877D01*
X-6038380Y25523032D01*
X-5931064Y25415171D01*
X-5623175Y25107871D01*
X-5623175Y23591610D01*
X-5300105Y23269117D01*
X-4977035Y22946623D01*
X-4977035Y22248337D01*
X-4756132Y22134867D01*
X-4678319Y22095320D01*
X-4600996Y22057016D01*
X-4546102Y22030993D01*
X-4522185Y22021397D01*
X-4521757Y22021728D01*
X-4518400Y22048117D01*
X-4515385Y22112714D01*
X-4512832Y22209859D01*
X-4510860Y22333890D01*
X-4509590Y22479146D01*
X-4509140Y22639965D01*
X-4509140Y23258533D01*
X-4843351Y23592187D01*
X-5177561Y23925840D01*
X-5177561Y25240655D01*
X-5773415Y25836815D01*
X-6369269Y26432976D01*
X-7278884Y26432976D01*
X-7576336Y26432976D01*
X-7564446Y26709237D01*
X-7561224Y26733184D01*
X-7241436Y26733184D01*
X-7237790Y26699154D01*
X-7235209Y26697377D01*
X-7198902Y26691025D01*
X-7124855Y26685693D01*
X-7018487Y26681605D01*
X-6885217Y26678987D01*
X-6730462Y26678064D01*
X-6236168Y26678064D01*
X-5573181Y26015352D01*
X-4910193Y25352641D01*
X-4910193Y24037224D01*
X-4264633Y23392816D01*
X-4263577Y23258533D01*
X-4258772Y22647195D01*
X-4252912Y21901573D01*
X-3906534Y21789201D01*
X-3656041Y22038983D01*
X-3507127Y22187475D01*
X-1473552Y22187475D01*
X-1473532Y22137579D01*
X-1443401Y22095058D01*
X-1416867Y22077665D01*
X-1389842Y22065959D01*
X-1373671Y22071768D01*
X-1336283Y22095058D01*
X-1326943Y22103228D01*
X-1305024Y22152407D01*
X-1313578Y22208651D01*
X-1350851Y22252955D01*
X-1364241Y22259775D01*
X-1411776Y22260737D01*
X-1450590Y22232582D01*
X-1473552Y22187475D01*
X-3507127Y22187475D01*
X-3405548Y22288766D01*
X-1673751Y22288766D01*
X-1587434Y22366748D01*
X-1526127Y22415520D01*
X-1470303Y22438899D01*
X-1399812Y22444731D01*
X-1376898Y22443992D01*
X-1298202Y22432756D01*
X-1235775Y22412291D01*
X-1213028Y22397377D01*
X-1157800Y22335914D01*
X-1116459Y22256650D01*
X-1100193Y22178849D01*
X-1102125Y22152407D01*
X-1102832Y22142727D01*
X-1136640Y22045380D01*
X-1202004Y21964168D01*
X-1289534Y21908524D01*
X-1389842Y21887880D01*
X-1453230Y21897645D01*
X-1528193Y21926845D01*
X-1591518Y21967229D01*
X-1626921Y22010384D01*
X-1634068Y22018455D01*
X-1653089Y22025718D01*
X-1687808Y22031475D01*
X-1742349Y22035893D01*
X-1820835Y22039137D01*
X-1927388Y22041372D01*
X-2066133Y22042763D01*
X-2241191Y22043477D01*
X-2456687Y22043678D01*
X-3273676Y22043678D01*
X-3437331Y21878924D01*
X-3503487Y21812673D01*
X-3549499Y21762436D01*
X-3567345Y21728234D01*
X-3553913Y21705139D01*
X-3506093Y21688223D01*
X-3420773Y21672556D01*
X-3294842Y21653211D01*
X-3249485Y21647041D01*
X-3140112Y21635969D01*
X-3007752Y21625976D01*
X-2862033Y21617459D01*
X-2712579Y21610817D01*
X-2569016Y21606445D01*
X-2440969Y21604740D01*
X-2338065Y21606101D01*
X-2269930Y21610924D01*
X-2250610Y21613516D01*
X-2183203Y21621970D01*
X-2092118Y21632946D01*
X-1991421Y21644734D01*
X-1944940Y21650667D01*
X-1766649Y21681068D01*
X-1566315Y21724715D01*
X-1358397Y21777982D01*
X-1157355Y21837244D01*
X-977649Y21898876D01*
X-885660Y21934511D01*
X-478087Y22120756D01*
X-93366Y22343429D01*
X266483Y22600042D01*
X599443Y22888110D01*
X903495Y23205147D01*
X1176622Y23548666D01*
X1416806Y23916182D01*
X1622027Y24305209D01*
X1790269Y24713260D01*
X1919513Y25137850D01*
X2007741Y25576492D01*
X2012722Y25609071D01*
X2030869Y25725755D01*
X2039877Y25806213D01*
X2035239Y25857105D01*
X2012450Y25885093D01*
X1967006Y25896837D01*
X1894401Y25898999D01*
X1790131Y25898239D01*
X1538875Y25898239D01*
X1389078Y25747285D01*
X1239281Y25596332D01*
X1239281Y25123208D01*
X1239339Y25024276D01*
X1239931Y24890910D01*
X1241614Y24792427D01*
X1244938Y24722772D01*
X1250451Y24675889D01*
X1258699Y24645721D01*
X1270232Y24626214D01*
X1285597Y24611311D01*
X1333276Y24560357D01*
X1379097Y24469038D01*
X1394000Y24372011D01*
X1394396Y24369431D01*
X1379687Y24272178D01*
X1335481Y24187921D01*
X1262291Y24127301D01*
X1243716Y24118817D01*
X1153011Y24097630D01*
X1056520Y24099146D01*
X976140Y24123645D01*
X926286Y24159950D01*
X868458Y24239751D01*
X841822Y24334698D01*
X842619Y24350331D01*
X1024519Y24350331D01*
X1050412Y24315739D01*
X1083411Y24286963D01*
X1118599Y24271748D01*
X1160456Y24289038D01*
X1199705Y24328896D01*
X1217000Y24372011D01*
X1200471Y24414311D01*
X1160297Y24454615D01*
X1115659Y24472274D01*
X1083371Y24456285D01*
X1047472Y24416002D01*
X1026526Y24380494D01*
X1024519Y24350331D01*
X842619Y24350331D01*
X846879Y24433914D01*
X884132Y24526524D01*
X954083Y24601652D01*
X963812Y24610350D01*
X974190Y24627831D01*
X981911Y24657020D01*
X987363Y24703393D01*
X990931Y24772425D01*
X993001Y24869591D01*
X993960Y25000367D01*
X994193Y25170228D01*
X994193Y25709689D01*
X1211829Y25926508D01*
X1429464Y26143327D01*
X2070530Y26143327D01*
X2055693Y26454124D01*
X2053996Y26488235D01*
X2047397Y26600624D01*
X2040298Y26696095D01*
X2033449Y26765447D01*
X2027597Y26799475D01*
X2025014Y26804428D01*
X2010508Y26815356D01*
X1980371Y26823259D01*
X1928819Y26828585D01*
X1850065Y26831785D01*
X1738327Y26833306D01*
X1587818Y26833598D01*
X1161299Y26833166D01*
X843799Y26530817D01*
X526299Y26228467D01*
X526299Y23636385D01*
X19235Y23129681D01*
X-394270Y22716469D01*
X-487829Y22622976D01*
X-2976499Y22622976D01*
X-3019045Y22568887D01*
X-3032119Y22554229D01*
X-3105798Y22504347D01*
X-3197053Y22475624D01*
X-3285601Y22475189D01*
X-3360032Y22499126D01*
X-3441404Y22560883D01*
X-3497243Y22658205D01*
X-3511023Y22695717D01*
X-3523237Y22746960D01*
X-3522542Y22753402D01*
X-3324850Y22753402D01*
X-3305094Y22699888D01*
X-3287450Y22684885D01*
X-3238367Y22669226D01*
X-3188734Y22674140D01*
X-3158574Y22699657D01*
X-3153518Y22716469D01*
X-3156027Y22774787D01*
X-3184036Y22820602D01*
X-3227940Y22843268D01*
X-3278131Y22832141D01*
X-3306118Y22806874D01*
X-3324850Y22753402D01*
X-3522542Y22753402D01*
X-3518158Y22794007D01*
X-3495602Y22859412D01*
X-3465928Y22923568D01*
X-3424182Y22969580D01*
X-3356610Y23006288D01*
X-3335616Y23014970D01*
X-3224091Y23038358D01*
X-3123467Y23018561D01*
X-3033547Y22955548D01*
X-2968344Y22890345D01*
X-576156Y22890345D01*
X-158613Y23308322D01*
X258930Y23726300D01*
X258930Y26338729D01*
X651781Y26708923D01*
X1044631Y27079117D01*
X1974544Y27079117D01*
X1974402Y27129248D01*
X1974131Y27136486D01*
X1964861Y27197357D01*
X1944290Y27289424D01*
X1914988Y27403444D01*
X1879522Y27530173D01*
X1840462Y27660368D01*
X1800376Y27784784D01*
X1761833Y27894180D01*
X1734495Y27964974D01*
X1638799Y28187022D01*
X1527662Y28414052D01*
X1407562Y28633989D01*
X1284973Y28834760D01*
X1166374Y29004290D01*
X1090639Y29103478D01*
X808469Y28820681D01*
X717252Y28728859D01*
X640859Y28650076D01*
X588063Y28591758D01*
X554533Y28548201D01*
X535936Y28513703D01*
X527941Y28482560D01*
X526215Y28449070D01*
X525355Y28436711D01*
X523484Y28409779D01*
X490122Y28308391D01*
X425402Y28225338D01*
X337643Y28169208D01*
X235162Y28148590D01*
X206407Y28151206D01*
X125753Y28178520D01*
X51103Y28226571D01*
X1721Y28284172D01*
X-16290Y28328108D01*
X-31024Y28425794D01*
X148187Y28425794D01*
X174263Y28375853D01*
X177283Y28372994D01*
X228586Y28350822D01*
X284785Y28357931D01*
X324908Y28392064D01*
X338326Y28436711D01*
X321441Y28487889D01*
X267324Y28518902D01*
X249481Y28521955D01*
X193703Y28511001D01*
X157303Y28474896D01*
X148187Y28425794D01*
X-31024Y28425794D01*
X-31694Y28430233D01*
X-17283Y28530915D01*
X25712Y28613288D01*
X69506Y28654258D01*
X141929Y28697192D01*
X215802Y28720588D01*
X275310Y28717820D01*
X277251Y28717257D01*
X303064Y28724475D01*
X347349Y28754987D01*
X412966Y28811225D01*
X502778Y28895623D01*
X619645Y29010613D01*
X927157Y29317536D01*
X754938Y29490772D01*
X582719Y29664007D01*
X-342649Y28739427D01*
X-342649Y26756538D01*
X36123Y27134818D01*
X54189Y27152864D01*
X169207Y27268146D01*
X256783Y27357332D01*
X320648Y27425030D01*
X364537Y27475848D01*
X392182Y27514394D01*
X407316Y27545273D01*
X413670Y27573095D01*
X414978Y27602467D01*
X417754Y27622520D01*
X602889Y27622520D01*
X621912Y27584369D01*
X622596Y27583342D01*
X670032Y27540259D01*
X723815Y27530229D01*
X769606Y27556006D01*
X788136Y27591603D01*
X780958Y27646796D01*
X734028Y27696377D01*
X706119Y27712423D01*
X675394Y27712157D01*
X637702Y27680696D01*
X612718Y27653239D01*
X602889Y27622520D01*
X417754Y27622520D01*
X426779Y27687715D01*
X472185Y27781220D01*
X544012Y27851557D01*
X634061Y27893492D01*
X734132Y27901791D01*
X836026Y27871220D01*
X911431Y27813226D01*
X957155Y27727750D01*
X971913Y27612409D01*
X971748Y27591753D01*
X971733Y27591603D01*
X965197Y27524462D01*
X942834Y27475071D01*
X896158Y27422239D01*
X893160Y27419252D01*
X838596Y27372522D01*
X785915Y27351418D01*
X712148Y27346485D01*
X603892Y27346485D01*
X132420Y26873020D01*
X-339053Y26399555D01*
X-354821Y25337985D01*
X-370588Y24276415D01*
X-589871Y24057955D01*
X-599763Y24048088D01*
X-686887Y23959449D01*
X-745850Y23894827D01*
X-780932Y23848659D01*
X-796418Y23815384D01*
X-796590Y23789436D01*
X-792754Y23762571D01*
X-800952Y23706421D01*
X-804798Y23680070D01*
X-843806Y23595524D01*
X-902863Y23526074D01*
X-936845Y23500983D01*
X-998390Y23476363D01*
X-1081850Y23469643D01*
X-1094048Y23469702D01*
X-1164141Y23475625D01*
X-1214793Y23497384D01*
X-1267769Y23543640D01*
X-1278707Y23555181D01*
X-1328890Y23625969D01*
X-1356467Y23696003D01*
X-1357288Y23723894D01*
X-1167434Y23723894D01*
X-1140298Y23674625D01*
X-1124695Y23662753D01*
X-1077912Y23647888D01*
X-1024130Y23664460D01*
X-995495Y23706421D01*
X-996707Y23760473D01*
X-1031497Y23813316D01*
X-1047607Y23825278D01*
X-1095466Y23835131D01*
X-1136841Y23814569D01*
X-1163556Y23774016D01*
X-1167434Y23723894D01*
X-1357288Y23723894D01*
X-1358824Y23776114D01*
X-1327977Y23872190D01*
X-1265934Y23951922D01*
X-1180218Y24006365D01*
X-1078353Y24026577D01*
X-1071824Y24026668D01*
X-1035549Y24031813D01*
X-998089Y24048617D01*
X-952125Y24082297D01*
X-890340Y24138070D01*
X-805414Y24221152D01*
X-610017Y24415644D01*
X-609999Y25117950D01*
X-609996Y25132432D01*
X-609724Y25285452D01*
X-609040Y25476153D01*
X-607984Y25698349D01*
X-606594Y25945854D01*
X-604909Y26212481D01*
X-602969Y26492045D01*
X-600811Y26778357D01*
X-598476Y27065233D01*
X-596001Y27346485D01*
X-582020Y28872713D01*
X-101164Y29357096D01*
X14545Y29474484D01*
X140600Y29604926D01*
X239264Y29710363D01*
X309276Y29789408D01*
X349376Y29840671D01*
X358302Y29862766D01*
X345720Y29873643D01*
X301842Y29908584D01*
X236547Y29959016D01*
X158667Y30018068D01*
X-19579Y30152083D01*
X-821684Y29351528D01*
X-1623789Y28550972D01*
X-2637561Y28536662D01*
X-3651333Y28522353D01*
X-4046815Y28129607D01*
X-4442298Y27736862D01*
X-4442298Y26990015D01*
X-4442265Y26856522D01*
X-4441965Y26680211D01*
X-4441131Y26540926D01*
X-4439503Y26434061D01*
X-4436819Y26355012D01*
X-4432819Y26299171D01*
X-4427242Y26261933D01*
X-4419826Y26238692D01*
X-4410312Y26224842D01*
X-4398437Y26215778D01*
X-4386183Y26207429D01*
X-4327062Y26138954D01*
X-4295339Y26049519D01*
X-4292264Y25965032D01*
X-4291786Y25951897D01*
X-4317176Y25858861D01*
X-4372280Y25783183D01*
X-4388908Y25769153D01*
X-4481848Y25717279D01*
X-4574723Y25702917D01*
X-4662084Y25720497D01*
X-4738483Y25764453D01*
X-4798472Y25829215D01*
X-4836604Y25909215D01*
X-4847429Y25998883D01*
X-4847304Y25999417D01*
X-4662343Y25999417D01*
X-4651603Y25948371D01*
X-4632974Y25927003D01*
X-4581413Y25903616D01*
X-4526883Y25908181D01*
X-4487574Y25941465D01*
X-4478085Y25965032D01*
X-4479896Y26021349D01*
X-4513090Y26061337D01*
X-4569663Y26072250D01*
X-4581309Y26070377D01*
X-4636382Y26043910D01*
X-4662343Y25999417D01*
X-4847304Y25999417D01*
X-4825500Y26092653D01*
X-4765368Y26184955D01*
X-4687386Y26271272D01*
X-4687386Y27869693D01*
X-3763134Y28794731D01*
X-1757224Y28794731D01*
X-1016515Y29535687D01*
X-873103Y29679457D01*
X-733158Y29820394D01*
X-606273Y29948830D01*
X-495537Y30061610D01*
X-404035Y30155578D01*
X-334855Y30227577D01*
X-291083Y30274451D01*
X-275807Y30293045D01*
X-276663Y30295400D01*
X-303444Y30316377D01*
X-362312Y30350523D01*
X-445883Y30394265D01*
X-546772Y30444029D01*
X-657596Y30496243D01*
X-770970Y30547331D01*
X-879510Y30593720D01*
X-975831Y30631836D01*
X-1201323Y30710619D01*
X-1540214Y30806062D01*
X-1878365Y30871395D01*
X-2228699Y30908913D01*
X-2604140Y30920909D01*
X-2850412Y30915951D01*
X-3208111Y30887720D01*
X-3549065Y30832489D01*
X-3886202Y30747962D01*
X-4232449Y30631844D01*
X-4249477Y30625443D01*
X-4662447Y30445920D01*
X-5052796Y30229181D01*
X-5418494Y29977484D01*
X-5757510Y29693085D01*
X-6067813Y29378239D01*
X-6347373Y29035203D01*
X-6594158Y28666234D01*
X-6806139Y28273587D01*
X-6981284Y27859519D01*
X-7117564Y27426285D01*
X-7127554Y27387246D01*
X-7155882Y27265888D01*
X-7182289Y27138480D01*
X-7205410Y27013263D01*
X-7223883Y26898480D01*
X-7236346Y26802373D01*
X-7241436Y26733184D01*
X-7561224Y26733184D01*
X-7503396Y27162971D01*
X-7400972Y27610171D01*
X-7257182Y28047510D01*
X-7072037Y28471660D01*
X-7055554Y28504710D01*
X-6825612Y28913394D01*
X-6562286Y29294111D01*
X-6267899Y29645416D01*
X-5944776Y29965868D01*
X-5595239Y30254024D01*
X-5221614Y30508440D01*
X-4826224Y30727674D01*
X-4411393Y30910282D01*
X-3979445Y31054823D01*
X-3532704Y31159853D01*
X-3073495Y31223929D01*
X-2604140Y31245608D01*
X-2567177Y31245474D01*
X-2098531Y31220432D01*
X-1640211Y31153106D01*
X-1194542Y31044939D01*
X-763847Y30897374D01*
X-350451Y30711854D01*
X43323Y30489821D01*
X415151Y30232718D01*
X762709Y29941988D01*
X1083672Y29619075D01*
X1375717Y29265421D01*
X1636520Y28882468D01*
X1863757Y28471660D01*
X2045458Y28057360D01*
X2189686Y27623926D01*
X2292428Y27183510D01*
X2354303Y26738919D01*
X2375933Y26292954D01*
X2369875Y26143327D01*
X2357937Y25848422D01*
X2300936Y25408124D01*
G37*
D11*
X2300936Y25408124D02*
X2205549Y24974867D01*
X2072398Y24551453D01*
X1902101Y24140686D01*
X1695281Y23745372D01*
X1452556Y23368313D01*
X1174547Y23012314D01*
X861874Y22680180D01*
X515158Y22374713D01*
X440668Y22316320D01*
X73201Y22061280D01*
X-321065Y21838016D01*
X-736179Y21648998D01*
X-1166193Y21496691D01*
X-1605157Y21383564D01*
X-2047123Y21312083D01*
X-2113326Y21305763D01*
X-2267851Y21296506D01*
X-2446018Y21291167D01*
X-2634225Y21289780D01*
X-2818867Y21292373D01*
X-2986342Y21298980D01*
X-3123045Y21309629D01*
X-3561538Y21376511D01*
X-4014225Y21487601D01*
X-4450601Y21638337D01*
X-4868414Y21827141D01*
X-5265415Y22052438D01*
X-5639352Y22312654D01*
X-5987975Y22606212D01*
X-6309033Y22931538D01*
X-6600274Y23287055D01*
X-6859449Y23671188D01*
X-7084307Y24082362D01*
X-7248755Y24459025D01*
X-7394716Y24895514D01*
X-7499257Y25342108D01*
X-7562386Y25795478D01*
X-7584112Y26252297D01*
X-7576336Y26432976D01*
X-7278884Y26432976D01*
X-7264596Y26115476D01*
X-7264404Y26111250D01*
X-7256130Y25971157D01*
X-7244356Y25823825D01*
X-7230623Y25686516D01*
X-7216473Y25576492D01*
X-7166925Y25312815D01*
X-7095514Y25028287D01*
X-7008101Y24747080D01*
X-6908964Y24482904D01*
X-6802379Y24249467D01*
X-6717157Y24082362D01*
X-6716043Y24368805D01*
X-6715954Y24486201D01*
X-6717650Y24567986D01*
X-6722470Y24621749D01*
X-6731748Y24655779D01*
X-6746819Y24678364D01*
X-6769018Y24697793D01*
X-6812884Y24743532D01*
X-6854202Y24832159D01*
X-6860617Y24904320D01*
X-6659228Y24904320D01*
X-6658432Y24883181D01*
X-6643858Y24846715D01*
X-6601619Y24833209D01*
X-6574084Y24833090D01*
X-6523027Y24855172D01*
X-6497410Y24898131D01*
X-6502172Y24948638D01*
X-6542254Y24993369D01*
X-6558527Y25001448D01*
X-6607606Y25000693D01*
X-6644606Y24965703D01*
X-6659228Y24904320D01*
X-6860617Y24904320D01*
X-6863057Y24931767D01*
X-6839071Y25030098D01*
X-6781867Y25114891D01*
X-6760650Y25134178D01*
X-6669041Y25184852D01*
X-6570249Y25198440D01*
X-6474324Y25176734D01*
X-6391319Y25121525D01*
X-6331283Y25034603D01*
X-6322367Y25013086D01*
X-6299300Y24905553D01*
X-6300784Y24898131D01*
X-6318737Y24808312D01*
X-6381429Y24716602D01*
X-6447561Y24645807D01*
X-6447561Y23622977D01*
X-6310160Y23440477D01*
X-6301848Y23429545D01*
X-6208149Y23315570D01*
X-6089457Y23183487D01*
X-5954585Y23042106D01*
X-5812345Y22900240D01*
X-5671549Y22766701D01*
X-5541008Y22650301D01*
X-5429534Y22559851D01*
X-5374237Y22518652D01*
X-5305728Y22468997D01*
X-5256486Y22435034D01*
X-5234578Y22422450D01*
X-5232022Y22426612D01*
X-5226951Y22463609D01*
X-5223437Y22530658D01*
X-5222123Y22617685D01*
X-5222123Y22812919D01*
X-5556333Y23146573D01*
X-5890544Y23480226D01*
X-5890544Y24996540D01*
X-6163804Y25269144D01*
X-6261243Y25365942D01*
X-6335724Y25437975D01*
X-6390623Y25487054D01*
X-6431903Y25517576D01*
X-6465528Y25533935D01*
X-6497460Y25540527D01*
X-6533664Y25541748D01*
X-6590707Y25545572D01*
X-6646693Y25566883D01*
X-6704260Y25615745D01*
X-6711885Y25623573D01*
X-6775946Y25718397D01*
X-6792111Y25797724D01*
X-6603944Y25797724D01*
X-6576789Y25746731D01*
X-6561187Y25734859D01*
X-6514403Y25719994D01*
X-6489230Y25723892D01*
X-6446849Y25755319D01*
X-6426874Y25805322D01*
X-6433229Y25858197D01*
X-6469842Y25898239D01*
X-6518680Y25909526D01*
X-6566587Y25890884D01*
X-6597776Y25849696D01*
X-6603944Y25797724D01*
X-6792111Y25797724D01*
X-6796797Y25820720D01*
X-6773776Y25927571D01*
X-6737250Y25989776D01*
X-6660551Y26056389D01*
X-6565532Y26091389D01*
X-6462727Y26091547D01*
X-6362668Y26053633D01*
X-6336904Y26035053D01*
X-6275209Y25962058D01*
X-6236655Y25872554D01*
X-6231523Y25805322D01*
X-6229905Y25784125D01*
X-6230821Y25769308D01*
X-6225094Y25742920D01*
X-6206924Y25709960D01*
X-6172373Y25665566D01*
X-6117504Y25604877D01*
X-6038380Y25523032D01*
X-5931064Y25415171D01*
X-5623175Y25107871D01*
X-5623175Y23591610D01*
X-5300105Y23269117D01*
X-4977035Y22946623D01*
X-4977035Y22248337D01*
X-4756132Y22134867D01*
X-4678319Y22095320D01*
X-4600996Y22057016D01*
X-4546102Y22030993D01*
X-4522185Y22021397D01*
X-4521757Y22021728D01*
X-4518400Y22048117D01*
X-4515385Y22112714D01*
X-4512832Y22209859D01*
X-4510860Y22333890D01*
X-4509590Y22479146D01*
X-4509140Y22639965D01*
X-4509140Y23258533D01*
X-4843351Y23592187D01*
X-5177561Y23925840D01*
X-5177561Y25240655D01*
X-5773415Y25836815D01*
X-6369269Y26432976D01*
X-7278884Y26432976D01*
X-7576336Y26432976D01*
X-7564446Y26709237D01*
X-7561224Y26733184D01*
X-7241436Y26733184D01*
X-7237790Y26699154D01*
X-7235209Y26697377D01*
X-7198902Y26691025D01*
X-7124855Y26685693D01*
X-7018487Y26681605D01*
X-6885217Y26678987D01*
X-6730462Y26678064D01*
X-6236168Y26678064D01*
X-5573181Y26015352D01*
X-4910193Y25352641D01*
X-4910193Y24037224D01*
X-4264633Y23392816D01*
X-4263577Y23258533D01*
X-4258772Y22647195D01*
X-4252912Y21901573D01*
X-3906534Y21789201D01*
X-3656041Y22038983D01*
X-3507127Y22187475D01*
X-1473552Y22187475D01*
X-1473532Y22137579D01*
X-1443401Y22095058D01*
X-1416867Y22077665D01*
X-1389842Y22065959D01*
X-1373671Y22071768D01*
X-1336283Y22095058D01*
X-1326943Y22103228D01*
X-1305024Y22152407D01*
X-1313578Y22208651D01*
X-1350851Y22252955D01*
X-1364241Y22259775D01*
X-1411776Y22260737D01*
X-1450590Y22232582D01*
X-1473552Y22187475D01*
X-3507127Y22187475D01*
X-3405548Y22288766D01*
X-1673751Y22288766D01*
X-1587434Y22366748D01*
X-1526127Y22415520D01*
X-1470303Y22438899D01*
X-1399812Y22444731D01*
X-1376898Y22443992D01*
X-1298202Y22432756D01*
X-1235775Y22412291D01*
X-1213028Y22397377D01*
X-1157800Y22335914D01*
X-1116459Y22256650D01*
X-1100193Y22178849D01*
X-1102125Y22152407D01*
X-1102832Y22142727D01*
X-1136640Y22045380D01*
X-1202004Y21964168D01*
X-1289534Y21908524D01*
X-1389842Y21887880D01*
X-1453230Y21897645D01*
X-1528193Y21926845D01*
X-1591518Y21967229D01*
X-1626921Y22010384D01*
X-1634068Y22018455D01*
X-1653089Y22025718D01*
X-1687808Y22031475D01*
X-1742349Y22035893D01*
X-1820835Y22039137D01*
X-1927388Y22041372D01*
X-2066133Y22042763D01*
X-2241191Y22043477D01*
X-2456687Y22043678D01*
X-3273676Y22043678D01*
X-3437331Y21878924D01*
X-3503487Y21812673D01*
X-3549499Y21762436D01*
X-3567345Y21728234D01*
X-3553913Y21705139D01*
X-3506093Y21688223D01*
X-3420773Y21672556D01*
X-3294842Y21653211D01*
X-3249485Y21647041D01*
X-3140112Y21635969D01*
X-3007752Y21625976D01*
X-2862033Y21617459D01*
X-2712579Y21610817D01*
X-2569016Y21606445D01*
X-2440969Y21604740D01*
X-2338065Y21606101D01*
X-2269930Y21610924D01*
X-2250610Y21613516D01*
X-2183203Y21621970D01*
X-2092118Y21632946D01*
X-1991421Y21644734D01*
X-1944940Y21650667D01*
X-1766649Y21681068D01*
X-1566315Y21724715D01*
X-1358397Y21777982D01*
X-1157355Y21837244D01*
X-977649Y21898876D01*
X-885660Y21934511D01*
X-478087Y22120756D01*
X-93366Y22343429D01*
X266483Y22600042D01*
X599443Y22888110D01*
X903495Y23205147D01*
X1176622Y23548666D01*
X1416806Y23916182D01*
X1622027Y24305209D01*
X1790269Y24713260D01*
X1919513Y25137850D01*
X2007741Y25576492D01*
X2012722Y25609071D01*
X2030869Y25725755D01*
X2039877Y25806213D01*
X2035239Y25857105D01*
X2012450Y25885093D01*
X1967006Y25896837D01*
X1894401Y25898999D01*
X1790131Y25898239D01*
X1538875Y25898239D01*
X1389078Y25747285D01*
X1239281Y25596332D01*
X1239281Y25123208D01*
X1239339Y25024276D01*
X1239931Y24890910D01*
X1241614Y24792427D01*
X1244938Y24722772D01*
X1250451Y24675889D01*
X1258699Y24645721D01*
X1270232Y24626214D01*
X1285597Y24611311D01*
X1333276Y24560357D01*
X1379097Y24469038D01*
X1394000Y24372011D01*
X1394396Y24369431D01*
X1379687Y24272178D01*
X1335481Y24187921D01*
X1262291Y24127301D01*
X1243716Y24118817D01*
X1153011Y24097630D01*
X1056520Y24099146D01*
X976140Y24123645D01*
X926286Y24159950D01*
X868458Y24239751D01*
X841822Y24334698D01*
X842619Y24350331D01*
X1024519Y24350331D01*
X1050412Y24315739D01*
X1083411Y24286963D01*
X1118599Y24271748D01*
X1160456Y24289038D01*
X1199705Y24328896D01*
X1217000Y24372011D01*
X1200471Y24414311D01*
X1160297Y24454615D01*
X1115659Y24472274D01*
X1083371Y24456285D01*
X1047472Y24416002D01*
X1026526Y24380494D01*
X1024519Y24350331D01*
X842619Y24350331D01*
X846879Y24433914D01*
X884132Y24526524D01*
X954083Y24601652D01*
X963812Y24610350D01*
X974190Y24627831D01*
X981911Y24657020D01*
X987363Y24703393D01*
X990931Y24772425D01*
X993001Y24869591D01*
X993960Y25000367D01*
X994193Y25170228D01*
X994193Y25709689D01*
X1211829Y25926508D01*
X1429464Y26143327D01*
X2070530Y26143327D01*
X2055693Y26454124D01*
X2053996Y26488235D01*
X2047397Y26600624D01*
X2040298Y26696095D01*
X2033449Y26765447D01*
X2027597Y26799475D01*
X2025014Y26804428D01*
X2010508Y26815356D01*
X1980371Y26823259D01*
X1928819Y26828585D01*
X1850065Y26831785D01*
X1738327Y26833306D01*
X1587818Y26833598D01*
X1161299Y26833166D01*
X843799Y26530817D01*
X526299Y26228467D01*
X526299Y23636385D01*
X19235Y23129681D01*
X-394270Y22716469D01*
X-487829Y22622976D01*
X-2976499Y22622976D01*
X-3019045Y22568887D01*
X-3032119Y22554229D01*
X-3105798Y22504347D01*
X-3197053Y22475624D01*
X-3285601Y22475189D01*
X-3360032Y22499126D01*
X-3441404Y22560883D01*
X-3497243Y22658205D01*
X-3511023Y22695717D01*
X-3523237Y22746960D01*
X-3522542Y22753402D01*
X-3324850Y22753402D01*
X-3305094Y22699888D01*
X-3287450Y22684885D01*
X-3238367Y22669226D01*
X-3188734Y22674140D01*
X-3158574Y22699657D01*
X-3153518Y22716469D01*
X-3156027Y22774787D01*
X-3184036Y22820602D01*
X-3227940Y22843268D01*
X-3278131Y22832141D01*
X-3306118Y22806874D01*
X-3324850Y22753402D01*
X-3522542Y22753402D01*
X-3518158Y22794007D01*
X-3495602Y22859412D01*
X-3465928Y22923568D01*
X-3424182Y22969580D01*
X-3356610Y23006288D01*
X-3335616Y23014970D01*
X-3224091Y23038358D01*
X-3123467Y23018561D01*
X-3033547Y22955548D01*
X-2968344Y22890345D01*
X-576156Y22890345D01*
X-158613Y23308322D01*
X258930Y23726300D01*
X258930Y26338729D01*
X651781Y26708923D01*
X1044631Y27079117D01*
X1974544Y27079117D01*
X1974402Y27129248D01*
X1974131Y27136486D01*
X1964861Y27197357D01*
X1944290Y27289424D01*
X1914988Y27403444D01*
X1879522Y27530173D01*
X1840462Y27660368D01*
X1800376Y27784784D01*
X1761833Y27894180D01*
X1734495Y27964974D01*
X1638799Y28187022D01*
X1527662Y28414052D01*
X1407562Y28633989D01*
X1284973Y28834760D01*
X1166374Y29004290D01*
X1090639Y29103478D01*
X808469Y28820681D01*
X717252Y28728859D01*
X640859Y28650076D01*
X588063Y28591758D01*
X554533Y28548201D01*
X535936Y28513703D01*
X527941Y28482560D01*
X526215Y28449070D01*
X525355Y28436711D01*
X523484Y28409779D01*
X490122Y28308391D01*
X425402Y28225338D01*
X337643Y28169208D01*
X235162Y28148590D01*
X206407Y28151206D01*
X125753Y28178520D01*
X51103Y28226571D01*
X1721Y28284172D01*
X-16290Y28328108D01*
X-31024Y28425794D01*
X148187Y28425794D01*
X174263Y28375853D01*
X177283Y28372994D01*
X228586Y28350822D01*
X284785Y28357931D01*
X324908Y28392064D01*
X338326Y28436711D01*
X321441Y28487889D01*
X267324Y28518902D01*
X249481Y28521955D01*
X193703Y28511001D01*
X157303Y28474896D01*
X148187Y28425794D01*
X-31024Y28425794D01*
X-31694Y28430233D01*
X-17283Y28530915D01*
X25712Y28613288D01*
X69506Y28654258D01*
X141929Y28697192D01*
X215802Y28720588D01*
X275310Y28717820D01*
X277251Y28717257D01*
X303064Y28724475D01*
X347349Y28754987D01*
X412966Y28811225D01*
X502778Y28895623D01*
X619645Y29010613D01*
X927157Y29317536D01*
X754938Y29490772D01*
X582719Y29664007D01*
X-342649Y28739427D01*
X-342649Y26756538D01*
X36123Y27134818D01*
X54189Y27152864D01*
X169207Y27268146D01*
X256783Y27357332D01*
X320648Y27425030D01*
X364537Y27475848D01*
X392182Y27514394D01*
X407316Y27545273D01*
X413670Y27573095D01*
X414978Y27602467D01*
X417754Y27622520D01*
X602889Y27622520D01*
X621912Y27584369D01*
X622596Y27583342D01*
X670032Y27540259D01*
X723815Y27530229D01*
X769606Y27556006D01*
X788136Y27591603D01*
X780958Y27646796D01*
X734028Y27696377D01*
X706119Y27712423D01*
X675394Y27712157D01*
X637702Y27680696D01*
X612718Y27653239D01*
X602889Y27622520D01*
X417754Y27622520D01*
X426779Y27687715D01*
X472185Y27781220D01*
X544012Y27851557D01*
X634061Y27893492D01*
X734132Y27901791D01*
X836026Y27871220D01*
X911431Y27813226D01*
X957155Y27727750D01*
X971913Y27612409D01*
X971748Y27591753D01*
X971733Y27591603D01*
X965197Y27524462D01*
X942834Y27475071D01*
X896158Y27422239D01*
X893160Y27419252D01*
X838596Y27372522D01*
X785915Y27351418D01*
X712148Y27346485D01*
X603892Y27346485D01*
X132420Y26873020D01*
X-339053Y26399555D01*
X-354821Y25337985D01*
X-370588Y24276415D01*
X-589871Y24057955D01*
X-599763Y24048088D01*
X-686887Y23959449D01*
X-745850Y23894827D01*
X-780932Y23848659D01*
X-796418Y23815384D01*
X-796590Y23789436D01*
X-792754Y23762571D01*
X-800952Y23706421D01*
X-804798Y23680070D01*
X-843806Y23595524D01*
X-902863Y23526074D01*
X-936845Y23500983D01*
X-998390Y23476363D01*
X-1081850Y23469643D01*
X-1094048Y23469702D01*
X-1164141Y23475625D01*
X-1214793Y23497384D01*
X-1267769Y23543640D01*
X-1278707Y23555181D01*
X-1328890Y23625969D01*
X-1356467Y23696003D01*
X-1357288Y23723894D01*
X-1167434Y23723894D01*
X-1140298Y23674625D01*
X-1124695Y23662753D01*
X-1077912Y23647888D01*
X-1024130Y23664460D01*
X-995495Y23706421D01*
X-996707Y23760473D01*
X-1031497Y23813316D01*
X-1047607Y23825278D01*
X-1095466Y23835131D01*
X-1136841Y23814569D01*
X-1163556Y23774016D01*
X-1167434Y23723894D01*
X-1357288Y23723894D01*
X-1358824Y23776114D01*
X-1327977Y23872190D01*
X-1265934Y23951922D01*
X-1180218Y24006365D01*
X-1078353Y24026577D01*
X-1071824Y24026668D01*
X-1035549Y24031813D01*
X-998089Y24048617D01*
X-952125Y24082297D01*
X-890340Y24138070D01*
X-805414Y24221152D01*
X-610017Y24415644D01*
X-609999Y25117950D01*
X-609996Y25132432D01*
X-609724Y25285452D01*
X-609040Y25476153D01*
X-607984Y25698349D01*
X-606594Y25945854D01*
X-604909Y26212481D01*
X-602969Y26492045D01*
X-600811Y26778357D01*
X-598476Y27065233D01*
X-596001Y27346485D01*
X-582020Y28872713D01*
X-101164Y29357096D01*
X14545Y29474484D01*
X140600Y29604926D01*
X239264Y29710363D01*
X309276Y29789408D01*
X349376Y29840671D01*
X358302Y29862766D01*
X345720Y29873643D01*
X301842Y29908584D01*
X236547Y29959016D01*
X158667Y30018068D01*
X-19579Y30152083D01*
X-821684Y29351528D01*
X-1623789Y28550972D01*
X-2637561Y28536662D01*
X-3651333Y28522353D01*
X-4046815Y28129607D01*
X-4442298Y27736862D01*
X-4442298Y26990015D01*
X-4442265Y26856522D01*
X-4441965Y26680211D01*
X-4441131Y26540926D01*
X-4439503Y26434061D01*
X-4436819Y26355012D01*
X-4432819Y26299171D01*
X-4427242Y26261933D01*
X-4419826Y26238692D01*
X-4410312Y26224842D01*
X-4398437Y26215778D01*
X-4386183Y26207429D01*
X-4327062Y26138954D01*
X-4295339Y26049519D01*
X-4292264Y25965032D01*
X-4291786Y25951897D01*
X-4317176Y25858861D01*
X-4372280Y25783183D01*
X-4388908Y25769153D01*
X-4481848Y25717279D01*
X-4574723Y25702917D01*
X-4662084Y25720497D01*
X-4738483Y25764453D01*
X-4798472Y25829215D01*
X-4836604Y25909215D01*
X-4847429Y25998883D01*
X-4847304Y25999417D01*
X-4662343Y25999417D01*
X-4651603Y25948371D01*
X-4632974Y25927003D01*
X-4581413Y25903616D01*
X-4526883Y25908181D01*
X-4487574Y25941465D01*
X-4478085Y25965032D01*
X-4479896Y26021349D01*
X-4513090Y26061337D01*
X-4569663Y26072250D01*
X-4581309Y26070377D01*
X-4636382Y26043910D01*
X-4662343Y25999417D01*
X-4847304Y25999417D01*
X-4825500Y26092653D01*
X-4765368Y26184955D01*
X-4687386Y26271272D01*
X-4687386Y27869693D01*
X-3763134Y28794731D01*
X-1757224Y28794731D01*
X-1016515Y29535687D01*
X-873103Y29679457D01*
X-733158Y29820394D01*
X-606273Y29948830D01*
X-495537Y30061610D01*
X-404035Y30155578D01*
X-334855Y30227577D01*
X-291083Y30274451D01*
X-275807Y30293045D01*
X-276663Y30295400D01*
X-303444Y30316377D01*
X-362312Y30350523D01*
X-445883Y30394265D01*
X-546772Y30444029D01*
X-657596Y30496243D01*
X-770970Y30547331D01*
X-879510Y30593720D01*
X-975831Y30631836D01*
X-1201323Y30710619D01*
X-1540214Y30806062D01*
X-1878365Y30871395D01*
X-2228699Y30908913D01*
X-2604140Y30920909D01*
X-2850412Y30915951D01*
X-3208111Y30887720D01*
X-3549065Y30832489D01*
X-3886202Y30747962D01*
X-4232449Y30631844D01*
X-4249477Y30625443D01*
X-4662447Y30445920D01*
X-5052796Y30229181D01*
X-5418494Y29977484D01*
X-5757510Y29693085D01*
X-6067813Y29378239D01*
X-6347373Y29035203D01*
X-6594158Y28666234D01*
X-6806139Y28273587D01*
X-6981284Y27859519D01*
X-7117564Y27426285D01*
X-7127554Y27387246D01*
X-7155882Y27265888D01*
X-7182289Y27138480D01*
X-7205410Y27013263D01*
X-7223883Y26898480D01*
X-7236346Y26802373D01*
X-7241436Y26733184D01*
X-7561224Y26733184D01*
X-7503396Y27162971D01*
X-7400972Y27610171D01*
X-7257182Y28047510D01*
X-7072037Y28471660D01*
X-7055554Y28504710D01*
X-6825612Y28913394D01*
X-6562286Y29294111D01*
X-6267899Y29645416D01*
X-5944776Y29965868D01*
X-5595239Y30254024D01*
X-5221614Y30508440D01*
X-4826224Y30727674D01*
X-4411393Y30910282D01*
X-3979445Y31054823D01*
X-3532704Y31159853D01*
X-3073495Y31223929D01*
X-2604140Y31245608D01*
X-2567177Y31245474D01*
X-2098531Y31220432D01*
X-1640211Y31153106D01*
X-1194542Y31044939D01*
X-763847Y30897374D01*
X-350451Y30711854D01*
X43323Y30489821D01*
X415151Y30232718D01*
X762709Y29941988D01*
X1083672Y29619075D01*
X1375717Y29265421D01*
X1636520Y28882468D01*
X1863757Y28471660D01*
X2045458Y28057360D01*
X2189686Y27623926D01*
X2292428Y27183510D01*
X2354303Y26738919D01*
X2375933Y26292954D01*
X2369875Y26143327D01*
X2357937Y25848422D01*
X2300936Y25408124D01*
G36*
X-1889027Y23501428D02*
G01*
X-1966762Y23436153D01*
X-2064378Y23405238D01*
X-2169751Y23410006D01*
X-2267272Y23448785D01*
X-2343605Y23518655D01*
X-2351456Y23527470D01*
X-2367251Y23537080D01*
X-2393604Y23544518D01*
X-2435371Y23550067D01*
X-2497411Y23554008D01*
X-2584580Y23556622D01*
X-2701738Y23558190D01*
X-2853741Y23558995D01*
X-3045447Y23559317D01*
X-3718175Y23559868D01*
X-3823084Y23677522D01*
X-2202733Y23677522D01*
X-2184307Y23639118D01*
X-2151402Y23602363D01*
X-2100999Y23586763D01*
X-2049827Y23614946D01*
X-2016772Y23670929D01*
X-2024634Y23724248D01*
X-2072021Y23764539D01*
X-2102477Y23776452D01*
X-2137363Y23773789D01*
X-2172876Y23738580D01*
X-2192864Y23711672D01*
X-2202733Y23677522D01*
X-3823084Y23677522D01*
X-4025625Y23904668D01*
X-4104996Y23993281D01*
X-4192247Y24088830D01*
X-4258261Y24157712D01*
X-4307538Y24204072D01*
X-4344575Y24232055D01*
X-4373874Y24245805D01*
X-4399933Y24249467D01*
X-4474413Y24260029D01*
X-4560730Y24304850D01*
X-4624192Y24377067D01*
X-4660185Y24468224D01*
X-4661845Y24511378D01*
X-4481857Y24511378D01*
X-4446114Y24464587D01*
X-4405126Y24435028D01*
X-4364332Y24434782D01*
X-4318574Y24473579D01*
X-4291259Y24517173D01*
X-4299899Y24555642D01*
X-4338771Y24602473D01*
X-4389081Y24621485D01*
X-4440994Y24595999D01*
X-4476028Y24555797D01*
X-4481857Y24511378D01*
X-4661845Y24511378D01*
X-4664095Y24569864D01*
X-4631307Y24673530D01*
X-4624797Y24685231D01*
X-4560769Y24753971D01*
X-4475245Y24794142D01*
X-4379330Y24805813D01*
X-4284133Y24789051D01*
X-4200761Y24743925D01*
X-4140321Y24670504D01*
X-4139802Y24669492D01*
X-4116429Y24592864D01*
X-4111868Y24517173D01*
X-4111034Y24503317D01*
X-4111064Y24502829D01*
X-4112260Y24465862D01*
X-4108090Y24433459D01*
X-4094522Y24399301D01*
X-4067523Y24357071D01*
X-4023061Y24300450D01*
X-3957104Y24223119D01*
X-3865620Y24118760D01*
X-3614130Y23833005D01*
X-3231679Y23818497D01*
X-3183774Y23816701D01*
X-2966134Y23809257D01*
X-2788366Y23804693D01*
X-2646622Y23803120D01*
X-2537055Y23804646D01*
X-2455817Y23809384D01*
X-2399061Y23817442D01*
X-2362939Y23828932D01*
X-2343605Y23843964D01*
X-2276363Y23908873D01*
X-2180067Y23951241D01*
X-2073788Y23957997D01*
X-1969386Y23926525D01*
X-1894343Y23871578D01*
X-1849491Y23793294D01*
X-1835456Y23686708D01*
X-1837206Y23670929D01*
X-1845681Y23594465D01*
X-1889027Y23501428D01*
G37*
X-1889027Y23501428D02*
X-1966762Y23436153D01*
X-2064378Y23405238D01*
X-2169751Y23410006D01*
X-2267272Y23448785D01*
X-2343605Y23518655D01*
X-2351456Y23527470D01*
X-2367251Y23537080D01*
X-2393604Y23544518D01*
X-2435371Y23550067D01*
X-2497411Y23554008D01*
X-2584580Y23556622D01*
X-2701738Y23558190D01*
X-2853741Y23558995D01*
X-3045447Y23559317D01*
X-3718175Y23559868D01*
X-3823084Y23677522D01*
X-2202733Y23677522D01*
X-2184307Y23639118D01*
X-2151402Y23602363D01*
X-2100999Y23586763D01*
X-2049827Y23614946D01*
X-2016772Y23670929D01*
X-2024634Y23724248D01*
X-2072021Y23764539D01*
X-2102477Y23776452D01*
X-2137363Y23773789D01*
X-2172876Y23738580D01*
X-2192864Y23711672D01*
X-2202733Y23677522D01*
X-3823084Y23677522D01*
X-4025625Y23904668D01*
X-4104996Y23993281D01*
X-4192247Y24088830D01*
X-4258261Y24157712D01*
X-4307538Y24204072D01*
X-4344575Y24232055D01*
X-4373874Y24245805D01*
X-4399933Y24249467D01*
X-4474413Y24260029D01*
X-4560730Y24304850D01*
X-4624192Y24377067D01*
X-4660185Y24468224D01*
X-4661845Y24511378D01*
X-4481857Y24511378D01*
X-4446114Y24464587D01*
X-4405126Y24435028D01*
X-4364332Y24434782D01*
X-4318574Y24473579D01*
X-4291259Y24517173D01*
X-4299899Y24555642D01*
X-4338771Y24602473D01*
X-4389081Y24621485D01*
X-4440994Y24595999D01*
X-4476028Y24555797D01*
X-4481857Y24511378D01*
X-4661845Y24511378D01*
X-4664095Y24569864D01*
X-4631307Y24673530D01*
X-4624797Y24685231D01*
X-4560769Y24753971D01*
X-4475245Y24794142D01*
X-4379330Y24805813D01*
X-4284133Y24789051D01*
X-4200761Y24743925D01*
X-4140321Y24670504D01*
X-4139802Y24669492D01*
X-4116429Y24592864D01*
X-4111868Y24517173D01*
X-4111034Y24503317D01*
X-4111064Y24502829D01*
X-4112260Y24465862D01*
X-4108090Y24433459D01*
X-4094522Y24399301D01*
X-4067523Y24357071D01*
X-4023061Y24300450D01*
X-3957104Y24223119D01*
X-3865620Y24118760D01*
X-3614130Y23833005D01*
X-3231679Y23818497D01*
X-3183774Y23816701D01*
X-2966134Y23809257D01*
X-2788366Y23804693D01*
X-2646622Y23803120D01*
X-2537055Y23804646D01*
X-2455817Y23809384D01*
X-2399061Y23817442D01*
X-2362939Y23828932D01*
X-2343605Y23843964D01*
X-2276363Y23908873D01*
X-2180067Y23951241D01*
X-2073788Y23957997D01*
X-1969386Y23926525D01*
X-1894343Y23871578D01*
X-1849491Y23793294D01*
X-1835456Y23686708D01*
X-1837206Y23670929D01*
X-1845681Y23594465D01*
X-1889027Y23501428D01*
G36*
X-3595631Y25041551D02*
G01*
X-3296037Y24739643D01*
X-1802872Y24739643D01*
X-1596357Y24945299D01*
X-1389842Y25150956D01*
X-1389842Y27423630D01*
X-1595498Y27630145D01*
X-1801155Y27836660D01*
X-3294005Y27836660D01*
X-3707035Y27425348D01*
X-3707035Y26828026D01*
X-3297773Y26410696D01*
X-2989249Y26410696D01*
X-2975213Y26410702D01*
X-2852087Y26411684D01*
X-2766342Y26414800D01*
X-2711446Y26420723D01*
X-2680866Y26430121D01*
X-2668072Y26443666D01*
X-2638326Y26482258D01*
X-2576804Y26523659D01*
X-2501242Y26554538D01*
X-2427728Y26566660D01*
X-2351124Y26557194D01*
X-2258249Y26514015D01*
X-2190222Y26443061D01*
X-2151638Y26352236D01*
X-2149546Y26304928D01*
X-2147093Y26249447D01*
X-2181184Y26142598D01*
X-2189039Y26128840D01*
X-2251107Y26065369D01*
X-2335087Y26026098D01*
X-2429472Y26011542D01*
X-2522752Y26022211D01*
X-2603419Y26058618D01*
X-2659965Y26121277D01*
X-2665144Y26129982D01*
X-2679397Y26144136D01*
X-2704173Y26153958D01*
X-2746278Y26160232D01*
X-2812520Y26163741D01*
X-2909707Y26165272D01*
X-3044646Y26165608D01*
X-3405602Y26165608D01*
X-3517900Y26277636D01*
X-2521298Y26277636D01*
X-2493917Y26233754D01*
X-2457988Y26201783D01*
X-2410024Y26191253D01*
X-2360644Y26222901D01*
X-2334401Y26257311D01*
X-2331654Y26304928D01*
X-2371497Y26356174D01*
X-2412868Y26380054D01*
X-2463502Y26370193D01*
X-2512592Y26315818D01*
X-2521298Y26277636D01*
X-3517900Y26277636D01*
X-3678862Y26438212D01*
X-3952123Y26710816D01*
X-3952123Y27535227D01*
X-3679518Y27808488D01*
X-3406914Y28081748D01*
X-1667654Y28081748D01*
X-1144754Y27557482D01*
X-1144754Y25018795D01*
X-1417358Y24745535D01*
X-1689963Y24472274D01*
X-3407125Y24472274D01*
X-3615331Y24681349D01*
X-3637746Y24703793D01*
X-3720904Y24784972D01*
X-3782777Y24840026D01*
X-3830657Y24874362D01*
X-3871834Y24893386D01*
X-3913600Y24902504D01*
X-3927325Y24904687D01*
X-4023518Y24942411D01*
X-4095281Y25010265D01*
X-4138088Y25099356D01*
X-4143406Y25157183D01*
X-3962007Y25157183D01*
X-3931475Y25120048D01*
X-3929413Y25117993D01*
X-3884523Y25081433D01*
X-3849939Y25080526D01*
X-3810751Y25114599D01*
X-3788319Y25145434D01*
X-3776355Y25202638D01*
X-3806228Y25251211D01*
X-3841263Y25269180D01*
X-3896148Y25261530D01*
X-3945523Y25214741D01*
X-3960959Y25188336D01*
X-3962007Y25157183D01*
X-4143406Y25157183D01*
X-4147416Y25200791D01*
X-4118741Y25305680D01*
X-4116005Y25311306D01*
X-4055432Y25391012D01*
X-3968100Y25437521D01*
X-3850738Y25452625D01*
X-3780974Y25447625D01*
X-3727618Y25425598D01*
X-3671386Y25376871D01*
X-3639989Y25343779D01*
X-3610851Y25300265D01*
X-3598313Y25248880D01*
X-3596713Y25202638D01*
X-3595631Y25171334D01*
X-3595631Y25041551D01*
G37*
X-3595631Y25041551D02*
X-3296037Y24739643D01*
X-1802872Y24739643D01*
X-1596357Y24945299D01*
X-1389842Y25150956D01*
X-1389842Y27423630D01*
X-1595498Y27630145D01*
X-1801155Y27836660D01*
X-3294005Y27836660D01*
X-3707035Y27425348D01*
X-3707035Y26828026D01*
X-3297773Y26410696D01*
X-2989249Y26410696D01*
X-2975213Y26410702D01*
X-2852087Y26411684D01*
X-2766342Y26414800D01*
X-2711446Y26420723D01*
X-2680866Y26430121D01*
X-2668072Y26443666D01*
X-2638326Y26482258D01*
X-2576804Y26523659D01*
X-2501242Y26554538D01*
X-2427728Y26566660D01*
X-2351124Y26557194D01*
X-2258249Y26514015D01*
X-2190222Y26443061D01*
X-2151638Y26352236D01*
X-2149546Y26304928D01*
X-2147093Y26249447D01*
X-2181184Y26142598D01*
X-2189039Y26128840D01*
X-2251107Y26065369D01*
X-2335087Y26026098D01*
X-2429472Y26011542D01*
X-2522752Y26022211D01*
X-2603419Y26058618D01*
X-2659965Y26121277D01*
X-2665144Y26129982D01*
X-2679397Y26144136D01*
X-2704173Y26153958D01*
X-2746278Y26160232D01*
X-2812520Y26163741D01*
X-2909707Y26165272D01*
X-3044646Y26165608D01*
X-3405602Y26165608D01*
X-3517900Y26277636D01*
X-2521298Y26277636D01*
X-2493917Y26233754D01*
X-2457988Y26201783D01*
X-2410024Y26191253D01*
X-2360644Y26222901D01*
X-2334401Y26257311D01*
X-2331654Y26304928D01*
X-2371497Y26356174D01*
X-2412868Y26380054D01*
X-2463502Y26370193D01*
X-2512592Y26315818D01*
X-2521298Y26277636D01*
X-3517900Y26277636D01*
X-3678862Y26438212D01*
X-3952123Y26710816D01*
X-3952123Y27535227D01*
X-3679518Y27808488D01*
X-3406914Y28081748D01*
X-1667654Y28081748D01*
X-1144754Y27557482D01*
X-1144754Y25018795D01*
X-1417358Y24745535D01*
X-1689963Y24472274D01*
X-3407125Y24472274D01*
X-3615331Y24681349D01*
X-3637746Y24703793D01*
X-3720904Y24784972D01*
X-3782777Y24840026D01*
X-3830657Y24874362D01*
X-3871834Y24893386D01*
X-3913600Y24902504D01*
X-3927325Y24904687D01*
X-4023518Y24942411D01*
X-4095281Y25010265D01*
X-4138088Y25099356D01*
X-4143406Y25157183D01*
X-3962007Y25157183D01*
X-3931475Y25120048D01*
X-3929413Y25117993D01*
X-3884523Y25081433D01*
X-3849939Y25080526D01*
X-3810751Y25114599D01*
X-3788319Y25145434D01*
X-3776355Y25202638D01*
X-3806228Y25251211D01*
X-3841263Y25269180D01*
X-3896148Y25261530D01*
X-3945523Y25214741D01*
X-3960959Y25188336D01*
X-3962007Y25157183D01*
X-4143406Y25157183D01*
X-4147416Y25200791D01*
X-4118741Y25305680D01*
X-4116005Y25311306D01*
X-4055432Y25391012D01*
X-3968100Y25437521D01*
X-3850738Y25452625D01*
X-3780974Y25447625D01*
X-3727618Y25425598D01*
X-3671386Y25376871D01*
X-3639989Y25343779D01*
X-3610851Y25300265D01*
X-3598313Y25248880D01*
X-3596713Y25202638D01*
X-3595631Y25171334D01*
X-3595631Y25041551D01*
G36*
X-5103417Y26677234D02*
G01*
X-5153256Y26588864D01*
X-5228774Y26521197D01*
X-5309772Y26485484D01*
X-5405118Y26476757D01*
X-5491240Y26500962D01*
X-5563539Y26551683D01*
X-5617414Y26622506D01*
X-5648266Y26707015D01*
X-5650439Y26768773D01*
X-5465430Y26768773D01*
X-5459683Y26717709D01*
X-5424114Y26678848D01*
X-5417648Y26675404D01*
X-5378106Y26658788D01*
X-5348925Y26666266D01*
X-5309612Y26701978D01*
X-5286510Y26727250D01*
X-5276267Y26758070D01*
X-5295564Y26796671D01*
X-5324711Y26829312D01*
X-5365109Y26852579D01*
X-5407262Y26849186D01*
X-5446306Y26817459D01*
X-5465430Y26768773D01*
X-5650439Y26768773D01*
X-5651496Y26798796D01*
X-5622503Y26891433D01*
X-5556688Y26978513D01*
X-5489491Y27042892D01*
X-5489491Y28248560D01*
X-4871351Y28866996D01*
X-4253210Y29485432D01*
X-2296891Y29485432D01*
X-2066173Y29712470D01*
X-1835456Y29939508D01*
X-1835456Y30060049D01*
X-1835256Y30076786D01*
X-1654448Y30076786D01*
X-1643709Y30025739D01*
X-1625079Y30004371D01*
X-1573519Y29980984D01*
X-1518988Y29985550D01*
X-1479679Y30018834D01*
X-1470190Y30042400D01*
X-1472002Y30098717D01*
X-1505195Y30138706D01*
X-1561769Y30149619D01*
X-1573414Y30147745D01*
X-1628487Y30121278D01*
X-1654448Y30076786D01*
X-1835256Y30076786D01*
X-1835058Y30093381D01*
X-1827889Y30157407D01*
X-1805869Y30204536D01*
X-1761459Y30254587D01*
X-1681226Y30313511D01*
X-1582564Y30343823D01*
X-1483757Y30337204D01*
X-1394270Y30294477D01*
X-1323571Y30216466D01*
X-1322585Y30214838D01*
X-1284602Y30114060D01*
X-1285330Y30042400D01*
X-1285622Y30013527D01*
X-1320879Y29921300D01*
X-1385609Y29845442D01*
X-1475048Y29794015D01*
X-1584431Y29775081D01*
X-1596799Y29774007D01*
X-1629666Y29762002D01*
X-1672778Y29733421D01*
X-1731121Y29684213D01*
X-1809679Y29610328D01*
X-1913438Y29507713D01*
X-2180110Y29240345D01*
X-4118906Y29240345D01*
X-4681655Y28677921D01*
X-5244403Y28115497D01*
X-5244403Y27560047D01*
X-5244202Y27389810D01*
X-5243350Y27258640D01*
X-5241458Y27161170D01*
X-5238136Y27092036D01*
X-5232994Y27045872D01*
X-5225642Y27017313D01*
X-5215689Y27000993D01*
X-5202746Y26991548D01*
X-5173170Y26966599D01*
X-5131934Y26904837D01*
X-5100772Y26829033D01*
X-5088597Y26758070D01*
X-5088438Y26757143D01*
X-5103417Y26677234D01*
G37*
X-5103417Y26677234D02*
X-5153256Y26588864D01*
X-5228774Y26521197D01*
X-5309772Y26485484D01*
X-5405118Y26476757D01*
X-5491240Y26500962D01*
X-5563539Y26551683D01*
X-5617414Y26622506D01*
X-5648266Y26707015D01*
X-5650439Y26768773D01*
X-5465430Y26768773D01*
X-5459683Y26717709D01*
X-5424114Y26678848D01*
X-5417648Y26675404D01*
X-5378106Y26658788D01*
X-5348925Y26666266D01*
X-5309612Y26701978D01*
X-5286510Y26727250D01*
X-5276267Y26758070D01*
X-5295564Y26796671D01*
X-5324711Y26829312D01*
X-5365109Y26852579D01*
X-5407262Y26849186D01*
X-5446306Y26817459D01*
X-5465430Y26768773D01*
X-5650439Y26768773D01*
X-5651496Y26798796D01*
X-5622503Y26891433D01*
X-5556688Y26978513D01*
X-5489491Y27042892D01*
X-5489491Y28248560D01*
X-4871351Y28866996D01*
X-4253210Y29485432D01*
X-2296891Y29485432D01*
X-2066173Y29712470D01*
X-1835456Y29939508D01*
X-1835456Y30060049D01*
X-1835256Y30076786D01*
X-1654448Y30076786D01*
X-1643709Y30025739D01*
X-1625079Y30004371D01*
X-1573519Y29980984D01*
X-1518988Y29985550D01*
X-1479679Y30018834D01*
X-1470190Y30042400D01*
X-1472002Y30098717D01*
X-1505195Y30138706D01*
X-1561769Y30149619D01*
X-1573414Y30147745D01*
X-1628487Y30121278D01*
X-1654448Y30076786D01*
X-1835256Y30076786D01*
X-1835058Y30093381D01*
X-1827889Y30157407D01*
X-1805869Y30204536D01*
X-1761459Y30254587D01*
X-1681226Y30313511D01*
X-1582564Y30343823D01*
X-1483757Y30337204D01*
X-1394270Y30294477D01*
X-1323571Y30216466D01*
X-1322585Y30214838D01*
X-1284602Y30114060D01*
X-1285330Y30042400D01*
X-1285622Y30013527D01*
X-1320879Y29921300D01*
X-1385609Y29845442D01*
X-1475048Y29794015D01*
X-1584431Y29775081D01*
X-1596799Y29774007D01*
X-1629666Y29762002D01*
X-1672778Y29733421D01*
X-1731121Y29684213D01*
X-1809679Y29610328D01*
X-1913438Y29507713D01*
X-2180110Y29240345D01*
X-4118906Y29240345D01*
X-4681655Y28677921D01*
X-5244403Y28115497D01*
X-5244403Y27560047D01*
X-5244202Y27389810D01*
X-5243350Y27258640D01*
X-5241458Y27161170D01*
X-5238136Y27092036D01*
X-5232994Y27045872D01*
X-5225642Y27017313D01*
X-5215689Y27000993D01*
X-5202746Y26991548D01*
X-5173170Y26966599D01*
X-5131934Y26904837D01*
X-5100772Y26829033D01*
X-5088597Y26758070D01*
X-5088438Y26757143D01*
X-5103417Y26677234D01*
G36*
X-5932974Y27432176D02*
G01*
X-5975027Y27350356D01*
X-6041218Y27292240D01*
X-6090161Y27271638D01*
X-6191070Y27257780D01*
X-6290716Y27275018D01*
X-6376555Y27320236D01*
X-6436044Y27390317D01*
X-6455875Y27441169D01*
X-6466342Y27525355D01*
X-6286736Y27525355D01*
X-6259355Y27481473D01*
X-6223426Y27449502D01*
X-6175463Y27438972D01*
X-6126082Y27470620D01*
X-6099839Y27505030D01*
X-6097092Y27552647D01*
X-6136935Y27603893D01*
X-6178307Y27627773D01*
X-6228940Y27617913D01*
X-6278030Y27563537D01*
X-6286736Y27525355D01*
X-6466342Y27525355D01*
X-6467901Y27537898D01*
X-6453809Y27633825D01*
X-6416333Y27715617D01*
X-6358208Y27769942D01*
X-6349467Y27775145D01*
X-6335326Y27789410D01*
X-6325514Y27814209D01*
X-6319247Y27856347D01*
X-6315741Y27922629D01*
X-6314212Y28019861D01*
X-6313877Y28154847D01*
X-6313877Y28516028D01*
X-5372616Y29457484D01*
X-4547463Y30282808D01*
X-2990688Y30282808D01*
X-2959040Y30233427D01*
X-2924630Y30207184D01*
X-2877013Y30204437D01*
X-2825767Y30244280D01*
X-2798452Y30287874D01*
X-2807092Y30326344D01*
X-2845964Y30373175D01*
X-2896274Y30392187D01*
X-2948187Y30366700D01*
X-2980158Y30330771D01*
X-2990688Y30282808D01*
X-4547463Y30282808D01*
X-4431354Y30398941D01*
X-3173325Y30398941D01*
X-3136082Y30455782D01*
X-3090738Y30507899D01*
X-3005144Y30558217D01*
X-2907451Y30576548D01*
X-2808654Y30563193D01*
X-2719747Y30518449D01*
X-2651721Y30442615D01*
X-2630383Y30395962D01*
X-2615355Y30297634D01*
X-2617019Y30287874D01*
X-2632123Y30199261D01*
X-2677484Y30113740D01*
X-2748235Y30053967D01*
X-2795039Y30034263D01*
X-2906639Y30019486D01*
X-3017461Y30046483D01*
X-3120150Y30114066D01*
X-3124859Y30118235D01*
X-3142349Y30130661D01*
X-3165696Y30140034D01*
X-3200429Y30146677D01*
X-3252075Y30150913D01*
X-3326163Y30153067D01*
X-3428221Y30153463D01*
X-3563777Y30152423D01*
X-3738360Y30150273D01*
X-4308455Y30142713D01*
X-6068789Y28382749D01*
X-6068789Y28088208D01*
X-6068531Y27993526D01*
X-6066850Y27901783D01*
X-6062665Y27841189D01*
X-6054914Y27804108D01*
X-6042533Y27782904D01*
X-6024458Y27769942D01*
X-6014297Y27764029D01*
X-5955720Y27703626D01*
X-5922912Y27620434D01*
X-5917562Y27552647D01*
X-5915466Y27526077D01*
X-5932974Y27432176D01*
G37*
X-5932974Y27432176D02*
X-5975027Y27350356D01*
X-6041218Y27292240D01*
X-6090161Y27271638D01*
X-6191070Y27257780D01*
X-6290716Y27275018D01*
X-6376555Y27320236D01*
X-6436044Y27390317D01*
X-6455875Y27441169D01*
X-6466342Y27525355D01*
X-6286736Y27525355D01*
X-6259355Y27481473D01*
X-6223426Y27449502D01*
X-6175463Y27438972D01*
X-6126082Y27470620D01*
X-6099839Y27505030D01*
X-6097092Y27552647D01*
X-6136935Y27603893D01*
X-6178307Y27627773D01*
X-6228940Y27617913D01*
X-6278030Y27563537D01*
X-6286736Y27525355D01*
X-6466342Y27525355D01*
X-6467901Y27537898D01*
X-6453809Y27633825D01*
X-6416333Y27715617D01*
X-6358208Y27769942D01*
X-6349467Y27775145D01*
X-6335326Y27789410D01*
X-6325514Y27814209D01*
X-6319247Y27856347D01*
X-6315741Y27922629D01*
X-6314212Y28019861D01*
X-6313877Y28154847D01*
X-6313877Y28516028D01*
X-5372616Y29457484D01*
X-4547463Y30282808D01*
X-2990688Y30282808D01*
X-2959040Y30233427D01*
X-2924630Y30207184D01*
X-2877013Y30204437D01*
X-2825767Y30244280D01*
X-2798452Y30287874D01*
X-2807092Y30326344D01*
X-2845964Y30373175D01*
X-2896274Y30392187D01*
X-2948187Y30366700D01*
X-2980158Y30330771D01*
X-2990688Y30282808D01*
X-4547463Y30282808D01*
X-4431354Y30398941D01*
X-3173325Y30398941D01*
X-3136082Y30455782D01*
X-3090738Y30507899D01*
X-3005144Y30558217D01*
X-2907451Y30576548D01*
X-2808654Y30563193D01*
X-2719747Y30518449D01*
X-2651721Y30442615D01*
X-2630383Y30395962D01*
X-2615355Y30297634D01*
X-2617019Y30287874D01*
X-2632123Y30199261D01*
X-2677484Y30113740D01*
X-2748235Y30053967D01*
X-2795039Y30034263D01*
X-2906639Y30019486D01*
X-3017461Y30046483D01*
X-3120150Y30114066D01*
X-3124859Y30118235D01*
X-3142349Y30130661D01*
X-3165696Y30140034D01*
X-3200429Y30146677D01*
X-3252075Y30150913D01*
X-3326163Y30153067D01*
X-3428221Y30153463D01*
X-3563777Y30152423D01*
X-3738360Y30150273D01*
X-4308455Y30142713D01*
X-6068789Y28382749D01*
X-6068789Y28088208D01*
X-6068531Y27993526D01*
X-6066850Y27901783D01*
X-6062665Y27841189D01*
X-6054914Y27804108D01*
X-6042533Y27782904D01*
X-6024458Y27769942D01*
X-6014297Y27764029D01*
X-5955720Y27703626D01*
X-5922912Y27620434D01*
X-5917562Y27552647D01*
X-5915466Y27526077D01*
X-5932974Y27432176D01*
D12*
%TO.C,J4*%
X55660134Y-12057692D02*
X56710279Y-12690667D01*
X55067511Y-10992440D02*
X55067511Y-11008538D01*
X56710279Y-9310311D02*
X55660134Y-9943286D01*
X61006511Y-9094989D02*
X57484619Y-9094989D01*
X57484619Y-12905989D02*
X61006511Y-12905989D01*
X62306511Y-11605988D02*
X62306511Y-10394990D01*
X62306511Y-10394991D02*
G75*
G03*
X61006511Y-9094989I-1300000J2D01*
G01*
X61006512Y-12905989D02*
G75*
G03*
X62306511Y-11605988I-1J1300000D01*
G01*
X55660134Y-9943286D02*
G75*
G03*
X55067511Y-10992440I632373J-1049152D01*
G01*
X57484619Y-9094989D02*
G75*
G03*
X56710279Y-9310311I2J-1500008D01*
G01*
X55067511Y-11008538D02*
G75*
G03*
X55660134Y-12057692I1225000J0D01*
G01*
X56710279Y-12690667D02*
G75*
G03*
X57484619Y-12905989I774342J1284686D01*
G01*
D13*
%TO.C,J5*%
X63265000Y20638750D02*
X65925000Y20638750D01*
X63265000Y18038750D02*
X63265000Y20638750D01*
X65925000Y18038750D02*
X65925000Y20638750D01*
X63265000Y16768750D02*
X63265000Y15438750D01*
X63265000Y18038750D02*
X65925000Y18038750D01*
X63265000Y15438750D02*
X64595000Y15438750D01*
%TO.C,J3*%
X5475000Y10703000D02*
X4975000Y10703000D01*
X9475000Y11293000D02*
X5185000Y11293000D01*
X14835000Y10993000D02*
X14835000Y16713000D01*
X4115000Y10993000D02*
X4115000Y16713000D01*
X4115000Y16713000D02*
X9475000Y16713000D01*
X5185000Y10993000D02*
X4115000Y10993000D01*
X13765000Y10993000D02*
X14835000Y10993000D01*
X14835000Y16713000D02*
X9475000Y16713000D01*
X5185000Y11293000D02*
X5185000Y10993000D01*
X5475000Y11003000D02*
X5475000Y10703000D01*
X13765000Y11293000D02*
X13765000Y10993000D01*
X9475000Y11293000D02*
X13765000Y11293000D01*
%TO.C,J2*%
X17435000Y10993000D02*
X16365000Y10993000D01*
X17725000Y11003000D02*
X17725000Y10703000D01*
X20835000Y10993000D02*
X20835000Y16713000D01*
X19765000Y11293000D02*
X19765000Y10993000D01*
X17435000Y11293000D02*
X17435000Y10993000D01*
X20835000Y16713000D02*
X18600000Y16713000D01*
X18600000Y11293000D02*
X19765000Y11293000D01*
X16365000Y16713000D02*
X18600000Y16713000D01*
X17725000Y10703000D02*
X17225000Y10703000D01*
X18600000Y11293000D02*
X17435000Y11293000D01*
X19765000Y10993000D02*
X20835000Y10993000D01*
X16365000Y10993000D02*
X16365000Y16713000D01*
%TD*%
%LPC*%
D14*
%TO.C,SW1*%
X0Y0D03*
D15*
X-5080000Y0D03*
X5080000Y0D03*
D16*
X-3300000Y640000D03*
D17*
X-3810000Y2540000D03*
D16*
X-3300000Y-5080000D03*
X3300000Y640000D03*
X3300000Y-5080000D03*
D17*
X2540000Y5080000D03*
%TD*%
D15*
%TO.C,SW5*%
X5080000Y-19050000D03*
X-5080000Y-19050000D03*
D14*
X0Y-19050000D03*
D17*
X-3810000Y-16510000D03*
D16*
X-3300000Y-18410000D03*
X-3300000Y-24130000D03*
X3300000Y-24130000D03*
D17*
X2540000Y-13970000D03*
D16*
X3300000Y-18410000D03*
%TD*%
D14*
%TO.C,SW2*%
X19050000Y0D03*
D15*
X24130000Y0D03*
X13970000Y0D03*
D16*
X15750000Y640000D03*
D17*
X15240000Y2540000D03*
D16*
X15750000Y-5080000D03*
X22350000Y640000D03*
D17*
X21590000Y5080000D03*
D16*
X22350000Y-5080000D03*
%TD*%
D14*
%TO.C,SW7*%
X38100000Y-19050000D03*
D15*
X43180000Y-19050000D03*
X33020000Y-19050000D03*
D17*
X34290000Y-16510000D03*
D16*
X34800000Y-24130000D03*
X34800000Y-18410000D03*
X41400000Y-24130000D03*
X41400000Y-18410000D03*
D17*
X40640000Y-13970000D03*
%TD*%
D18*
%TO.C,S1*%
X64135000Y-16668750D03*
D14*
X48895000Y-16668750D03*
X48895000Y-40481250D03*
D18*
X64135000Y-40481250D03*
%TD*%
D15*
%TO.C,SW12*%
X5080000Y-57150000D03*
X-5080000Y-57150000D03*
D14*
X0Y-57150000D03*
D16*
X-3300000Y-56510000D03*
D17*
X-3810000Y-54610000D03*
D16*
X-3300000Y-62230000D03*
X3300000Y-62230000D03*
X3300000Y-56510000D03*
D17*
X2540000Y-52070000D03*
%TD*%
D15*
%TO.C,SW10*%
X13970000Y-38100000D03*
D14*
X19050000Y-38100000D03*
D15*
X24130000Y-38100000D03*
D17*
X15240000Y-35560000D03*
D16*
X15750000Y-37460000D03*
X15750000Y-43180000D03*
X22350000Y-43180000D03*
X22350000Y-37460000D03*
D17*
X21590000Y-33020000D03*
%TD*%
D14*
%TO.C,SW16*%
X9525000Y-76200000D03*
D15*
X14605000Y-76200000D03*
X4445000Y-76200000D03*
D17*
X5715000Y-73660000D03*
D16*
X6225000Y-75560000D03*
X6225000Y-81280000D03*
X12825000Y-81280000D03*
D17*
X12065000Y-71120000D03*
D16*
X12825000Y-75560000D03*
%TD*%
D19*
%TO.C,J1*%
X31465000Y35063000D03*
X25685000Y35063000D03*
D20*
X32895000Y34533000D03*
D21*
X32895000Y38713000D03*
D20*
X24255000Y34533000D03*
D21*
X24255000Y38713000D03*
%TD*%
D15*
%TO.C,SW9*%
X-5080000Y-38100000D03*
X5080000Y-38100000D03*
D14*
X0Y-38100000D03*
D17*
X-3810000Y-35560000D03*
D16*
X-3300000Y-43180000D03*
X-3300000Y-37460000D03*
X3300000Y-37460000D03*
X3300000Y-43180000D03*
D17*
X2540000Y-33020000D03*
%TD*%
D15*
%TO.C,SW3*%
X43180000Y0D03*
X33020000Y0D03*
D14*
X38100000Y0D03*
D16*
X34800000Y-5080000D03*
X34800000Y640000D03*
D17*
X34290000Y2540000D03*
D16*
X41400000Y640000D03*
D17*
X40640000Y5080000D03*
D16*
X41400000Y-5080000D03*
%TD*%
D14*
%TO.C,SW11*%
X38100000Y-38100000D03*
D15*
X33020000Y-38100000D03*
X43180000Y-38100000D03*
D16*
X34800000Y-37460000D03*
X34800000Y-43180000D03*
D17*
X34290000Y-35560000D03*
D16*
X41400000Y-43180000D03*
D17*
X40640000Y-33020000D03*
D16*
X41400000Y-37460000D03*
%TD*%
D14*
%TO.C,S2*%
X48895000Y-78581250D03*
D18*
X64135000Y-54768750D03*
X64135000Y-78581250D03*
D14*
X48895000Y-54768750D03*
%TD*%
D15*
%TO.C,SW15*%
X57150000Y-61595000D03*
X57150000Y-71755000D03*
D14*
X57150000Y-66675000D03*
D16*
X56510000Y-69975000D03*
D17*
X54610000Y-70485000D03*
D16*
X62230000Y-69975000D03*
X56510000Y-63375000D03*
D17*
X52070000Y-64135000D03*
D16*
X62230000Y-63375000D03*
%TD*%
D15*
%TO.C,SW13*%
X13970000Y-57150000D03*
X24130000Y-57150000D03*
D14*
X19050000Y-57150000D03*
D16*
X15750000Y-56510000D03*
D17*
X15240000Y-54610000D03*
D16*
X15750000Y-62230000D03*
D17*
X21590000Y-52070000D03*
D16*
X22350000Y-62230000D03*
X22350000Y-56510000D03*
%TD*%
D15*
%TO.C,SW4*%
X62230000Y0D03*
D14*
X57150000Y0D03*
D15*
X52070000Y0D03*
D16*
X53850000Y640000D03*
X53850000Y-5080000D03*
D17*
X53340000Y2540000D03*
X59690000Y5080000D03*
D16*
X60450000Y-5080000D03*
X60450000Y640000D03*
%TD*%
D15*
%TO.C,SW6*%
X24130000Y-19050000D03*
D14*
X19050000Y-19050000D03*
D15*
X13970000Y-19050000D03*
D17*
X15240000Y-16510000D03*
D16*
X15750000Y-18410000D03*
X15750000Y-24130000D03*
X22350000Y-18410000D03*
D17*
X21590000Y-13970000D03*
D16*
X22350000Y-24130000D03*
%TD*%
D22*
%TO.C,U4*%
X49875000Y22751000D03*
X49875000Y21551000D03*
X49875000Y20351000D03*
X49875000Y19151000D03*
X49875000Y17951000D03*
X49875000Y16751000D03*
X49875000Y15551000D03*
X49875000Y14351000D03*
X49875000Y13151000D03*
X49875000Y11951000D03*
X49875000Y10751000D03*
X59675000Y10751000D03*
X59675000Y11951000D03*
X59675000Y13151000D03*
X59675000Y14351000D03*
X59675000Y15551000D03*
X59675000Y16751000D03*
X59675000Y17951000D03*
X59675000Y19151000D03*
X59675000Y20351000D03*
X59675000Y21551000D03*
X59675000Y22751000D03*
%TD*%
D14*
%TO.C,SW14*%
X38100000Y-57150000D03*
D15*
X43180000Y-57150000D03*
X33020000Y-57150000D03*
D16*
X34800000Y-56510000D03*
X34800000Y-62230000D03*
D17*
X34290000Y-54610000D03*
D16*
X41400000Y-56510000D03*
X41400000Y-62230000D03*
D17*
X40640000Y-52070000D03*
%TD*%
D14*
%TO.C,SW17*%
X38100000Y-76200000D03*
D15*
X43180000Y-76200000D03*
X33020000Y-76200000D03*
D16*
X34800000Y-75560000D03*
X34800000Y-81280000D03*
D17*
X34290000Y-73660000D03*
D16*
X41400000Y-75560000D03*
D17*
X40640000Y-71120000D03*
D16*
X41400000Y-81280000D03*
%TD*%
D14*
%TO.C,SW8*%
X57150000Y-28575000D03*
D15*
X57150000Y-33655000D03*
X57150000Y-23495000D03*
D16*
X62230000Y-31875000D03*
X56510000Y-31875000D03*
D17*
X54610000Y-32385000D03*
X52070000Y-26035000D03*
D16*
X62230000Y-25275000D03*
X56510000Y-25275000D03*
%TD*%
D18*
%TO.C,S3*%
X21431250Y-83185000D03*
D14*
X21431250Y-67945000D03*
D18*
X-2381250Y-83185000D03*
D14*
X-2381250Y-67945000D03*
%TD*%
D23*
%TO.C,J4*%
X61227011Y-9984489D03*
X56147011Y-11000489D03*
X61227011Y-12016489D03*
D24*
X57417011Y-10365489D03*
X57417011Y-11635489D03*
X58687011Y-10365489D03*
X58687011Y-11635489D03*
X59957011Y-10365489D03*
X59957011Y-11635489D03*
%TD*%
D25*
%TO.C,J5*%
X64595000Y16768750D03*
D26*
X64595000Y19308750D03*
%TD*%
D27*
%TO.C,J3*%
X5725000Y12153000D03*
D28*
X6975000Y12153000D03*
X8225000Y12153000D03*
X9475000Y12153000D03*
X10725000Y12153000D03*
X11975000Y12153000D03*
X13225000Y12153000D03*
%TD*%
D27*
%TO.C,J2*%
X17975000Y12153000D03*
D28*
X19225000Y12153000D03*
%TD*%
M02*
