G04 #@! TF.GenerationSoftware,KiCad,Pcbnew,(6.0.5)*
G04 #@! TF.CreationDate,2022-06-15T23:33:22+02:00*
G04 #@! TF.ProjectId,whalepad,7768616c-6570-4616-942e-6b696361645f,rev?*
G04 #@! TF.SameCoordinates,Original*
G04 #@! TF.FileFunction,Soldermask,Top*
G04 #@! TF.FilePolarity,Negative*
%FSLAX46Y46*%
G04 Gerber Fmt 4.6, Leading zero omitted, Abs format (unit mm)*
G04 Created by KiCad (PCBNEW (6.0.5)) date 2022-06-15 23:33:22*
%MOMM*%
%LPD*%
G01*
G04 APERTURE LIST*
G04 Aperture macros list*
%AMRoundRect*
0 Rectangle with rounded corners*
0 $1 Rounding radius*
0 $2 $3 $4 $5 $6 $7 $8 $9 X,Y pos of 4 corners*
0 Add a 4 corners polygon primitive as box body*
4,1,4,$2,$3,$4,$5,$6,$7,$8,$9,$2,$3,0*
0 Add four circle primitives for the rounded corners*
1,1,$1+$1,$2,$3*
1,1,$1+$1,$4,$5*
1,1,$1+$1,$6,$7*
1,1,$1+$1,$8,$9*
0 Add four rect primitives between the rounded corners*
20,1,$1+$1,$2,$3,$4,$5,0*
20,1,$1+$1,$4,$5,$6,$7,0*
20,1,$1+$1,$6,$7,$8,$9,0*
20,1,$1+$1,$8,$9,$2,$3,0*%
G04 Aperture macros list end*
%ADD10R,0.700000X0.600000*%
%ADD11RoundRect,0.135000X-0.185000X0.135000X-0.185000X-0.135000X0.185000X-0.135000X0.185000X0.135000X0*%
%ADD12RoundRect,0.140000X-0.140000X-0.170000X0.140000X-0.170000X0.140000X0.170000X-0.140000X0.170000X0*%
%ADD13RoundRect,0.062500X-0.325000X-0.062500X0.325000X-0.062500X0.325000X0.062500X-0.325000X0.062500X0*%
%ADD14R,0.700000X1.300000*%
%ADD15RoundRect,0.062500X-0.375000X-0.062500X0.375000X-0.062500X0.375000X0.062500X-0.375000X0.062500X0*%
%ADD16RoundRect,0.062500X-0.062500X-0.375000X0.062500X-0.375000X0.062500X0.375000X-0.062500X0.375000X0*%
%ADD17R,1.600000X1.600000*%
%ADD18C,3.987800*%
%ADD19C,1.750000*%
%ADD20RoundRect,0.150000X-0.150000X0.587500X-0.150000X-0.587500X0.150000X-0.587500X0.150000X0.587500X0*%
%ADD21RoundRect,0.140000X0.170000X-0.140000X0.170000X0.140000X-0.170000X0.140000X-0.170000X-0.140000X0*%
%ADD22RoundRect,0.135000X0.185000X-0.135000X0.185000X0.135000X-0.185000X0.135000X-0.185000X-0.135000X0*%
%ADD23RoundRect,0.135000X0.135000X0.185000X-0.135000X0.185000X-0.135000X-0.185000X0.135000X-0.185000X0*%
%ADD24C,0.650000*%
%ADD25R,0.600000X1.450000*%
%ADD26R,0.300000X1.450000*%
%ADD27O,1.000000X2.100000*%
%ADD28O,1.000000X1.600000*%
%ADD29RoundRect,0.150000X0.512500X0.150000X-0.512500X0.150000X-0.512500X-0.150000X0.512500X-0.150000X0*%
%ADD30RoundRect,0.140000X-0.170000X0.140000X-0.170000X-0.140000X0.170000X-0.140000X0.170000X0.140000X0*%
%ADD31RoundRect,0.218750X-0.218750X-0.256250X0.218750X-0.256250X0.218750X0.256250X-0.218750X0.256250X0*%
%ADD32RoundRect,0.218750X-0.256250X0.218750X-0.256250X-0.218750X0.256250X-0.218750X0.256250X0.218750X0*%
%ADD33RoundRect,0.147500X-0.147500X-0.172500X0.147500X-0.172500X0.147500X0.172500X-0.147500X0.172500X0*%
%ADD34RoundRect,0.200000X-0.400000X-0.200000X0.400000X-0.200000X0.400000X0.200000X-0.400000X0.200000X0*%
%ADD35RoundRect,0.200000X0.200000X-0.400000X0.200000X0.400000X-0.200000X0.400000X-0.200000X-0.400000X0*%
%ADD36RoundRect,0.200000X0.400000X0.200000X-0.400000X0.200000X-0.400000X-0.200000X0.400000X-0.200000X0*%
%ADD37RoundRect,0.200000X0.300000X0.200000X-0.300000X0.200000X-0.300000X-0.200000X0.300000X-0.200000X0*%
%ADD38C,1.000000*%
%ADD39RoundRect,0.140000X0.140000X0.170000X-0.140000X0.170000X-0.140000X-0.170000X0.140000X-0.170000X0*%
%ADD40RoundRect,0.147500X-0.172500X0.147500X-0.172500X-0.147500X0.172500X-0.147500X0.172500X0.147500X0*%
%ADD41C,0.990600*%
%ADD42R,1.700000X1.700000*%
%ADD43O,1.700000X1.700000*%
%ADD44RoundRect,0.200000X-0.200000X-0.450000X0.200000X-0.450000X0.200000X0.450000X-0.200000X0.450000X0*%
%ADD45O,0.800000X1.300000*%
G04 APERTURE END LIST*
D10*
G04 #@! TO.C,D9*
X14287500Y-27875000D03*
X14287500Y-29275000D03*
G04 #@! TD*
D11*
G04 #@! TO.C,R9*
X44867893Y15921000D03*
X44867893Y14901000D03*
G04 #@! TD*
D12*
G04 #@! TO.C,C1*
X12911011Y26963000D03*
X13871011Y26963000D03*
G04 #@! TD*
D13*
G04 #@! TO.C,U3*
X7322261Y17953000D03*
X7322261Y17453000D03*
X7322261Y16953000D03*
X7322261Y16453000D03*
X9247261Y16453000D03*
X9247261Y16953000D03*
X9247261Y17453000D03*
X9247261Y17953000D03*
D14*
X8284761Y17203000D03*
G04 #@! TD*
D11*
G04 #@! TO.C,R10*
X46067893Y15921000D03*
X46067893Y14901000D03*
G04 #@! TD*
G04 #@! TO.C,R7*
X13691011Y20173000D03*
X13691011Y19153000D03*
G04 #@! TD*
D10*
G04 #@! TO.C,D7*
X33337500Y-8825000D03*
X33337500Y-10225000D03*
G04 #@! TD*
D15*
G04 #@! TO.C,U2*
X10753511Y23713000D03*
X10753511Y23213000D03*
X10753511Y22713000D03*
X10753511Y22213000D03*
D16*
X11441011Y21525500D03*
X11941011Y21525500D03*
X12441011Y21525500D03*
X12941011Y21525500D03*
D15*
X13628511Y22213000D03*
X13628511Y22713000D03*
X13628511Y23213000D03*
X13628511Y23713000D03*
D16*
X12941011Y24400500D03*
X12441011Y24400500D03*
X11941011Y24400500D03*
X11441011Y24400500D03*
D17*
X12191011Y22963000D03*
G04 #@! TD*
D18*
G04 #@! TO.C,SW1*
X0Y0D03*
D19*
X-5080000Y0D03*
X5080000Y0D03*
G04 #@! TD*
D10*
G04 #@! TO.C,D2*
X23812500Y10225000D03*
X23812500Y8825000D03*
G04 #@! TD*
D20*
G04 #@! TO.C,Q1*
X31525000Y13588500D03*
X29625000Y13588500D03*
X30575000Y11713500D03*
G04 #@! TD*
D19*
G04 #@! TO.C,SW5*
X5080000Y-19050000D03*
X-5080000Y-19050000D03*
D18*
X0Y-19050000D03*
G04 #@! TD*
G04 #@! TO.C,SW2*
X19050000Y0D03*
D19*
X24130000Y0D03*
X13970000Y0D03*
G04 #@! TD*
D18*
G04 #@! TO.C,SW7*
X38100000Y-19050000D03*
D19*
X43180000Y-19050000D03*
X33020000Y-19050000D03*
G04 #@! TD*
D21*
G04 #@! TO.C,C4*
X22775000Y25271000D03*
X22775000Y26231000D03*
G04 #@! TD*
D22*
G04 #@! TO.C,R13*
X44867893Y19091000D03*
X44867893Y20111000D03*
G04 #@! TD*
D20*
G04 #@! TO.C,Q2*
X37025000Y13588500D03*
X35125000Y13588500D03*
X36075000Y11713500D03*
G04 #@! TD*
D10*
G04 #@! TO.C,D12*
X14287500Y-46925000D03*
X14287500Y-48325000D03*
G04 #@! TD*
D18*
G04 #@! TO.C,S1*
X48895000Y-16668750D03*
X48895000Y-40481250D03*
G04 #@! TD*
D23*
G04 #@! TO.C,R8*
X22235000Y31293000D03*
X21215000Y31293000D03*
G04 #@! TD*
D19*
G04 #@! TO.C,SW12*
X5080000Y-57150000D03*
X-5080000Y-57150000D03*
D18*
X0Y-57150000D03*
G04 #@! TD*
D19*
G04 #@! TO.C,SW10*
X13970000Y-38100000D03*
D18*
X19050000Y-38100000D03*
D19*
X24130000Y-38100000D03*
G04 #@! TD*
D18*
G04 #@! TO.C,SW16*
X9525000Y-76200000D03*
D19*
X14605000Y-76200000D03*
X4445000Y-76200000D03*
G04 #@! TD*
D22*
G04 #@! TO.C,R12*
X46067893Y19091000D03*
X46067893Y20111000D03*
G04 #@! TD*
D23*
G04 #@! TO.C,R1*
X17835000Y31290427D03*
X16815000Y31290427D03*
G04 #@! TD*
D24*
G04 #@! TO.C,J1*
X31465000Y35063000D03*
X25685000Y35063000D03*
D25*
X31825000Y33618000D03*
X31025000Y33618000D03*
D26*
X29825000Y33618000D03*
X28825000Y33618000D03*
X28325000Y33618000D03*
X27325000Y33618000D03*
D25*
X26125000Y33618000D03*
X25325000Y33618000D03*
X25325000Y33618000D03*
X26125000Y33618000D03*
D26*
X26825000Y33618000D03*
X27825000Y33618000D03*
X29325000Y33618000D03*
X30325000Y33618000D03*
D25*
X31025000Y33618000D03*
X31825000Y33618000D03*
D27*
X32895000Y34533000D03*
D28*
X32895000Y38713000D03*
D27*
X24255000Y34533000D03*
D28*
X24255000Y38713000D03*
G04 #@! TD*
D10*
G04 #@! TO.C,D11*
X33337500Y-27875000D03*
X33337500Y-29275000D03*
G04 #@! TD*
G04 #@! TO.C,D5*
X14287500Y-8825000D03*
X14287500Y-10225000D03*
G04 #@! TD*
G04 #@! TO.C,D4*
X42862500Y10225000D03*
X42862500Y8825000D03*
G04 #@! TD*
D23*
G04 #@! TO.C,R2*
X15135000Y31290427D03*
X14115000Y31290427D03*
G04 #@! TD*
D21*
G04 #@! TO.C,C10*
X46075000Y12671000D03*
X46075000Y13631000D03*
G04 #@! TD*
D29*
G04 #@! TO.C,U1*
X29212500Y22713000D03*
X29212500Y23663000D03*
X29212500Y24613000D03*
X26937500Y24613000D03*
X26937500Y23663000D03*
X26937500Y22713000D03*
G04 #@! TD*
D19*
G04 #@! TO.C,SW9*
X-5080000Y-38100000D03*
X5080000Y-38100000D03*
D18*
X0Y-38100000D03*
G04 #@! TD*
D22*
G04 #@! TO.C,R5*
X14991011Y23653000D03*
X14991011Y24673000D03*
G04 #@! TD*
D19*
G04 #@! TO.C,SW3*
X43180000Y0D03*
X33020000Y0D03*
D18*
X38100000Y0D03*
G04 #@! TD*
G04 #@! TO.C,SW11*
X38100000Y-38100000D03*
D19*
X33020000Y-38100000D03*
X43180000Y-38100000D03*
G04 #@! TD*
D18*
G04 #@! TO.C,S2*
X48895000Y-78581250D03*
X48895000Y-54768750D03*
G04 #@! TD*
D10*
G04 #@! TO.C,D6*
X23812500Y-8825000D03*
X23812500Y-10225000D03*
G04 #@! TD*
D19*
G04 #@! TO.C,SW15*
X57150000Y-61595000D03*
X57150000Y-71755000D03*
D18*
X57150000Y-66675000D03*
G04 #@! TD*
D30*
G04 #@! TO.C,C11*
X44875000Y13645000D03*
X44875000Y12685000D03*
G04 #@! TD*
D31*
G04 #@! TO.C,F2*
X7228511Y23563000D03*
X8803511Y23563000D03*
G04 #@! TD*
D30*
G04 #@! TO.C,C8*
X9391011Y22243000D03*
X9391011Y21283000D03*
G04 #@! TD*
D19*
G04 #@! TO.C,SW13*
X13970000Y-57150000D03*
X24130000Y-57150000D03*
D18*
X19050000Y-57150000D03*
G04 #@! TD*
D21*
G04 #@! TO.C,C3*
X25175000Y25271000D03*
X25175000Y26231000D03*
G04 #@! TD*
D10*
G04 #@! TO.C,D1*
X14287500Y10225000D03*
X14287500Y8825000D03*
G04 #@! TD*
D32*
G04 #@! TO.C,F1*
X23975000Y29344500D03*
X23975000Y27769500D03*
G04 #@! TD*
D10*
G04 #@! TO.C,D15*
X42862500Y-46925000D03*
X42862500Y-48325000D03*
G04 #@! TD*
D30*
G04 #@! TO.C,C5*
X16191011Y22243000D03*
X16191011Y21283000D03*
G04 #@! TD*
D19*
G04 #@! TO.C,SW4*
X62230000Y0D03*
D18*
X57150000Y0D03*
D19*
X52070000Y0D03*
G04 #@! TD*
G04 #@! TO.C,SW6*
X24130000Y-19050000D03*
D18*
X19050000Y-19050000D03*
D19*
X13970000Y-19050000D03*
G04 #@! TD*
D10*
G04 #@! TO.C,D17*
X42862500Y-65975000D03*
X42862500Y-67375000D03*
G04 #@! TD*
D30*
G04 #@! TO.C,C7*
X8191011Y22243000D03*
X8191011Y21283000D03*
G04 #@! TD*
D10*
G04 #@! TO.C,D8*
X42862500Y-8825000D03*
X42862500Y-10225000D03*
G04 #@! TD*
D30*
G04 #@! TO.C,C6*
X14991011Y22243000D03*
X14991011Y21283000D03*
G04 #@! TD*
D33*
G04 #@! TO.C,L2*
X21240000Y28893000D03*
X22210000Y28893000D03*
G04 #@! TD*
D10*
G04 #@! TO.C,D14*
X33337500Y-46925000D03*
X33337500Y-48325000D03*
G04 #@! TD*
D30*
G04 #@! TO.C,C12*
X6075000Y18163000D03*
X6075000Y17203000D03*
G04 #@! TD*
D10*
G04 #@! TO.C,D16*
X33337500Y-65975000D03*
X33337500Y-67375000D03*
G04 #@! TD*
D12*
G04 #@! TO.C,C2*
X12911011Y25763000D03*
X13871011Y25763000D03*
G04 #@! TD*
D10*
G04 #@! TO.C,D10*
X23812500Y-27875000D03*
X23812500Y-29275000D03*
G04 #@! TD*
D34*
G04 #@! TO.C,U4*
X48075000Y23351000D03*
X48075000Y22151000D03*
X48075000Y20951000D03*
X48075000Y19751000D03*
X48075000Y18551000D03*
X48075000Y17351000D03*
X48075000Y16151000D03*
X48075000Y14951000D03*
X48075000Y13751000D03*
X48075000Y12551000D03*
X48075000Y11351000D03*
X48075000Y10151000D03*
D35*
X49375000Y8651000D03*
X50575000Y8651000D03*
X51775000Y8651000D03*
X52975000Y8651000D03*
X54175000Y8651000D03*
X55375000Y8651000D03*
X56575000Y8651000D03*
X57775000Y8651000D03*
X58975000Y8651000D03*
X60175000Y8651000D03*
D36*
X61475000Y10151000D03*
X61475000Y11351000D03*
X61475000Y12551000D03*
X61475000Y13751000D03*
X61475000Y14951000D03*
X61475000Y16151000D03*
X61475000Y17351000D03*
X61475000Y18551000D03*
X61475000Y19751000D03*
X61475000Y20951000D03*
X61475000Y22151000D03*
X61475000Y23351000D03*
D37*
X49875000Y22751000D03*
X49875000Y21551000D03*
X49875000Y20351000D03*
X49875000Y19151000D03*
X49875000Y17951000D03*
X49875000Y16751000D03*
X49875000Y15551000D03*
X49875000Y14351000D03*
X49875000Y13151000D03*
X49875000Y11951000D03*
X49875000Y10751000D03*
X59675000Y10751000D03*
X59675000Y11951000D03*
X59675000Y13151000D03*
X59675000Y14351000D03*
X59675000Y15551000D03*
X59675000Y16751000D03*
X59675000Y17951000D03*
X59675000Y19151000D03*
X59675000Y20351000D03*
X59675000Y21551000D03*
X59675000Y22751000D03*
D38*
X52445000Y16121000D03*
X58005000Y10481000D03*
X52065000Y14041000D03*
X56775000Y10481000D03*
G04 #@! TD*
D39*
G04 #@! TO.C,C9*
X22205000Y30093000D03*
X21245000Y30093000D03*
G04 #@! TD*
D10*
G04 #@! TO.C,D3*
X33337500Y10225000D03*
X33337500Y8825000D03*
G04 #@! TD*
D40*
G04 #@! TO.C,L1*
X23975000Y26236000D03*
X23975000Y25266000D03*
G04 #@! TD*
D18*
G04 #@! TO.C,SW14*
X38100000Y-57150000D03*
D19*
X43180000Y-57150000D03*
X33020000Y-57150000D03*
G04 #@! TD*
D23*
G04 #@! TO.C,R4*
X11501011Y26963000D03*
X10481011Y26963000D03*
G04 #@! TD*
G04 #@! TO.C,R6*
X11501011Y25763000D03*
X10481011Y25763000D03*
G04 #@! TD*
D18*
G04 #@! TO.C,SW17*
X38100000Y-76200000D03*
D19*
X43180000Y-76200000D03*
X33020000Y-76200000D03*
G04 #@! TD*
D23*
G04 #@! TO.C,R3*
X9501011Y24963000D03*
X8481011Y24963000D03*
G04 #@! TD*
D18*
G04 #@! TO.C,SW8*
X57150000Y-28575000D03*
D19*
X57150000Y-33655000D03*
X57150000Y-23495000D03*
G04 #@! TD*
D18*
G04 #@! TO.C,S3*
X21431250Y-67945000D03*
X-2381250Y-67945000D03*
G04 #@! TD*
D22*
G04 #@! TO.C,R11*
X33375000Y13141000D03*
X33375000Y14161000D03*
G04 #@! TD*
D10*
G04 #@! TO.C,D13*
X23812500Y-46925000D03*
X23812500Y-48325000D03*
G04 #@! TD*
D41*
G04 #@! TO.C,J4*
X61227011Y-9984489D03*
X56147011Y-11000489D03*
X61227011Y-12016489D03*
G04 #@! TD*
D42*
G04 #@! TO.C,J5*
X64595000Y16768750D03*
D43*
X64595000Y19308750D03*
G04 #@! TD*
D44*
G04 #@! TO.C,J3*
X5725000Y12153000D03*
D45*
X6975000Y12153000D03*
X8225000Y12153000D03*
X9475000Y12153000D03*
X10725000Y12153000D03*
X11975000Y12153000D03*
X13225000Y12153000D03*
G04 #@! TD*
D44*
G04 #@! TO.C,J2*
X17975000Y12153000D03*
D45*
X19225000Y12153000D03*
G04 #@! TD*
M02*
