M48
; DRILL file {KiCad (6.0.5)} date Wed Jun 15 23:33:38 2022
; FORMAT={-:-/ absolute / metric / decimal}
; #@! TF.CreationDate,2022-06-15T23:33:38+02:00
; #@! TF.GenerationSoftware,Kicad,Pcbnew,(6.0.5)
; #@! TF.FileFunction,Plated,1,2,PTH
FMAT,2
METRIC
; #@! TA.AperFunction,Plated,PTH,ViaDrill
T1C0.300
; #@! TA.AperFunction,Plated,PTH,ComponentDrill
T2C0.400
; #@! TA.AperFunction,Plated,PTH,ComponentDrill
T3C0.500
; #@! TA.AperFunction,Plated,PTH,ComponentDrill
T4C0.600
; #@! TA.AperFunction,Plated,PTH,ComponentDrill
T5C1.000
; #@! TA.AperFunction,Plated,PTH,ComponentDrill
T6C1.400
; #@! TA.AperFunction,Plated,PTH,ComponentDrill
T7C1.524
; #@! TA.AperFunction,Plated,PTH,ComponentDrill
T8C3.048
%
G90
G05
T1
X-8.525Y28.984
X-8.525Y16.396
X-8.525Y5.308
X-8.525Y-5.78
X-8.525Y-16.868
X-8.525Y-27.956
X-8.525Y-39.045
X-8.525Y-50.133
X-8.525Y-61.221
X-8.525Y-72.309
X-8.525Y-83.397
X-5.697Y31.812
X-5.697Y-86.225
X3.303Y31.812
X5.229Y17.203
X5.727Y-86.225
X6.091Y16.263
X7.229Y22.363
X8.191Y20.463
X8.291Y18.463
X9.391Y20.463
X9.591Y26.963
X10.491Y18.078
X10.491Y17.328
X10.591Y21.363
X10.775Y16.603
X11.941Y19.477
X12.191Y22.963
X12.303Y31.865
X12.691Y20.463
X12.911Y27.863
X13.691Y17.853
X14.691Y26.963
X14.691Y25.763
X14.991Y20.463
X15.975Y31.29
X16.191Y20.463
X17.091Y22.243
X17.151Y-86.225
X18.675Y31.29
X19.975Y20.213
X20.375Y31.29
X21.875Y25.271
X22.21Y27.976
X22.775Y27.157
X25.175Y27.157
X25.325Y32.518
X26.125Y32.518
X26.975Y31.469
X27.275Y25.763
X27.275Y18.261
X27.275Y12.463
X27.275Y9.415
X27.375Y30.763
X27.7Y17.475
X28.45Y17.475
X28.575Y-86.225
X28.775Y31.363
X28.875Y25.763
X28.875Y18.261
X28.875Y12.463
X29.225Y9.415
X29.225Y7.415
X29.825Y31.768
X30.775Y23.951
X30.775Y20.951
X31.025Y32.518
X31.825Y32.518
X32.575Y32.518
X32.775Y23.951
X34.775Y23.951
X34.775Y20.951
X36.775Y23.951
X38.468Y16.525
X38.468Y14.177
X38.775Y23.951
X38.775Y20.951
X39.999Y-86.225
X40.575Y9.551
X40.775Y23.951
X41.275Y7.513
X41.475Y13.651
X41.716Y14.577
X41.903Y7.0
X42.775Y23.951
X42.775Y20.951
X42.862Y-11.281
X42.862Y-49.381
X42.865Y12.004
X43.164Y14.877
X44.775Y23.951
X44.875Y11.851
X45.475Y14.251
X45.775Y6.8
X46.075Y11.835
X46.775Y23.951
X46.775Y20.951
X46.775Y6.551
X46.868Y17.351
X46.975Y10.351
X49.775Y23.951
X50.103Y6.2
X51.423Y-86.225
X51.775Y23.951
X51.775Y20.951
X51.775Y17.951
X51.775Y11.951
X53.775Y23.951
X55.775Y23.951
X55.775Y3.751
X56.5Y6.385
X57.417Y-9.402
X57.417Y-12.599
X57.775Y23.951
X57.775Y20.951
X57.775Y17.951
X57.775Y14.951
X57.775Y11.951
X58.687Y-12.599
X59.775Y23.951
X60.503Y7.2
X61.175Y9.151
X62.775Y23.951
X62.847Y-86.225
X62.975Y-11.049
X63.775Y13.951
X63.975Y3.751
X64.775Y23.951
X64.999Y-8.651
X65.675Y2.998
X65.675Y-7.608
X65.675Y-28.819
X65.675Y-51.58
X65.675Y-62.185
X65.675Y-72.791
X65.675Y-83.397
X65.775Y13.951
T2
X49.875Y22.751
X49.875Y21.551
X49.875Y20.351
X49.875Y19.151
X49.875Y17.951
X49.875Y16.751
X49.875Y15.551
X49.875Y14.351
X49.875Y13.151
X49.875Y11.951
X49.875Y10.751
X59.675Y22.751
X59.675Y21.551
X59.675Y20.351
X59.675Y19.151
X59.675Y17.951
X59.675Y16.751
X59.675Y15.551
X59.675Y14.351
X59.675Y13.151
X59.675Y11.951
X59.675Y10.751
T3
X5.725Y12.153
X6.975Y12.153
X8.225Y12.153
X9.475Y12.153
X10.725Y12.153
X11.975Y12.153
X13.225Y12.153
X17.975Y12.153
X19.225Y12.153
T5
X64.595Y19.309
X64.595Y16.769
T6
X-3.3Y0.64
X-3.3Y-5.08
X-3.3Y-18.41
X-3.3Y-24.13
X-3.3Y-37.46
X-3.3Y-43.18
X-3.3Y-56.51
X-3.3Y-62.23
X3.3Y0.64
X3.3Y-5.08
X3.3Y-18.41
X3.3Y-24.13
X3.3Y-37.46
X3.3Y-43.18
X3.3Y-56.51
X3.3Y-62.23
X6.225Y-75.56
X6.225Y-81.28
X12.825Y-75.56
X12.825Y-81.28
X15.75Y0.64
X15.75Y-5.08
X15.75Y-18.41
X15.75Y-24.13
X15.75Y-37.46
X15.75Y-43.18
X15.75Y-56.51
X15.75Y-62.23
X22.35Y0.64
X22.35Y-5.08
X22.35Y-18.41
X22.35Y-24.13
X22.35Y-37.46
X22.35Y-43.18
X22.35Y-56.51
X22.35Y-62.23
X34.8Y0.64
X34.8Y-5.08
X34.8Y-18.41
X34.8Y-24.13
X34.8Y-37.46
X34.8Y-43.18
X34.8Y-56.51
X34.8Y-62.23
X34.8Y-75.56
X34.8Y-81.28
X41.4Y0.64
X41.4Y-5.08
X41.4Y-18.41
X41.4Y-24.13
X41.4Y-37.46
X41.4Y-43.18
X41.4Y-56.51
X41.4Y-62.23
X41.4Y-75.56
X41.4Y-81.28
X53.85Y0.64
X53.85Y-5.08
X56.51Y-25.275
X56.51Y-31.875
X56.51Y-63.375
X56.51Y-69.975
X60.45Y0.64
X60.45Y-5.08
X62.23Y-25.275
X62.23Y-31.875
X62.23Y-63.375
X62.23Y-69.975
T7
X-3.81Y2.54
X-3.81Y-16.51
X-3.81Y-35.56
X-3.81Y-54.61
X2.54Y5.08
X2.54Y-13.97
X2.54Y-33.02
X2.54Y-52.07
X5.715Y-73.66
X12.065Y-71.12
X15.24Y2.54
X15.24Y-16.51
X15.24Y-35.56
X15.24Y-54.61
X21.59Y5.08
X21.59Y-13.97
X21.59Y-33.02
X21.59Y-52.07
X34.29Y2.54
X34.29Y-16.51
X34.29Y-35.56
X34.29Y-54.61
X34.29Y-73.66
X40.64Y5.08
X40.64Y-13.97
X40.64Y-33.02
X40.64Y-52.07
X40.64Y-71.12
X52.07Y-26.035
X52.07Y-64.135
X53.34Y2.54
X54.61Y-32.385
X54.61Y-70.485
X59.69Y5.08
T8
X-2.381Y-83.185
X21.431Y-83.185
X64.135Y-16.669
X64.135Y-40.481
X64.135Y-54.769
X64.135Y-78.581
T4
X24.255Y38.413G85X24.255Y39.013
G05
X24.255Y33.983G85X24.255Y35.083
G05
X32.895Y38.413G85X32.895Y39.013
G05
X32.895Y33.983G85X32.895Y35.083
G05
T0
M30
