M48
; DRILL file {KiCad (6.0.5)} date Wed Jun 15 23:33:38 2022
; FORMAT={-:-/ absolute / metric / decimal}
; #@! TF.CreationDate,2022-06-15T23:33:38+02:00
; #@! TF.GenerationSoftware,Kicad,Pcbnew,(6.0.5)
; #@! TF.FileFunction,NonPlated,1,2,NPTH
FMAT,2
METRIC
; #@! TA.AperFunction,NonPlated,NPTH,ComponentDrill
T1C0.650
; #@! TA.AperFunction,NonPlated,NPTH,ComponentDrill
T2C0.991
; #@! TA.AperFunction,NonPlated,NPTH,ComponentDrill
T3C1.750
; #@! TA.AperFunction,NonPlated,NPTH,ComponentDrill
T4C3.988
%
G90
G05
T1
X25.685Y35.063
X31.465Y35.063
T2
X56.147Y-11.0
X61.227Y-9.984
X61.227Y-12.016
T3
X-5.08Y0.0
X-5.08Y-19.05
X-5.08Y-38.1
X-5.08Y-57.15
X4.445Y-76.2
X5.08Y0.0
X5.08Y-19.05
X5.08Y-38.1
X5.08Y-57.15
X13.97Y0.0
X13.97Y-19.05
X13.97Y-38.1
X13.97Y-57.15
X14.605Y-76.2
X24.13Y0.0
X24.13Y-19.05
X24.13Y-38.1
X24.13Y-57.15
X33.02Y0.0
X33.02Y-19.05
X33.02Y-38.1
X33.02Y-57.15
X33.02Y-76.2
X43.18Y0.0
X43.18Y-19.05
X43.18Y-38.1
X43.18Y-57.15
X43.18Y-76.2
X52.07Y0.0
X57.15Y-23.495
X57.15Y-33.655
X57.15Y-61.595
X57.15Y-71.755
X62.23Y0.0
T4
X-2.381Y-67.945
X0.0Y0.0
X0.0Y-19.05
X0.0Y-38.1
X0.0Y-57.15
X9.525Y-76.2
X19.05Y0.0
X19.05Y-19.05
X19.05Y-38.1
X19.05Y-57.15
X21.431Y-67.945
X38.1Y0.0
X38.1Y-19.05
X38.1Y-38.1
X38.1Y-57.15
X38.1Y-76.2
X48.895Y-16.669
X48.895Y-40.481
X48.895Y-54.769
X48.895Y-78.581
X57.15Y0.0
X57.15Y-28.575
X57.15Y-66.675
T0
M30
