%TF.GenerationSoftware,KiCad,Pcbnew,(6.0.5)*%
%TF.CreationDate,2022-06-15T23:09:50+02:00*%
%TF.ProjectId,plate-SI,706c6174-652d-4534-992e-6b696361645f,rev?*%
%TF.SameCoordinates,Original*%
%TF.FileFunction,Copper,L2,Bot*%
%TF.FilePolarity,Positive*%
%FSLAX46Y46*%
G04 Gerber Fmt 4.6, Leading zero omitted, Abs format (unit mm)*
G04 Created by KiCad (PCBNEW (6.0.5)) date 2022-06-15 23:09:50*
%MOMM*%
%LPD*%
G01*
G04 APERTURE LIST*
G04 Aperture macros list*
%AMRoundRect*
0 Rectangle with rounded corners*
0 $1 Rounding radius*
0 $2 $3 $4 $5 $6 $7 $8 $9 X,Y pos of 4 corners*
0 Add a 4 corners polygon primitive as box body*
4,1,4,$2,$3,$4,$5,$6,$7,$8,$9,$2,$3,0*
0 Add four circle primitives for the rounded corners*
1,1,$1+$1,$2,$3*
1,1,$1+$1,$4,$5*
1,1,$1+$1,$6,$7*
1,1,$1+$1,$8,$9*
0 Add four rect primitives between the rounded corners*
20,1,$1+$1,$2,$3,$4,$5,0*
20,1,$1+$1,$4,$5,$6,$7,0*
20,1,$1+$1,$6,$7,$8,$9,0*
20,1,$1+$1,$8,$9,$2,$3,0*%
G04 Aperture macros list end*
%TA.AperFunction,ComponentPad*%
%ADD10R,1.700000X1.700000*%
%TD*%
%TA.AperFunction,ComponentPad*%
%ADD11O,1.700000X1.700000*%
%TD*%
%TA.AperFunction,ComponentPad*%
%ADD12R,1.800000X1.800000*%
%TD*%
%TA.AperFunction,ComponentPad*%
%ADD13C,1.800000*%
%TD*%
%TA.AperFunction,ComponentPad*%
%ADD14RoundRect,0.200000X-0.200000X-0.450000X0.200000X-0.450000X0.200000X0.450000X-0.200000X0.450000X0*%
%TD*%
%TA.AperFunction,ComponentPad*%
%ADD15O,0.800000X1.300000*%
%TD*%
%TA.AperFunction,Conductor*%
%ADD16C,0.250000*%
%TD*%
G04 APERTURE END LIST*
D10*
%TO.P,J2,1,Pin_1*%
%TO.N,SDA*%
X-300000Y27612500D03*
D11*
%TO.P,J2,2,Pin_2*%
%TO.N,SCL*%
X-300000Y25072500D03*
%TO.P,J2,3,Pin_3*%
%TO.N,+VSW*%
X-300000Y22532500D03*
%TO.P,J2,4,Pin_4*%
%TO.N,GND*%
X-300000Y19992500D03*
%TD*%
D12*
%TO.P,D8,1,K*%
%TO.N,GND*%
X64000000Y23025000D03*
D13*
%TO.P,D8,2,A*%
%TO.N,LED_CHG*%
X64000000Y25565000D03*
%TD*%
D14*
%TO.P,J1,1,Pin_1*%
%TO.N,GND*%
X-3750000Y9800000D03*
D15*
%TO.P,J1,2,Pin_2*%
%TO.N,SDA*%
X-2500000Y9800000D03*
%TO.P,J1,3,Pin_3*%
%TO.N,SCL*%
X-1250000Y9800000D03*
%TO.P,J1,4,Pin_4*%
%TO.N,P1.09*%
X0Y9800000D03*
%TO.P,J1,5,Pin_5*%
%TO.N,LED_CHG*%
X1250000Y9800000D03*
%TO.P,J1,6,Pin_6*%
%TO.N,VDDH*%
X2500000Y9800000D03*
%TO.P,J1,7,Pin_7*%
%TO.N,+VSW*%
X3750000Y9800000D03*
%TD*%
D16*
%TO.N,GND*%
X-2592999Y8825480D02*
X3842999Y8825480D01*
X-3750000Y9800000D02*
X-3750000Y9775374D01*
X-2656627Y16610581D02*
X-592893Y18674315D01*
X-2949520Y11039320D02*
X-2949520Y15903474D01*
X-3750000Y9800000D02*
X-3750000Y9824626D01*
X63225009Y10875000D02*
X63225009Y22250009D01*
X-300000Y19381422D02*
X-300000Y19992500D01*
X-3750000Y9824626D02*
X-3242413Y10332213D01*
X63225009Y22250009D02*
X64000000Y23025000D01*
X4196553Y8971927D02*
X4653180Y9428554D01*
X-3750000Y9775374D02*
X-2946552Y8971926D01*
X5006733Y9575000D02*
X61925009Y9575000D01*
X-2656627Y16610581D02*
G75*
G03*
X-2949520Y15903474I707101J-707104D01*
G01*
X-2949521Y11039320D02*
G75*
G02*
X-3242414Y10332214I-999993J-3D01*
G01*
X-300001Y19381422D02*
G75*
G02*
X-592894Y18674316I-999993J-3D01*
G01*
X63225000Y10875000D02*
G75*
G02*
X61925009Y9575000I-1300000J0D01*
G01*
X3842999Y8825487D02*
G75*
G03*
X4196553Y8971927I1J500013D01*
G01*
X5006733Y9574976D02*
G75*
G03*
X4653181Y9428553I-33J-499976D01*
G01*
X-2946552Y8971926D02*
G75*
G03*
X-2592999Y8825480I353553J353556D01*
G01*
%TO.N,SDA*%
X-2207107Y16424383D02*
X581618Y19213108D01*
X874511Y19920215D02*
X874511Y26023775D01*
X-2500000Y9800000D02*
X-2500000Y15717276D01*
X581618Y26730882D02*
X-300000Y27612500D01*
X874510Y19920215D02*
G75*
G02*
X581617Y19213109I-999993J-3D01*
G01*
X-2499999Y15717276D02*
G75*
G02*
X-2207106Y16424382I999993J3D01*
G01*
X874510Y26023775D02*
G75*
G03*
X581617Y26730881I-999993J3D01*
G01*
%TO.N,SCL*%
X-1250000Y9824626D02*
X-1757587Y10332213D01*
X-1250000Y9800000D02*
X-1250000Y9824626D01*
X824031Y29250000D02*
X-1400000Y29250000D01*
X1324031Y19734018D02*
X1324031Y28750000D01*
X-1900000Y28750000D02*
X-1900000Y27086714D01*
X-1607107Y26379607D02*
X-300000Y25072500D01*
X-1757587Y16238186D02*
X1031138Y19026911D01*
X-2050480Y11039320D02*
X-2050480Y15531079D01*
X-1757587Y16238186D02*
G75*
G03*
X-2050480Y15531079I707101J-707104D01*
G01*
X-1900000Y28750000D02*
G75*
G02*
X-1400000Y29250000I500001J-1D01*
G01*
X1324035Y19734018D02*
G75*
G02*
X1031138Y19026911I-999995J2D01*
G01*
X-1607107Y26379607D02*
G75*
G02*
X-1900000Y27086714I707106J707106D01*
G01*
X-2050479Y11039320D02*
G75*
G03*
X-1757586Y10332214I999993J-3D01*
G01*
X824031Y29250001D02*
G75*
G02*
X1324031Y28750000I-1J-500001D01*
G01*
%TO.N,LED_CHG*%
X1250000Y9900000D02*
X1978074Y10628074D01*
X5007213Y10024520D02*
X61775489Y10024520D01*
X4196553Y10628073D02*
X4653660Y10170966D01*
X2331627Y10774520D02*
X3842999Y10774520D01*
X63068382Y24633382D02*
X64000000Y25565000D01*
X1250000Y9800000D02*
X1250000Y9900000D01*
X62775489Y11024520D02*
X62775489Y23926275D01*
X61775489Y10024511D02*
G75*
G03*
X62775489Y11024520I11J999989D01*
G01*
X5007213Y10024524D02*
G75*
G02*
X4653661Y10170967I-13J499976D01*
G01*
X2331627Y10774495D02*
G75*
G03*
X1978074Y10628074I-27J-499995D01*
G01*
X63068367Y24633397D02*
G75*
G03*
X62775489Y23926275I707133J-707097D01*
G01*
X3842999Y10774513D02*
G75*
G02*
X4196553Y10628073I1J-500013D01*
G01*
%TD*%
M02*
