%TF.GenerationSoftware,KiCad,Pcbnew,(6.0.5)*%
%TF.CreationDate,2022-06-15T23:09:50+02:00*%
%TF.ProjectId,plate-SI,706c6174-652d-4534-992e-6b696361645f,rev?*%
%TF.SameCoordinates,Original*%
%TF.FileFunction,Legend,Top*%
%TF.FilePolarity,Positive*%
%FSLAX46Y46*%
G04 Gerber Fmt 4.6, Leading zero omitted, Abs format (unit mm)*
G04 Created by KiCad (PCBNEW (6.0.5)) date 2022-06-15 23:09:50*
%MOMM*%
%LPD*%
G01*
G04 APERTURE LIST*
G04 Aperture macros list*
%AMRoundRect*
0 Rectangle with rounded corners*
0 $1 Rounding radius*
0 $2 $3 $4 $5 $6 $7 $8 $9 X,Y pos of 4 corners*
0 Add a 4 corners polygon primitive as box body*
4,1,4,$2,$3,$4,$5,$6,$7,$8,$9,$2,$3,0*
0 Add four circle primitives for the rounded corners*
1,1,$1+$1,$2,$3*
1,1,$1+$1,$4,$5*
1,1,$1+$1,$6,$7*
1,1,$1+$1,$8,$9*
0 Add four rect primitives between the rounded corners*
20,1,$1+$1,$2,$3,$4,$5,0*
20,1,$1+$1,$4,$5,$6,$7,0*
20,1,$1+$1,$6,$7,$8,$9,0*
20,1,$1+$1,$8,$9,$2,$3,0*%
G04 Aperture macros list end*
%ADD10C,0.120000*%
%ADD11R,1.700000X1.700000*%
%ADD12O,1.700000X1.700000*%
%ADD13RoundRect,0.105000X-0.245000X-0.245000X0.245000X-0.245000X0.245000X0.245000X-0.245000X0.245000X0*%
%ADD14RoundRect,0.250000X0.450000X-0.325000X0.450000X0.325000X-0.450000X0.325000X-0.450000X-0.325000X0*%
%ADD15R,1.800000X1.800000*%
%ADD16C,1.800000*%
%ADD17RoundRect,0.200000X-0.200000X-0.450000X0.200000X-0.450000X0.200000X0.450000X-0.200000X0.450000X0*%
%ADD18O,0.800000X1.300000*%
G04 APERTURE END LIST*
D10*
%TO.C,D1*%
X-7175000Y18212500D02*
X-7175000Y18712500D01*
X-6075000Y18562500D02*
X-5275000Y18562500D01*
X-7175000Y18712500D02*
X-6675000Y18712500D01*
%TO.C,D7*%
X62485000Y22440000D02*
X62485000Y25300000D01*
X60565000Y25300000D02*
X60565000Y22440000D01*
X60565000Y22440000D02*
X62485000Y22440000D01*
%TO.C,D3*%
X-7175000Y23712500D02*
X-6675000Y23712500D01*
X-6075000Y23562500D02*
X-5275000Y23562500D01*
X-7175000Y23212500D02*
X-7175000Y23712500D01*
%TO.C,D5*%
X-7175000Y28712500D02*
X-6675000Y28712500D01*
X-6075000Y28562500D02*
X-5275000Y28562500D01*
X-7175000Y28212500D02*
X-7175000Y28712500D01*
%TO.C,D6*%
X-7175000Y30712500D02*
X-7175000Y31212500D01*
X-6075000Y31062500D02*
X-5275000Y31062500D01*
X-7175000Y31212500D02*
X-6675000Y31212500D01*
%TO.C,D8*%
X65060000Y24105000D02*
X65060000Y24836000D01*
X62940000Y24105000D02*
X62940000Y24836000D01*
%TO.C,D4*%
X-7175000Y25712500D02*
X-7175000Y26212500D01*
X-7175000Y26212500D02*
X-6675000Y26212500D01*
X-6075000Y26062500D02*
X-5275000Y26062500D01*
%TO.C,D2*%
X-7175000Y21212500D02*
X-6675000Y21212500D01*
X-7175000Y20712500D02*
X-7175000Y21212500D01*
X-6075000Y21062500D02*
X-5275000Y21062500D01*
%TD*%
%LPC*%
D11*
%TO.C,J2*%
X-300000Y27612500D03*
D12*
X-300000Y25072500D03*
X-300000Y22532500D03*
X-300000Y19992500D03*
%TD*%
D13*
%TO.C,D1*%
X-6590000Y18112500D03*
X-6590000Y17012500D03*
X-4760000Y17012500D03*
X-4760000Y18112500D03*
%TD*%
D14*
%TO.C,D7*%
X61525000Y25325000D03*
X61525000Y23275000D03*
%TD*%
D13*
%TO.C,D3*%
X-6590000Y23112500D03*
X-6590000Y22012500D03*
X-4760000Y22012500D03*
X-4760000Y23112500D03*
%TD*%
%TO.C,D5*%
X-6590000Y28112500D03*
X-6590000Y27012500D03*
X-4760000Y27012500D03*
X-4760000Y28112500D03*
%TD*%
%TO.C,D6*%
X-6590000Y30612500D03*
X-6590000Y29512500D03*
X-4760000Y29512500D03*
X-4760000Y30612500D03*
%TD*%
D15*
%TO.C,D8*%
X64000000Y23025000D03*
D16*
X64000000Y25565000D03*
%TD*%
D13*
%TO.C,D4*%
X-6590000Y25612500D03*
X-6590000Y24512500D03*
X-4760000Y24512500D03*
X-4760000Y25612500D03*
%TD*%
%TO.C,D2*%
X-6590000Y20612500D03*
X-6590000Y19512500D03*
X-4760000Y19512500D03*
X-4760000Y20612500D03*
%TD*%
D17*
%TO.C,J1*%
X-3750000Y9800000D03*
D18*
X-2500000Y9800000D03*
X-1250000Y9800000D03*
X0Y9800000D03*
X1250000Y9800000D03*
X2500000Y9800000D03*
X3750000Y9800000D03*
%TD*%
M02*
