%TF.GenerationSoftware,KiCad,Pcbnew,(6.0.5)*%
%TF.CreationDate,2022-06-15T23:09:50+02:00*%
%TF.ProjectId,plate-SI,706c6174-652d-4534-992e-6b696361645f,rev?*%
%TF.SameCoordinates,Original*%
%TF.FileFunction,Legend,Bot*%
%TF.FilePolarity,Positive*%
%FSLAX46Y46*%
G04 Gerber Fmt 4.6, Leading zero omitted, Abs format (unit mm)*
G04 Created by KiCad (PCBNEW (6.0.5)) date 2022-06-15 23:09:50*
%MOMM*%
%LPD*%
G01*
G04 APERTURE LIST*
G04 Aperture macros list*
%AMRoundRect*
0 Rectangle with rounded corners*
0 $1 Rounding radius*
0 $2 $3 $4 $5 $6 $7 $8 $9 X,Y pos of 4 corners*
0 Add a 4 corners polygon primitive as box body*
4,1,4,$2,$3,$4,$5,$6,$7,$8,$9,$2,$3,0*
0 Add four circle primitives for the rounded corners*
1,1,$1+$1,$2,$3*
1,1,$1+$1,$4,$5*
1,1,$1+$1,$6,$7*
1,1,$1+$1,$8,$9*
0 Add four rect primitives between the rounded corners*
20,1,$1+$1,$2,$3,$4,$5,0*
20,1,$1+$1,$4,$5,$6,$7,0*
20,1,$1+$1,$6,$7,$8,$9,0*
20,1,$1+$1,$8,$9,$2,$3,0*%
G04 Aperture macros list end*
%ADD10C,0.150000*%
%ADD11C,0.120000*%
%ADD12R,1.700000X1.700000*%
%ADD13O,1.700000X1.700000*%
%ADD14R,1.800000X1.800000*%
%ADD15C,1.800000*%
%ADD16RoundRect,0.200000X-0.200000X-0.450000X0.200000X-0.450000X0.200000X0.450000X-0.200000X0.450000X0*%
%ADD17O,0.800000X1.300000*%
G04 APERTURE END LIST*
D10*
X3883214Y20492500D02*
X3978452Y20540119D01*
X4121309Y20540119D01*
X4264166Y20492500D01*
X4359404Y20397261D01*
X4407023Y20302023D01*
X4454642Y20111547D01*
X4454642Y19968690D01*
X4407023Y19778214D01*
X4359404Y19682976D01*
X4264166Y19587738D01*
X4121309Y19540119D01*
X4026071Y19540119D01*
X3883214Y19587738D01*
X3835595Y19635357D01*
X3835595Y19968690D01*
X4026071Y19968690D01*
X3407023Y19540119D02*
X3407023Y20540119D01*
X2835595Y19540119D01*
X2835595Y20540119D01*
X2359404Y19540119D02*
X2359404Y20540119D01*
X2121309Y20540119D01*
X1978452Y20492500D01*
X1883214Y20397261D01*
X1835595Y20302023D01*
X1787976Y20111547D01*
X1787976Y19968690D01*
X1835595Y19778214D01*
X1883214Y19682976D01*
X1978452Y19587738D01*
X2121309Y19540119D01*
X2359404Y19540119D01*
X4359404Y23080119D02*
X4026071Y22080119D01*
X3692738Y23080119D01*
X3359404Y22080119D02*
X3359404Y23080119D01*
X3121309Y23080119D01*
X2978452Y23032500D01*
X2883214Y22937261D01*
X2835595Y22842023D01*
X2787976Y22651547D01*
X2787976Y22508690D01*
X2835595Y22318214D01*
X2883214Y22222976D01*
X2978452Y22127738D01*
X3121309Y22080119D01*
X3359404Y22080119D01*
X2359404Y22080119D02*
X2359404Y23080119D01*
X2121309Y23080119D01*
X1978452Y23032500D01*
X1883214Y22937261D01*
X1835595Y22842023D01*
X1787976Y22651547D01*
X1787976Y22508690D01*
X1835595Y22318214D01*
X1883214Y22222976D01*
X1978452Y22127738D01*
X2121309Y22080119D01*
X2359404Y22080119D01*
X4168928Y24667738D02*
X4026071Y24620119D01*
X3787976Y24620119D01*
X3692738Y24667738D01*
X3645119Y24715357D01*
X3597500Y24810595D01*
X3597500Y24905833D01*
X3645119Y25001071D01*
X3692738Y25048690D01*
X3787976Y25096309D01*
X3978452Y25143928D01*
X4073690Y25191547D01*
X4121309Y25239166D01*
X4168928Y25334404D01*
X4168928Y25429642D01*
X4121309Y25524880D01*
X4073690Y25572500D01*
X3978452Y25620119D01*
X3740357Y25620119D01*
X3597500Y25572500D01*
X2597499Y24715357D02*
X2645119Y24667738D01*
X2787976Y24620119D01*
X2883214Y24620119D01*
X3026071Y24667738D01*
X3121309Y24762976D01*
X3168928Y24858214D01*
X3216547Y25048690D01*
X3216547Y25191547D01*
X3168928Y25382023D01*
X3121309Y25477261D01*
X3026071Y25572500D01*
X2883214Y25620119D01*
X2787976Y25620119D01*
X2645119Y25572500D01*
X2597499Y25524880D01*
X1692738Y24620119D02*
X2168928Y24620119D01*
X2168928Y25620119D01*
X4216547Y27257738D02*
X4073690Y27210119D01*
X3835595Y27210119D01*
X3740357Y27257738D01*
X3692738Y27305357D01*
X3645119Y27400595D01*
X3645119Y27495833D01*
X3692738Y27591071D01*
X3740357Y27638690D01*
X3835595Y27686309D01*
X4026071Y27733928D01*
X4121309Y27781547D01*
X4168928Y27829166D01*
X4216547Y27924404D01*
X4216547Y28019642D01*
X4168928Y28114880D01*
X4121309Y28162500D01*
X4026071Y28210119D01*
X3787976Y28210119D01*
X3645119Y28162500D01*
X3216547Y27210119D02*
X3216547Y28210119D01*
X2978452Y28210119D01*
X2835595Y28162500D01*
X2740357Y28067261D01*
X2692738Y27972023D01*
X2645119Y27781547D01*
X2645119Y27638690D01*
X2692738Y27448214D01*
X2740357Y27352976D01*
X2835595Y27257738D01*
X2978452Y27210119D01*
X3216547Y27210119D01*
X2264166Y27495833D02*
X1787976Y27495833D01*
X2359404Y27210119D02*
X2026071Y28210119D01*
X1692738Y27210119D01*
X4619047Y-8652380D02*
X4619047Y-9366666D01*
X4666666Y-9509523D01*
X4761904Y-9604761D01*
X4904761Y-9652380D01*
X4999999Y-9652380D01*
X3666666Y-9652380D02*
X4142857Y-9652380D01*
X4142857Y-8652380D01*
X2761904Y-9557142D02*
X2809523Y-9604761D01*
X2952380Y-9652380D01*
X3047619Y-9652380D01*
X3190476Y-9604761D01*
X3285714Y-9509523D01*
X3333333Y-9414285D01*
X3380952Y-9223809D01*
X3380952Y-9080952D01*
X3333333Y-8890476D01*
X3285714Y-8795238D01*
X3190476Y-8700000D01*
X3047619Y-8652380D01*
X2952380Y-8652380D01*
X2809523Y-8700000D01*
X2761904Y-8747619D01*
X2047619Y-8652380D02*
X2047619Y-9366666D01*
X2095238Y-9509523D01*
X2190476Y-9604761D01*
X2333333Y-9652380D01*
X2428571Y-9652380D01*
X1095238Y-9652380D02*
X1571428Y-9652380D01*
X1571428Y-8652380D01*
X190476Y-9557142D02*
X238095Y-9604761D01*
X380952Y-9652380D01*
X476190Y-9652380D01*
X619047Y-9604761D01*
X714285Y-9509523D01*
X761904Y-9414285D01*
X809523Y-9223809D01*
X809523Y-9080952D01*
X761904Y-8890476D01*
X714285Y-8795238D01*
X619047Y-8700000D01*
X476190Y-8652380D01*
X380952Y-8652380D01*
X238095Y-8700000D01*
X190476Y-8747619D01*
X-523809Y-8652380D02*
X-523809Y-9366666D01*
X-476190Y-9509523D01*
X-380952Y-9604761D01*
X-238095Y-9652380D01*
X-142857Y-9652380D01*
X-1476190Y-9652380D02*
X-1000000Y-9652380D01*
X-1000000Y-8652380D01*
X-2380952Y-9557142D02*
X-2333333Y-9604761D01*
X-2190476Y-9652380D01*
X-2095238Y-9652380D01*
X-1952380Y-9604761D01*
X-1857142Y-9509523D01*
X-1809523Y-9414285D01*
X-1761904Y-9223809D01*
X-1761904Y-9080952D01*
X-1809523Y-8890476D01*
X-1857142Y-8795238D01*
X-1952380Y-8700000D01*
X-2095238Y-8652380D01*
X-2190476Y-8652380D01*
X-2333333Y-8700000D01*
X-2380952Y-8747619D01*
X-3095238Y-8652380D02*
X-3095238Y-9366666D01*
X-3047619Y-9509523D01*
X-2952380Y-9604761D01*
X-2809523Y-9652380D01*
X-2714285Y-9652380D01*
X-4047619Y-9652380D02*
X-3571428Y-9652380D01*
X-3571428Y-8652380D01*
X-4952380Y-9557142D02*
X-4904761Y-9604761D01*
X-4761904Y-9652380D01*
X-4666666Y-9652380D01*
X-4523809Y-9604761D01*
X-4428571Y-9509523D01*
X-4380952Y-9414285D01*
X-4333333Y-9223809D01*
X-4333333Y-9080952D01*
X-4380952Y-8890476D01*
X-4428571Y-8795238D01*
X-4523809Y-8700000D01*
X-4666666Y-8652380D01*
X-4761904Y-8652380D01*
X-4904761Y-8700000D01*
X-4952380Y-8747619D01*
%TO.C,J2*%
X33333Y30490119D02*
X33333Y29775833D01*
X80952Y29632976D01*
X176190Y29537738D01*
X319047Y29490119D01*
X414285Y29490119D01*
X-395238Y30394880D02*
X-442857Y30442500D01*
X-538095Y30490119D01*
X-776190Y30490119D01*
X-871428Y30442500D01*
X-919047Y30394880D01*
X-966666Y30299642D01*
X-966666Y30204404D01*
X-919047Y30061547D01*
X-347619Y29490119D01*
X-966666Y29490119D01*
%TO.C,D1*%
X-4936904Y17110119D02*
X-4936904Y18110119D01*
X-5175000Y18110119D01*
X-5317857Y18062500D01*
X-5413095Y17967261D01*
X-5460714Y17872023D01*
X-5508333Y17681547D01*
X-5508333Y17538690D01*
X-5460714Y17348214D01*
X-5413095Y17252976D01*
X-5317857Y17157738D01*
X-5175000Y17110119D01*
X-4936904Y17110119D01*
X-6460714Y17110119D02*
X-5889285Y17110119D01*
X-6174999Y17110119D02*
X-6174999Y18110119D01*
X-6079761Y17967261D01*
X-5984523Y17872023D01*
X-5889285Y17824404D01*
%TO.C,D7*%
X62263095Y20347619D02*
X62263095Y21347619D01*
X62025000Y21347619D01*
X61882142Y21300000D01*
X61786904Y21204761D01*
X61739285Y21109523D01*
X61691666Y20919047D01*
X61691666Y20776190D01*
X61739285Y20585714D01*
X61786904Y20490476D01*
X61882142Y20395238D01*
X62025000Y20347619D01*
X62263095Y20347619D01*
X61358333Y21347619D02*
X60691666Y21347619D01*
X61120238Y20347619D01*
%TO.C,D3*%
X-4936904Y22110119D02*
X-4936904Y23110119D01*
X-5175000Y23110119D01*
X-5317857Y23062500D01*
X-5413095Y22967261D01*
X-5460714Y22872023D01*
X-5508333Y22681547D01*
X-5508333Y22538690D01*
X-5460714Y22348214D01*
X-5413095Y22252976D01*
X-5317857Y22157738D01*
X-5175000Y22110119D01*
X-4936904Y22110119D01*
X-5841666Y23110119D02*
X-6460714Y23110119D01*
X-6127380Y22729166D01*
X-6270238Y22729166D01*
X-6365476Y22681547D01*
X-6413095Y22633928D01*
X-6460714Y22538690D01*
X-6460714Y22300595D01*
X-6413095Y22205357D01*
X-6365476Y22157738D01*
X-6270238Y22110119D01*
X-5984523Y22110119D01*
X-5889285Y22157738D01*
X-5841666Y22205357D01*
%TO.C,D5*%
X-4936904Y27110119D02*
X-4936904Y28110119D01*
X-5175000Y28110119D01*
X-5317857Y28062500D01*
X-5413095Y27967261D01*
X-5460714Y27872023D01*
X-5508333Y27681547D01*
X-5508333Y27538690D01*
X-5460714Y27348214D01*
X-5413095Y27252976D01*
X-5317857Y27157738D01*
X-5175000Y27110119D01*
X-4936904Y27110119D01*
X-6413095Y28110119D02*
X-5936904Y28110119D01*
X-5889285Y27633928D01*
X-5936904Y27681547D01*
X-6032142Y27729166D01*
X-6270238Y27729166D01*
X-6365476Y27681547D01*
X-6413095Y27633928D01*
X-6460714Y27538690D01*
X-6460714Y27300595D01*
X-6413095Y27205357D01*
X-6365476Y27157738D01*
X-6270238Y27110119D01*
X-6032142Y27110119D01*
X-5936904Y27157738D01*
X-5889285Y27205357D01*
%TO.C,D6*%
X-4936904Y29610119D02*
X-4936904Y30610119D01*
X-5175000Y30610119D01*
X-5317857Y30562500D01*
X-5413095Y30467261D01*
X-5460714Y30372023D01*
X-5508333Y30181547D01*
X-5508333Y30038690D01*
X-5460714Y29848214D01*
X-5413095Y29752976D01*
X-5317857Y29657738D01*
X-5175000Y29610119D01*
X-4936904Y29610119D01*
X-6365476Y30610119D02*
X-6174999Y30610119D01*
X-6079761Y30562500D01*
X-6032142Y30514880D01*
X-5936904Y30372023D01*
X-5889285Y30181547D01*
X-5889285Y29800595D01*
X-5936904Y29705357D01*
X-5984523Y29657738D01*
X-6079761Y29610119D01*
X-6270238Y29610119D01*
X-6365476Y29657738D01*
X-6413095Y29705357D01*
X-6460714Y29800595D01*
X-6460714Y30038690D01*
X-6413095Y30133928D01*
X-6365476Y30181547D01*
X-6270238Y30229166D01*
X-6079761Y30229166D01*
X-5984523Y30181547D01*
X-5936904Y30133928D01*
X-5889285Y30038690D01*
%TO.C,D8*%
X64828095Y20347619D02*
X64828095Y21347619D01*
X64590000Y21347619D01*
X64447142Y21300000D01*
X64351904Y21204761D01*
X64304285Y21109523D01*
X64256666Y20919047D01*
X64256666Y20776190D01*
X64304285Y20585714D01*
X64351904Y20490476D01*
X64447142Y20395238D01*
X64590000Y20347619D01*
X64828095Y20347619D01*
X63685238Y20919047D02*
X63780476Y20966666D01*
X63828095Y21014285D01*
X63875714Y21109523D01*
X63875714Y21157142D01*
X63828095Y21252380D01*
X63780476Y21300000D01*
X63685238Y21347619D01*
X63494761Y21347619D01*
X63399523Y21300000D01*
X63351904Y21252380D01*
X63304285Y21157142D01*
X63304285Y21109523D01*
X63351904Y21014285D01*
X63399523Y20966666D01*
X63494761Y20919047D01*
X63685238Y20919047D01*
X63780476Y20871428D01*
X63828095Y20823809D01*
X63875714Y20728571D01*
X63875714Y20538095D01*
X63828095Y20442857D01*
X63780476Y20395238D01*
X63685238Y20347619D01*
X63494761Y20347619D01*
X63399523Y20395238D01*
X63351904Y20442857D01*
X63304285Y20538095D01*
X63304285Y20728571D01*
X63351904Y20823809D01*
X63399523Y20871428D01*
X63494761Y20919047D01*
%TO.C,D4*%
X-4936904Y24610119D02*
X-4936904Y25610119D01*
X-5175000Y25610119D01*
X-5317857Y25562500D01*
X-5413095Y25467261D01*
X-5460714Y25372023D01*
X-5508333Y25181547D01*
X-5508333Y25038690D01*
X-5460714Y24848214D01*
X-5413095Y24752976D01*
X-5317857Y24657738D01*
X-5175000Y24610119D01*
X-4936904Y24610119D01*
X-6365476Y25276785D02*
X-6365476Y24610119D01*
X-6127380Y25657738D02*
X-5889285Y24943452D01*
X-6508333Y24943452D01*
%TO.C,D2*%
X-4936904Y19610119D02*
X-4936904Y20610119D01*
X-5175000Y20610119D01*
X-5317857Y20562500D01*
X-5413095Y20467261D01*
X-5460714Y20372023D01*
X-5508333Y20181547D01*
X-5508333Y20038690D01*
X-5460714Y19848214D01*
X-5413095Y19752976D01*
X-5317857Y19657738D01*
X-5175000Y19610119D01*
X-4936904Y19610119D01*
X-5889285Y20514880D02*
X-5936904Y20562500D01*
X-6032142Y20610119D01*
X-6270238Y20610119D01*
X-6365476Y20562500D01*
X-6413095Y20514880D01*
X-6460714Y20419642D01*
X-6460714Y20324404D01*
X-6413095Y20181547D01*
X-5841666Y19610119D01*
X-6460714Y19610119D01*
%TO.C,J1*%
X6883333Y9697619D02*
X6883333Y8983333D01*
X6930952Y8840476D01*
X7026190Y8745238D01*
X7169047Y8697619D01*
X7264285Y8697619D01*
X5883333Y8697619D02*
X6454761Y8697619D01*
X6169047Y8697619D02*
X6169047Y9697619D01*
X6264285Y9554761D01*
X6359523Y9459523D01*
X6454761Y9411904D01*
D11*
%TO.C,J2*%
X1030000Y27612500D02*
X1030000Y28942500D01*
X-1630000Y26342500D02*
X-1630000Y18662500D01*
X1030000Y26342500D02*
X1030000Y18662500D01*
X1030000Y18662500D02*
X-1630000Y18662500D01*
X1030000Y28942500D02*
X-300000Y28942500D01*
X1030000Y26342500D02*
X-1630000Y26342500D01*
%TO.C,J1*%
X-5360000Y8640000D02*
X-5360000Y14360000D01*
X4290000Y8940000D02*
X4290000Y8640000D01*
X5360000Y14360000D02*
X0Y14360000D01*
X-5360000Y14360000D02*
X0Y14360000D01*
X4290000Y8640000D02*
X5360000Y8640000D01*
X-4290000Y8640000D02*
X-5360000Y8640000D01*
X-4000000Y8650000D02*
X-4000000Y8350000D01*
X-4290000Y8940000D02*
X-4290000Y8640000D01*
X-4000000Y8350000D02*
X-4500000Y8350000D01*
X0Y8940000D02*
X-4290000Y8940000D01*
X5360000Y8640000D02*
X5360000Y14360000D01*
X0Y8940000D02*
X4290000Y8940000D01*
%TD*%
%LPC*%
D12*
%TO.C,J2*%
X-300000Y27612500D03*
D13*
X-300000Y25072500D03*
X-300000Y22532500D03*
X-300000Y19992500D03*
%TD*%
D14*
%TO.C,D8*%
X64000000Y23025000D03*
D15*
X64000000Y25565000D03*
%TD*%
D16*
%TO.C,J1*%
X-3750000Y9800000D03*
D17*
X-2500000Y9800000D03*
X-1250000Y9800000D03*
X0Y9800000D03*
X1250000Y9800000D03*
X2500000Y9800000D03*
X3750000Y9800000D03*
%TD*%
M02*
