%TF.GenerationSoftware,KiCad,Pcbnew,(6.0.5)*%
%TF.CreationDate,2022-06-15T23:09:50+02:00*%
%TF.ProjectId,plate-SI,706c6174-652d-4534-992e-6b696361645f,rev?*%
%TF.SameCoordinates,Original*%
%TF.FileFunction,Copper,L1,Top*%
%TF.FilePolarity,Positive*%
%FSLAX46Y46*%
G04 Gerber Fmt 4.6, Leading zero omitted, Abs format (unit mm)*
G04 Created by KiCad (PCBNEW (6.0.5)) date 2022-06-15 23:09:50*
%MOMM*%
%LPD*%
G01*
G04 APERTURE LIST*
G04 Aperture macros list*
%AMRoundRect*
0 Rectangle with rounded corners*
0 $1 Rounding radius*
0 $2 $3 $4 $5 $6 $7 $8 $9 X,Y pos of 4 corners*
0 Add a 4 corners polygon primitive as box body*
4,1,4,$2,$3,$4,$5,$6,$7,$8,$9,$2,$3,0*
0 Add four circle primitives for the rounded corners*
1,1,$1+$1,$2,$3*
1,1,$1+$1,$4,$5*
1,1,$1+$1,$6,$7*
1,1,$1+$1,$8,$9*
0 Add four rect primitives between the rounded corners*
20,1,$1+$1,$2,$3,$4,$5,0*
20,1,$1+$1,$4,$5,$6,$7,0*
20,1,$1+$1,$6,$7,$8,$9,0*
20,1,$1+$1,$8,$9,$2,$3,0*%
G04 Aperture macros list end*
%TA.AperFunction,ComponentPad*%
%ADD10R,1.700000X1.700000*%
%TD*%
%TA.AperFunction,ComponentPad*%
%ADD11O,1.700000X1.700000*%
%TD*%
%TA.AperFunction,SMDPad,CuDef*%
%ADD12RoundRect,0.105000X-0.245000X-0.245000X0.245000X-0.245000X0.245000X0.245000X-0.245000X0.245000X0*%
%TD*%
%TA.AperFunction,SMDPad,CuDef*%
%ADD13RoundRect,0.250000X0.450000X-0.325000X0.450000X0.325000X-0.450000X0.325000X-0.450000X-0.325000X0*%
%TD*%
%TA.AperFunction,ComponentPad*%
%ADD14R,1.800000X1.800000*%
%TD*%
%TA.AperFunction,ComponentPad*%
%ADD15C,1.800000*%
%TD*%
%TA.AperFunction,ComponentPad*%
%ADD16RoundRect,0.200000X-0.200000X-0.450000X0.200000X-0.450000X0.200000X0.450000X-0.200000X0.450000X0*%
%TD*%
%TA.AperFunction,ComponentPad*%
%ADD17O,0.800000X1.300000*%
%TD*%
%TA.AperFunction,Conductor*%
%ADD18C,0.250000*%
%TD*%
G04 APERTURE END LIST*
D10*
%TO.P,J2,1,Pin_1*%
%TO.N,SDA*%
X-300000Y27612500D03*
D11*
%TO.P,J2,2,Pin_2*%
%TO.N,SCL*%
X-300000Y25072500D03*
%TO.P,J2,3,Pin_3*%
%TO.N,+VSW*%
X-300000Y22532500D03*
%TO.P,J2,4,Pin_4*%
%TO.N,GND*%
X-300000Y19992500D03*
%TD*%
D12*
%TO.P,D1,1,DOUT*%
%TO.N,Net-(D1-Pad1)*%
X-6590000Y18112500D03*
%TO.P,D1,2,VSS*%
%TO.N,GND*%
X-6590000Y17012500D03*
%TO.P,D1,3,DIN*%
%TO.N,P1.09*%
X-4760000Y17012500D03*
%TO.P,D1,4,VDD*%
%TO.N,+VSW*%
X-4760000Y18112500D03*
%TD*%
D13*
%TO.P,D7,2,A*%
%TO.N,LED_CHG*%
X61525000Y25325000D03*
%TO.P,D7,1,K*%
%TO.N,GND*%
X61525000Y23275000D03*
%TD*%
D12*
%TO.P,D3,1,DOUT*%
%TO.N,Net-(D3-Pad1)*%
X-6590000Y23112500D03*
%TO.P,D3,2,VSS*%
%TO.N,GND*%
X-6590000Y22012500D03*
%TO.P,D3,3,DIN*%
%TO.N,Net-(D2-Pad1)*%
X-4760000Y22012500D03*
%TO.P,D3,4,VDD*%
%TO.N,+VSW*%
X-4760000Y23112500D03*
%TD*%
%TO.P,D5,1,DOUT*%
%TO.N,Net-(D5-Pad1)*%
X-6590000Y28112500D03*
%TO.P,D5,2,VSS*%
%TO.N,GND*%
X-6590000Y27012500D03*
%TO.P,D5,3,DIN*%
%TO.N,Net-(D4-Pad1)*%
X-4760000Y27012500D03*
%TO.P,D5,4,VDD*%
%TO.N,+VSW*%
X-4760000Y28112500D03*
%TD*%
%TO.P,D6,1,DOUT*%
%TO.N,unconnected-(D6-Pad1)*%
X-6590000Y30612500D03*
%TO.P,D6,2,VSS*%
%TO.N,GND*%
X-6590000Y29512500D03*
%TO.P,D6,3,DIN*%
%TO.N,Net-(D5-Pad1)*%
X-4760000Y29512500D03*
%TO.P,D6,4,VDD*%
%TO.N,+VSW*%
X-4760000Y30612500D03*
%TD*%
D14*
%TO.P,D8,1,K*%
%TO.N,GND*%
X64000000Y23025000D03*
D15*
%TO.P,D8,2,A*%
%TO.N,LED_CHG*%
X64000000Y25565000D03*
%TD*%
D12*
%TO.P,D4,1,DOUT*%
%TO.N,Net-(D4-Pad1)*%
X-6590000Y25612500D03*
%TO.P,D4,2,VSS*%
%TO.N,GND*%
X-6590000Y24512500D03*
%TO.P,D4,3,DIN*%
%TO.N,Net-(D3-Pad1)*%
X-4760000Y24512500D03*
%TO.P,D4,4,VDD*%
%TO.N,+VSW*%
X-4760000Y25612500D03*
%TD*%
%TO.P,D2,1,DOUT*%
%TO.N,Net-(D2-Pad1)*%
X-6590000Y20612500D03*
%TO.P,D2,2,VSS*%
%TO.N,GND*%
X-6590000Y19512500D03*
%TO.P,D2,3,DIN*%
%TO.N,Net-(D1-Pad1)*%
X-4760000Y19512500D03*
%TO.P,D2,4,VDD*%
%TO.N,+VSW*%
X-4760000Y20612500D03*
%TD*%
D16*
%TO.P,J1,1,Pin_1*%
%TO.N,GND*%
X-3750000Y9800000D03*
D17*
%TO.P,J1,2,Pin_2*%
%TO.N,SDA*%
X-2500000Y9800000D03*
%TO.P,J1,3,Pin_3*%
%TO.N,SCL*%
X-1250000Y9800000D03*
%TO.P,J1,4,Pin_4*%
%TO.N,P1.09*%
X0Y9800000D03*
%TO.P,J1,5,Pin_5*%
%TO.N,LED_CHG*%
X1250000Y9800000D03*
%TO.P,J1,6,Pin_6*%
%TO.N,VDDH*%
X2500000Y9800000D03*
%TO.P,J1,7,Pin_7*%
%TO.N,+VSW*%
X3750000Y9800000D03*
%TD*%
D18*
%TO.N,GND*%
X63750000Y23275000D02*
X64000000Y23025000D01*
X61525000Y23275000D02*
X63750000Y23275000D01*
%TO.N,LED_CHG*%
X63760000Y25325000D02*
X64000000Y25565000D01*
X61525000Y25325000D02*
X63760000Y25325000D01*
%TO.N,GND*%
X-7675000Y19012500D02*
X-7675000Y17512500D01*
X-7675000Y16512500D02*
X-7675000Y10800000D01*
X-6675000Y9800000D02*
X-3750000Y9800000D01*
X-6590000Y19512500D02*
X-7175000Y19512500D01*
X-7675000Y27512500D02*
X-7675000Y26512500D01*
X-7675000Y20112500D02*
X-7675000Y19012500D01*
X-7675000Y21512500D02*
X-7675000Y20112500D01*
X-6590000Y22012500D02*
X-7175000Y22012500D01*
X-7675000Y25012500D02*
X-7675000Y24012500D01*
X-7675000Y29012500D02*
X-7675000Y27512500D01*
X-6590000Y22012500D02*
X-7175000Y22012500D01*
X-6590000Y24512500D02*
X-7175000Y24512500D01*
X-6590000Y24512500D02*
X-7175000Y24512500D01*
X-6590000Y19512500D02*
X-7175000Y19512500D01*
X-7675000Y17512500D02*
X-7675000Y16512500D01*
X-6590000Y27012500D02*
X-7175000Y27012500D01*
X-6590000Y17012500D02*
X-7175000Y17012500D01*
X-7675000Y20112500D02*
X-7675000Y20012500D01*
X-6590000Y27012500D02*
X-7175000Y27012500D01*
X-7675000Y24012500D02*
X-7675000Y22512500D01*
X-6590000Y29512500D02*
X-7175000Y29512500D01*
X-6590000Y17012500D02*
X-7175000Y17012500D01*
X-7675000Y26512500D02*
X-7675000Y25012500D01*
X-7675000Y22512500D02*
X-7675000Y21512500D01*
X-7675000Y26512500D02*
G75*
G02*
X-7175000Y27012500I500001J-1D01*
G01*
X-7175000Y17012500D02*
G75*
G02*
X-7675000Y17512500I1J500001D01*
G01*
X-7675000Y24012500D02*
G75*
G02*
X-7175000Y24512500I500001J-1D01*
G01*
X-6675000Y9800000D02*
G75*
G02*
X-7675000Y10800000I-1J999999D01*
G01*
X-7675000Y19012500D02*
G75*
G02*
X-7175000Y19512500I500001J-1D01*
G01*
X-7175000Y27012500D02*
G75*
G02*
X-7675000Y27512500I1J500001D01*
G01*
X-7175000Y19512500D02*
G75*
G02*
X-7675000Y20012500I1J500001D01*
G01*
X-7175000Y22012500D02*
G75*
G02*
X-7675000Y22512500I1J500001D01*
G01*
X-7675000Y21512500D02*
G75*
G02*
X-7175000Y22012500I500001J-1D01*
G01*
X-7675000Y16512500D02*
G75*
G02*
X-7175000Y17012500I500001J-1D01*
G01*
X-7675000Y29012500D02*
G75*
G02*
X-7175000Y29512500I500001J-1D01*
G01*
X-7175000Y24512500D02*
G75*
G02*
X-7675000Y25012500I1J500001D01*
G01*
%TO.N,P1.09*%
X0Y10350000D02*
X0Y9800000D01*
X-3760000Y11350000D02*
X-1000000Y11350000D01*
X-4760000Y17012500D02*
X-4760000Y12350000D01*
X-1000000Y11350000D02*
G75*
G02*
X0Y10350000I1J-999999D01*
G01*
X-3760000Y11350000D02*
G75*
G02*
X-4760000Y12350000I-1J999999D01*
G01*
%TO.N,+VSW*%
X-4760000Y28112500D02*
X-4175000Y28112500D01*
X-4760000Y30612500D02*
X-4175000Y30612500D01*
X-4760000Y28112500D02*
X-4175000Y28112500D01*
X-4760000Y18112500D02*
X-4175000Y18112500D01*
X-4175000Y20612500D02*
X-4760000Y20612500D01*
X-3675000Y22612500D02*
X-3675000Y23612500D01*
X-3675000Y25112500D02*
X-3675000Y26112500D01*
X-3675000Y21112500D02*
X-3675000Y21362500D01*
X-3675000Y17612500D02*
X-3675000Y13350000D01*
X-3675000Y22362500D02*
X-3675000Y21362500D01*
X-3675000Y23612500D02*
X-3675000Y25112500D01*
X-3175000Y21862500D02*
X-2839214Y21862500D01*
X-3675000Y18612500D02*
X-3675000Y20112500D01*
X3750000Y11350000D02*
X3750000Y9800000D01*
X-2132107Y22155393D02*
X-2047893Y22239607D01*
X-4175000Y23112500D02*
X-4760000Y23112500D01*
X-4760000Y25612500D02*
X-4175000Y25612500D01*
X-4760000Y23112500D02*
X-4175000Y23112500D01*
X-4760000Y20612500D02*
X-4175000Y20612500D01*
X-4760000Y25612500D02*
X-4175000Y25612500D01*
X-3675000Y22612500D02*
X-3675000Y22362500D01*
X-3675000Y27612500D02*
X-3675000Y28612500D01*
X-3675000Y28612500D02*
X-3675000Y30112500D01*
X-3675000Y26112500D02*
X-3675000Y27612500D01*
X-1340786Y22532500D02*
X-300000Y22532500D01*
X-3675000Y21112500D02*
X-3675000Y20112500D01*
X-2675000Y12350000D02*
X2750000Y12350000D01*
X-3675000Y18612500D02*
X-3675000Y17612500D01*
X-4175000Y30612500D02*
G75*
G02*
X-3675000Y30112500I-1J-500001D01*
G01*
X-3675000Y13350000D02*
G75*
G03*
X-2675000Y12350000I999999J-1D01*
G01*
X-4175000Y28112500D02*
G75*
G02*
X-3675000Y27612500I-1J-500001D01*
G01*
X-3675000Y21362500D02*
G75*
G02*
X-3175000Y21862500I500001J-1D01*
G01*
X-4175000Y23112500D02*
G75*
G02*
X-3675000Y22612500I-1J-500001D01*
G01*
X-3675000Y21112500D02*
G75*
G02*
X-4175000Y20612500I-500001J1D01*
G01*
X-3675000Y26112500D02*
G75*
G02*
X-4175000Y25612500I-500001J1D01*
G01*
X-4175000Y25612500D02*
G75*
G02*
X-3675000Y25112500I-1J-500001D01*
G01*
X-3675000Y18612500D02*
G75*
G02*
X-4175000Y18112500I-500001J1D01*
G01*
X-4175000Y20612500D02*
G75*
G02*
X-3675000Y20112500I-1J-500001D01*
G01*
X-3675000Y28612500D02*
G75*
G02*
X-4175000Y28112500I-500001J1D01*
G01*
X-3675000Y22362500D02*
G75*
G03*
X-3175000Y21862500I500001J1D01*
G01*
X2750000Y12350000D02*
G75*
G02*
X3750000Y11350000I0J-1000000D01*
G01*
X-3675000Y23612500D02*
G75*
G02*
X-4175000Y23112500I-500001J1D01*
G01*
X-4175000Y18112500D02*
G75*
G02*
X-3675000Y17612500I-1J-500001D01*
G01*
X-1340786Y22532499D02*
G75*
G03*
X-2047892Y22239606I-3J-999993D01*
G01*
X-2132107Y22155393D02*
G75*
G02*
X-2839214Y21862500I-707106J707106D01*
G01*
%TO.N,Net-(D1-Pad1)*%
X-6590000Y18112500D02*
X-6175000Y18112500D01*
X-5675000Y19012500D02*
X-5675000Y18612500D01*
X-5175000Y19512500D02*
X-4760000Y19512500D01*
X-5675000Y18612500D02*
G75*
G02*
X-6175000Y18112500I-500001J1D01*
G01*
X-5675000Y19012500D02*
G75*
G02*
X-5175000Y19512500I500001J-1D01*
G01*
%TO.N,Net-(D2-Pad1)*%
X-5175000Y22012500D02*
X-4760000Y22012500D01*
X-5675000Y21512500D02*
X-5675000Y21112500D01*
X-6590000Y20612500D02*
X-6175000Y20612500D01*
X-5675000Y21512500D02*
G75*
G02*
X-5175000Y22012500I500001J-1D01*
G01*
X-5675000Y21112500D02*
G75*
G02*
X-6175000Y20612500I-500001J1D01*
G01*
%TO.N,Net-(D3-Pad1)*%
X-5175000Y24512500D02*
X-4760000Y24512500D01*
X-6590000Y23112500D02*
X-6175000Y23112500D01*
X-5675000Y24012500D02*
X-5675000Y23612500D01*
X-5675000Y24012500D02*
G75*
G02*
X-5175000Y24512500I500001J-1D01*
G01*
X-5675000Y23612500D02*
G75*
G02*
X-6175000Y23112500I-500001J1D01*
G01*
%TO.N,Net-(D4-Pad1)*%
X-6590000Y25612500D02*
X-6175000Y25612500D01*
X-5675000Y26512500D02*
X-5675000Y26112500D01*
X-5175000Y27012500D02*
X-4760000Y27012500D01*
X-5675000Y26112500D02*
G75*
G02*
X-6175000Y25612500I-500001J1D01*
G01*
X-5675000Y26512500D02*
G75*
G02*
X-5175000Y27012500I500001J-1D01*
G01*
%TO.N,Net-(D5-Pad1)*%
X-5175000Y29512500D02*
X-4760000Y29512500D01*
X-6590000Y28112500D02*
X-6175000Y28112500D01*
X-5675000Y29012500D02*
X-5675000Y28612500D01*
X-5675000Y29012500D02*
G75*
G02*
X-5175000Y29512500I500001J-1D01*
G01*
X-5675000Y28612500D02*
G75*
G02*
X-6175000Y28112500I-500001J1D01*
G01*
%TD*%
M02*
