%TF.GenerationSoftware,KiCad,Pcbnew,(6.0.5)*%
%TF.CreationDate,2022-06-15T23:09:50+02:00*%
%TF.ProjectId,plate-SI,706c6174-652d-4534-992e-6b696361645f,rev?*%
%TF.SameCoordinates,Original*%
%TF.FileFunction,Profile,NP*%
%FSLAX46Y46*%
G04 Gerber Fmt 4.6, Leading zero omitted, Abs format (unit mm)*
G04 Created by KiCad (PCBNEW (6.0.5)) date 2022-06-15 23:09:50*
%MOMM*%
%LPD*%
G01*
G04 APERTURE LIST*
%TA.AperFunction,Profile*%
%ADD10C,0.100000*%
%TD*%
G04 APERTURE END LIST*
D10*
X30290000Y-49840000D02*
X30290000Y-64460000D01*
X45410000Y-26860000D02*
G75*
G03*
X45910000Y-26360000I0J500000D01*
G01*
X49840000Y7810000D02*
G75*
G03*
X49340000Y7310000I0J-500000D01*
G01*
X15342002Y-30290000D02*
X11740000Y-30290000D01*
X26860000Y-45410000D02*
X26860000Y-30790000D01*
X-2810000Y8370000D02*
G75*
G03*
X-3258999Y8090000I1J-500001D01*
G01*
X-3707998Y-30290000D02*
G75*
G03*
X-3258999Y-30010000I-1J500001D01*
G01*
X17335000Y-68890000D02*
G75*
G03*
X16835000Y-68390000I-500000J0D01*
G01*
X15342002Y-11240000D02*
X11740000Y-11240000D01*
X45410000Y-45910000D02*
G75*
G03*
X45910000Y-45410000I0J500000D01*
G01*
X49840000Y-58865000D02*
G75*
G03*
X49340000Y-59365000I0J-500000D01*
G01*
X15342002Y-30290002D02*
G75*
G03*
X15791001Y-30010000I-2J500002D01*
G01*
X2810000Y8370000D02*
X-2810000Y8370000D01*
X38417893Y33500005D02*
G75*
G03*
X39125000Y33792893I7J999995D01*
G01*
X53978567Y35939354D02*
G75*
G03*
X55039214Y35500000I1060633J1060546D01*
G01*
X11240000Y-49840000D02*
X11240000Y-64460000D01*
X16240000Y-48780000D02*
G75*
G03*
X15791001Y-49060000I0J-500000D01*
G01*
X67175000Y31585786D02*
X67175000Y-83810786D01*
X30790000Y-84010000D02*
X45410000Y-84010000D01*
X30790000Y7810000D02*
G75*
G03*
X30290000Y7310000I0J-500000D01*
G01*
X64960000Y-35885000D02*
X64960000Y-21265000D01*
X15342002Y7809998D02*
G75*
G03*
X15791001Y8090000I-2J500002D01*
G01*
X5817002Y-68390002D02*
G75*
G03*
X6266001Y-68110000I-2J500002D01*
G01*
X45910000Y7310000D02*
G75*
G03*
X45410000Y7810000I-500000J0D01*
G01*
X22309001Y8090001D02*
G75*
G03*
X22757998Y7810000I448999J219999D01*
G01*
X26360000Y-64960000D02*
G75*
G03*
X26860000Y-64460000I0J500000D01*
G01*
X7310000Y-49340000D02*
X3707998Y-49340000D01*
X3171447Y35939340D02*
X5085660Y37853553D01*
X30290000Y-30790000D02*
X30290000Y-45410000D01*
X3258999Y-49060000D02*
G75*
G03*
X2810000Y-48780000I-448999J-220000D01*
G01*
X21860000Y-10680000D02*
X16240000Y-10680000D01*
X11740000Y-64960000D02*
X26360000Y-64960000D01*
X45910000Y-68890000D02*
G75*
G03*
X45410000Y-68390000I-500000J0D01*
G01*
X64460000Y-36385000D02*
G75*
G03*
X64960000Y-35885000I0J500000D01*
G01*
X-6110786Y35500000D02*
X2110786Y35500000D01*
X41359001Y-49059999D02*
G75*
G03*
X41807998Y-49340000I448999J219999D01*
G01*
X15342002Y7810000D02*
X11740000Y7810000D01*
X-7810000Y-30790000D02*
X-7810000Y-45410000D01*
X26360000Y-7810000D02*
G75*
G03*
X26860000Y-7310000I0J500000D01*
G01*
X5817002Y-68390000D02*
X2215000Y-68390000D01*
X30790000Y-26860000D02*
X45410000Y-26860000D01*
X45410000Y-7810000D02*
G75*
G03*
X45910000Y-7310000I0J500000D01*
G01*
X-3707998Y7810000D02*
X-7310000Y7810000D01*
X7810000Y-45410000D02*
X7810000Y-30790000D01*
X15342002Y-49340002D02*
G75*
G03*
X15791001Y-49060000I-2J500002D01*
G01*
X12335000Y-67830000D02*
X6715000Y-67830000D01*
X16835000Y-68390000D02*
X13232998Y-68390000D01*
X7810000Y-7310000D02*
X7810000Y7310000D01*
X15342002Y-49340000D02*
X11740000Y-49340000D01*
X34392002Y-49340002D02*
G75*
G03*
X34841001Y-49060000I-2J500002D01*
G01*
X3259001Y8090001D02*
G75*
G03*
X3707998Y7810000I448999J219999D01*
G01*
X7310000Y-30290000D02*
X3707998Y-30290000D01*
X3671449Y-88164338D02*
G75*
G03*
X2610786Y-87725000I-1060659J-1060662D01*
G01*
X11740000Y-45910000D02*
X26360000Y-45910000D01*
X67174961Y31585786D02*
G75*
G03*
X67028553Y31939340I-500061J14D01*
G01*
X30790000Y-11240000D02*
G75*
G03*
X30290000Y-11740000I0J-500000D01*
G01*
X49840000Y-74485000D02*
X64460000Y-74485000D01*
X16439214Y-87725009D02*
G75*
G03*
X15378553Y-88164340I-14J-1499991D01*
G01*
X-7810000Y7310000D02*
X-7810000Y-7310000D01*
X-3707998Y7810000D02*
G75*
G03*
X-3258999Y8090000I-1J500001D01*
G01*
X35290000Y-10680000D02*
G75*
G03*
X34841001Y-10960000I0J-500000D01*
G01*
X3258999Y8090000D02*
G75*
G03*
X2810000Y8370000I-448999J-220000D01*
G01*
X7810000Y-64460000D02*
X7810000Y-49840000D01*
X1715000Y-83510000D02*
G75*
G03*
X2215000Y-84010000I500000J0D01*
G01*
X40710786Y-87725000D02*
X16439214Y-87725000D01*
X43539214Y37999961D02*
G75*
G03*
X43185660Y37853553I-14J-500061D01*
G01*
X30290000Y-68890000D02*
X30290000Y-83510000D01*
X49340000Y-7310000D02*
G75*
G03*
X49840000Y-7810000I500000J0D01*
G01*
X30290000Y7310000D02*
X30290000Y-7310000D01*
X7310000Y-45910000D02*
G75*
G03*
X7810000Y-45410000I0J500000D01*
G01*
X2110786Y35500002D02*
G75*
G03*
X3171447Y35939340I4J1499998D01*
G01*
X-3707998Y-11240000D02*
X-7310000Y-11240000D01*
X41358999Y-49060000D02*
G75*
G03*
X40910000Y-48780000I-448999J-220000D01*
G01*
X45410000Y-84010000D02*
G75*
G03*
X45910000Y-83510000I0J500000D01*
G01*
X40910000Y8370000D02*
X35290000Y8370000D01*
X49340000Y-70485000D02*
X49340000Y-73985000D01*
X45910000Y-49840000D02*
G75*
G03*
X45410000Y-49340000I-500000J0D01*
G01*
X-3707998Y-11240000D02*
G75*
G03*
X-3258999Y-10960000I-1J500001D01*
G01*
X34392002Y7810000D02*
X30790000Y7810000D01*
X34392002Y-11240000D02*
X30790000Y-11240000D01*
X60408999Y8090000D02*
G75*
G03*
X59960000Y8370000I-448999J-220000D01*
G01*
X11740000Y-26860000D02*
X26360000Y-26860000D01*
X-7310000Y-64960000D02*
X7310000Y-64960000D01*
X67028539Y-84164326D02*
G75*
G03*
X67175000Y-83810786I-353439J353526D01*
G01*
X22308999Y-30010000D02*
G75*
G03*
X21860000Y-29730000I-448999J-220000D01*
G01*
X63614340Y35353553D02*
X67028553Y31939340D01*
X-7810000Y-49840000D02*
X-7810000Y-64460000D01*
X63260786Y-87725000D02*
X54539214Y-87725000D01*
X7810000Y-30790000D02*
G75*
G03*
X7310000Y-30290000I-500000J0D01*
G01*
X26860000Y-26360000D02*
X26860000Y-11740000D01*
X30790000Y-68390000D02*
G75*
G03*
X30290000Y-68890000I0J-500000D01*
G01*
X45410000Y-30290000D02*
X41807998Y-30290000D01*
X49059999Y-25315999D02*
G75*
G03*
X49340000Y-24867002I-219999J448999D01*
G01*
X-2810000Y-10680000D02*
G75*
G03*
X-3258999Y-10960000I1J-500001D01*
G01*
X26860000Y-7310000D02*
X26860000Y7310000D01*
X-7310000Y-30290000D02*
G75*
G03*
X-7810000Y-30790000I1J-500001D01*
G01*
X-3707998Y-49340000D02*
X-7310000Y-49340000D01*
X64460000Y7810000D02*
X60857998Y7810000D01*
X11740000Y-49340000D02*
G75*
G03*
X11240000Y-49840000I0J-500000D01*
G01*
X30290000Y-45410000D02*
G75*
G03*
X30790000Y-45910000I500000J0D01*
G01*
X49340000Y-32385000D02*
X49340000Y-35885000D01*
X11240000Y-26360000D02*
G75*
G03*
X11740000Y-26860000I500000J0D01*
G01*
X2810000Y-10680000D02*
X-2810000Y-10680000D01*
X40910000Y-29730000D02*
X35290000Y-29730000D01*
X3258999Y-10960000D02*
G75*
G03*
X2810000Y-10680000I-448999J-220000D01*
G01*
X16240000Y-10680000D02*
G75*
G03*
X15791001Y-10960000I0J-500000D01*
G01*
X64460000Y-20765000D02*
X49840000Y-20765000D01*
X22309001Y-49059999D02*
G75*
G03*
X22757998Y-49340000I448999J219999D01*
G01*
X-7810000Y-26360000D02*
G75*
G03*
X-7310000Y-26860000I500001J1D01*
G01*
X1715000Y-68890000D02*
X1715000Y-83510000D01*
X54539214Y-87725039D02*
G75*
G03*
X53478553Y-88164340I-14J-1500061D01*
G01*
X40910000Y-67830000D02*
X35290000Y-67830000D01*
X40910000Y-48780000D02*
X35290000Y-48780000D01*
X11240000Y7310000D02*
X11240000Y-7310000D01*
X49340000Y7310000D02*
X49340000Y-7310000D01*
X21860000Y-48780000D02*
X16240000Y-48780000D01*
X41359001Y-68109999D02*
G75*
G03*
X41807998Y-68390000I448999J219999D01*
G01*
X34392002Y-49340000D02*
X30790000Y-49340000D01*
X26860000Y7310000D02*
G75*
G03*
X26360000Y7810000I-500000J0D01*
G01*
X39125000Y33792893D02*
X43185660Y37853553D01*
X7310000Y-26860000D02*
G75*
G03*
X7810000Y-26360000I0J500000D01*
G01*
X-7310000Y-49340000D02*
G75*
G03*
X-7810000Y-49840000I1J-500001D01*
G01*
X15342002Y-11240002D02*
G75*
G03*
X15791001Y-10960000I-2J500002D01*
G01*
X11740000Y-7810000D02*
X26360000Y-7810000D01*
X41359001Y8090001D02*
G75*
G03*
X41807998Y7810000I448999J219999D01*
G01*
X22309001Y-30009999D02*
G75*
G03*
X22757998Y-30290000I448999J219999D01*
G01*
X11240000Y-64460000D02*
G75*
G03*
X11740000Y-64960000I500000J0D01*
G01*
X64960000Y-7310000D02*
X64960000Y7310000D01*
X49340000Y-73985000D02*
G75*
G03*
X49840000Y-74485000I500000J0D01*
G01*
X11740000Y7810000D02*
G75*
G03*
X11240000Y7310000I0J-500000D01*
G01*
X30790000Y-7810000D02*
X45410000Y-7810000D01*
X64960000Y7310000D02*
G75*
G03*
X64460000Y7810000I-500000J0D01*
G01*
X7810000Y-26360000D02*
X7810000Y-11740000D01*
X45910000Y-7310000D02*
X45910000Y7310000D01*
X41358999Y-10960000D02*
G75*
G03*
X40910000Y-10680000I-448999J-220000D01*
G01*
X7310000Y-64960000D02*
G75*
G03*
X7810000Y-64460000I0J500000D01*
G01*
X55039214Y35500000D02*
X63260786Y35500000D01*
X64960000Y-59365000D02*
G75*
G03*
X64460000Y-58865000I-500000J0D01*
G01*
X30290000Y-26360000D02*
G75*
G03*
X30790000Y-26860000I500000J0D01*
G01*
X60409001Y8090001D02*
G75*
G03*
X60857998Y7810000I448999J219999D01*
G01*
X18024997Y33792890D02*
G75*
G03*
X18732107Y33500000I707103J707110D01*
G01*
X7810000Y-11740000D02*
G75*
G03*
X7310000Y-11240000I-500000J0D01*
G01*
X-7810000Y-45410000D02*
G75*
G03*
X-7310000Y-45910000I500001J1D01*
G01*
X41359001Y-30009999D02*
G75*
G03*
X41807998Y-30290000I448999J219999D01*
G01*
X21860000Y8370000D02*
X16240000Y8370000D01*
X22308999Y-49060000D02*
G75*
G03*
X21860000Y-48780000I-448999J-220000D01*
G01*
X40910000Y-10680000D02*
X35290000Y-10680000D01*
X13610786Y-89725000D02*
X5439214Y-89725000D01*
X22308999Y-10960000D02*
G75*
G03*
X21860000Y-10680000I-448999J-220000D01*
G01*
X34392002Y7809998D02*
G75*
G03*
X34841001Y8090000I-2J500002D01*
G01*
X-6464340Y-87578553D02*
X-9878553Y-84164340D01*
X49340000Y-35885000D02*
G75*
G03*
X49840000Y-36385000I500000J0D01*
G01*
X15378553Y-88164340D02*
X13964340Y-89578553D01*
X-7310000Y7810000D02*
G75*
G03*
X-7810000Y7310000I1J-500001D01*
G01*
X30790000Y-30290000D02*
G75*
G03*
X30290000Y-30790000I0J-500000D01*
G01*
X16835000Y-84010000D02*
G75*
G03*
X17335000Y-83510000I0J500000D01*
G01*
X-7310000Y-11240000D02*
G75*
G03*
X-7810000Y-11740000I1J-500001D01*
G01*
X30290000Y-7310000D02*
G75*
G03*
X30790000Y-7810000I500000J0D01*
G01*
X51710786Y-89725000D02*
X43539214Y-89725000D01*
X45910000Y-30790000D02*
G75*
G03*
X45410000Y-30290000I-500000J0D01*
G01*
X5085660Y-89578553D02*
X3671447Y-88164340D01*
X35290000Y-48780000D02*
G75*
G03*
X34841001Y-49060000I0J-500000D01*
G01*
X2810000Y-48780000D02*
X-2810000Y-48780000D01*
X45410000Y-49340000D02*
X41807998Y-49340000D01*
X49340000Y-59365000D02*
X49340000Y-62967002D01*
X52064340Y37853553D02*
X53978553Y35939340D01*
X2215000Y-84010000D02*
X16835000Y-84010000D01*
X26860000Y-11740000D02*
G75*
G03*
X26360000Y-11240000I-500000J0D01*
G01*
X26360000Y7810000D02*
X22757998Y7810000D01*
X13964347Y37853560D02*
G75*
G03*
X13610786Y38000000I-353547J-353560D01*
G01*
X45410000Y-11240000D02*
X41807998Y-11240000D01*
X6715000Y-67830000D02*
G75*
G03*
X6266001Y-68110000I0J-500000D01*
G01*
X30290000Y-11740000D02*
X30290000Y-26360000D01*
X43539214Y38000000D02*
X51710786Y38000000D01*
X34392002Y-11240002D02*
G75*
G03*
X34841001Y-10960000I-2J500002D01*
G01*
X49060000Y-63416001D02*
G75*
G03*
X48780000Y-63865000I220000J-448999D01*
G01*
X-7310000Y-45910000D02*
X7310000Y-45910000D01*
X13964340Y37853553D02*
X18025000Y33792893D01*
X34392002Y-30290002D02*
G75*
G03*
X34841001Y-30010000I-2J500002D01*
G01*
X30790000Y-45910000D02*
X45410000Y-45910000D01*
X26860000Y-49840000D02*
G75*
G03*
X26360000Y-49340000I-500000J0D01*
G01*
X11740000Y-30290000D02*
G75*
G03*
X11240000Y-30790000I0J-500000D01*
G01*
X34392002Y-68390002D02*
G75*
G03*
X34841001Y-68110000I-2J500002D01*
G01*
X48780000Y-63865000D02*
X48780000Y-69587002D01*
X45410000Y-68390000D02*
X41807998Y-68390000D01*
X12784001Y-68109999D02*
G75*
G03*
X13232998Y-68390000I448999J219999D01*
G01*
X11240000Y-11740000D02*
X11240000Y-26360000D01*
X34392002Y-68390000D02*
X30790000Y-68390000D01*
X64960000Y-21265000D02*
G75*
G03*
X64460000Y-20765000I-500000J0D01*
G01*
X49340000Y-32385000D02*
G75*
G03*
X49060000Y-31936001I-500000J0D01*
G01*
X3259001Y-49059999D02*
G75*
G03*
X3707998Y-49340000I448999J219999D01*
G01*
X2610786Y-87725000D02*
X-6110786Y-87725000D01*
X45910000Y-11740000D02*
G75*
G03*
X45410000Y-11240000I-500000J0D01*
G01*
X26360000Y-30290000D02*
X22757998Y-30290000D01*
X45910000Y-64460000D02*
X45910000Y-49840000D01*
X5085653Y-89578560D02*
G75*
G03*
X5439214Y-89725000I353547J353560D01*
G01*
X49340000Y-21265000D02*
X49340000Y-24867002D01*
X30290000Y-83510000D02*
G75*
G03*
X30790000Y-84010000I500000J0D01*
G01*
X30790000Y-64960000D02*
X45410000Y-64960000D01*
X53442002Y7810000D02*
X49840000Y7810000D01*
X49840000Y-7810000D02*
X64460000Y-7810000D01*
X49340000Y-70485000D02*
G75*
G03*
X49060000Y-70036001I-500000J0D01*
G01*
X67028553Y-84164340D02*
X63614340Y-87578553D01*
X-3707998Y-49340000D02*
G75*
G03*
X-3258999Y-49060000I-1J500001D01*
G01*
X26360000Y-49340000D02*
X22757998Y-49340000D01*
X45910000Y-26360000D02*
X45910000Y-11740000D01*
X5439214Y37999990D02*
G75*
G03*
X5085660Y37853553I-14J-499990D01*
G01*
X49060000Y-25316001D02*
G75*
G03*
X48780000Y-25765000I220000J-448999D01*
G01*
X54340000Y8370000D02*
G75*
G03*
X53891001Y8090000I0J-500000D01*
G01*
X-6464340Y-87578553D02*
G75*
G03*
X-6110786Y-87725000I353553J353550D01*
G01*
X-10025000Y-83810786D02*
X-10025000Y31585786D01*
X45910000Y-83510000D02*
X45910000Y-68890000D01*
X16240000Y8370000D02*
G75*
G03*
X15791001Y8090000I0J-500000D01*
G01*
X-7310000Y-7810000D02*
X7310000Y-7810000D01*
X22309001Y-10959999D02*
G75*
G03*
X22757998Y-11240000I448999J219999D01*
G01*
X43185660Y-89578553D02*
X41771447Y-88164340D01*
X-3707998Y-30290000D02*
X-7310000Y-30290000D01*
X7310000Y-7810000D02*
G75*
G03*
X7810000Y-7310000I0J500000D01*
G01*
X3258999Y-30010000D02*
G75*
G03*
X2810000Y-29730000I-448999J-220000D01*
G01*
X-7810000Y-11740000D02*
X-7810000Y-26360000D01*
X2215000Y-68390000D02*
G75*
G03*
X1715000Y-68890000I0J-500000D01*
G01*
X26860000Y-64460000D02*
X26860000Y-49840000D01*
X13610786Y-89724990D02*
G75*
G03*
X13964340Y-89578553I14J499990D01*
G01*
X45910000Y-45410000D02*
X45910000Y-30790000D01*
X45410000Y-64960000D02*
G75*
G03*
X45910000Y-64460000I0J500000D01*
G01*
X-9878553Y31939340D02*
X-6464340Y35353553D01*
X-7810000Y-7310000D02*
G75*
G03*
X-7310000Y-7810000I500001J1D01*
G01*
X51710786Y-89724961D02*
G75*
G03*
X52064340Y-89578553I14J500061D01*
G01*
X26860000Y-30790000D02*
G75*
G03*
X26360000Y-30290000I-500000J0D01*
G01*
X43185674Y-89578539D02*
G75*
G03*
X43539214Y-89725000I353526J353439D01*
G01*
X18732107Y33500000D02*
X38417893Y33500000D01*
X26360000Y-26860000D02*
G75*
G03*
X26860000Y-26360000I0J500000D01*
G01*
X45410000Y7810000D02*
X41807998Y7810000D01*
X41358999Y-68110000D02*
G75*
G03*
X40910000Y-67830000I-448999J-220000D01*
G01*
X63614326Y35353539D02*
G75*
G03*
X63260786Y35500000I-353526J-353439D01*
G01*
X64460000Y-7810000D02*
G75*
G03*
X64960000Y-7310000I0J500000D01*
G01*
X49840000Y-20765000D02*
G75*
G03*
X49340000Y-21265000I0J-500000D01*
G01*
X34392002Y-30290000D02*
X30790000Y-30290000D01*
X5439214Y38000000D02*
X13610786Y38000000D01*
X7810000Y-49840000D02*
G75*
G03*
X7310000Y-49340000I-500000J0D01*
G01*
X-2810000Y-48780000D02*
G75*
G03*
X-3258999Y-49060000I1J-500001D01*
G01*
X12783999Y-68110000D02*
G75*
G03*
X12335000Y-67830000I-448999J-220000D01*
G01*
X11240000Y-45410000D02*
G75*
G03*
X11740000Y-45910000I500000J0D01*
G01*
X30790000Y-49340000D02*
G75*
G03*
X30290000Y-49840000I0J-500000D01*
G01*
X64960000Y-73985000D02*
X64960000Y-59365000D01*
X53442002Y7809998D02*
G75*
G03*
X53891001Y8090000I-2J500002D01*
G01*
X64460000Y-74485000D02*
G75*
G03*
X64960000Y-73985000I0J500000D01*
G01*
X52064326Y37853539D02*
G75*
G03*
X51710786Y38000000I-353526J-353439D01*
G01*
X22308999Y8090000D02*
G75*
G03*
X21860000Y8370000I-448999J-220000D01*
G01*
X41771433Y-88164354D02*
G75*
G03*
X40710786Y-87725000I-1060633J-1060546D01*
G01*
X64460000Y-58865000D02*
X49840000Y-58865000D01*
X7310000Y7810000D02*
X3707998Y7810000D01*
X-7810000Y-64460000D02*
G75*
G03*
X-7310000Y-64960000I500001J1D01*
G01*
X26360000Y-11240000D02*
X22757998Y-11240000D01*
X53478553Y-88164340D02*
X52064340Y-89578553D01*
X35290000Y-29730000D02*
G75*
G03*
X34841001Y-30010000I0J-500000D01*
G01*
X17335000Y-83510000D02*
X17335000Y-68890000D01*
X35290000Y-67830000D02*
G75*
G03*
X34841001Y-68110000I0J-500000D01*
G01*
X59960000Y8370000D02*
X54340000Y8370000D01*
X2810000Y-29730000D02*
X-2810000Y-29730000D01*
X35290000Y8370000D02*
G75*
G03*
X34841001Y8090000I0J-500000D01*
G01*
X7310000Y-11240000D02*
X3707998Y-11240000D01*
X-9878553Y31939340D02*
G75*
G03*
X-10025000Y31585786I353550J-353553D01*
G01*
X49059999Y-63415999D02*
G75*
G03*
X49340000Y-62967002I-219999J448999D01*
G01*
X48779998Y-69587002D02*
G75*
G03*
X49060000Y-70036001I500002J2D01*
G01*
X-2810000Y-29730000D02*
G75*
G03*
X-3258999Y-30010000I1J-500001D01*
G01*
X41358999Y8090000D02*
G75*
G03*
X40910000Y8370000I-448999J-220000D01*
G01*
X11240000Y-7310000D02*
G75*
G03*
X11740000Y-7810000I500000J0D01*
G01*
X16240000Y-29730000D02*
G75*
G03*
X15791001Y-30010000I0J-500000D01*
G01*
X-6110786Y35500000D02*
G75*
G03*
X-6464340Y35353553I-1J-499997D01*
G01*
X-7310000Y-26860000D02*
X7310000Y-26860000D01*
X48779998Y-31487002D02*
G75*
G03*
X49060000Y-31936001I500002J2D01*
G01*
X11740000Y-11240000D02*
G75*
G03*
X11240000Y-11740000I0J-500000D01*
G01*
X30290000Y-64460000D02*
G75*
G03*
X30790000Y-64960000I500000J0D01*
G01*
X49840000Y-36385000D02*
X64460000Y-36385000D01*
X63260786Y-87724961D02*
G75*
G03*
X63614340Y-87578553I14J500061D01*
G01*
X21860000Y-29730000D02*
X16240000Y-29730000D01*
X41358999Y-30010000D02*
G75*
G03*
X40910000Y-29730000I-448999J-220000D01*
G01*
X-10025000Y-83810786D02*
G75*
G03*
X-9878553Y-84164340I499997J-1D01*
G01*
X48780000Y-25765000D02*
X48780000Y-31487002D01*
X7810000Y7310000D02*
G75*
G03*
X7310000Y7810000I-500000J0D01*
G01*
X11240000Y-30790000D02*
X11240000Y-45410000D01*
X3259001Y-30009999D02*
G75*
G03*
X3707998Y-30290000I448999J219999D01*
G01*
X3259001Y-10959999D02*
G75*
G03*
X3707998Y-11240000I448999J219999D01*
G01*
X26360000Y-45910000D02*
G75*
G03*
X26860000Y-45410000I0J500000D01*
G01*
X41359001Y-10959999D02*
G75*
G03*
X41807998Y-11240000I448999J219999D01*
G01*
M02*
